<?xml version="1.0" encoding="utf-8" standalone="no"?>
<!DOCTYPE svg PUBLIC "-//W3C//DTD SVG 1.1//EN"
  "http://www.w3.org/Graphics/SVG/1.1/DTD/svg11.dtd">
<!-- Created with matplotlib (https://matplotlib.org/) -->
<svg height="263.63625pt" version="1.1" viewBox="0 0 375.603125 263.63625" width="375.603125pt" xmlns="http://www.w3.org/2000/svg" xmlns:xlink="http://www.w3.org/1999/xlink">
 <defs>
  <style type="text/css">
*{stroke-linecap:butt;stroke-linejoin:round;}
  </style>
 </defs>
 <g id="figure_1">
  <g id="patch_1">
   <path d="M 0 263.63625 
L 375.603125 263.63625 
L 375.603125 0 
L 0 0 
z
"/>
  </g>
  <g id="axes_1">
   <g id="patch_2">
    <path d="M 30.103125 239.758125 
L 364.903125 239.758125 
L 364.903125 22.318125 
L 30.103125 22.318125 
z
"/>
   </g>
   <g id="PathCollection_1">
    <path clip-path="url(#pdb2115ee85)" d="M 67.303125 239.758125 
L 104.503125 239.758125 
L 141.703125 239.758125 
L 178.903125 239.758125 
L 216.103125 239.758125 
L 253.303125 239.758125 
L 290.503125 239.758125 
L 327.703125 239.758125 
L 364.903125 239.758125 
L 364.903125 215.598125 
L 364.903125 211.974125 
L 333.283125 191.438125 
L 327.703125 187.814125 
L 296.083125 167.278125 
L 290.503125 163.654125 
L 258.883125 143.118125 
L 253.303125 139.494125 
L 216.103125 139.494125 
L 184.483125 118.958125 
L 178.903125 115.334125 
L 147.283125 94.798125 
L 141.703125 91.174125 
L 110.083125 70.638125 
L 104.503125 67.014125 
L 72.883125 46.478125 
L 67.303125 42.854125 
L 35.683125 22.318125 
L 30.103125 22.318125 
L 30.103125 46.478125 
L 30.103125 70.638125 
L 30.103125 94.798125 
L 30.103125 118.958125 
L 30.103125 143.118125 
L 30.103125 167.278125 
L 30.103125 191.438125 
L 30.103125 215.598125 
L 30.103125 239.758125 
z
" style="fill:#506bda;fill-opacity:0.8;"/>
   </g>
   <g id="PathCollection_2">
    <path clip-path="url(#pdb2115ee85)" d="M 364.903125 211.974125 
L 364.903125 208.350125 
L 338.863125 191.438125 
L 327.703125 184.190125 
L 301.663125 167.278125 
L 290.503125 160.030125 
L 264.463125 143.118125 
L 253.303125 135.870125 
L 216.103125 135.870125 
L 190.063125 118.958125 
L 178.903125 111.710125 
L 152.863125 94.798125 
L 141.703125 87.550125 
L 115.663125 70.638125 
L 104.503125 63.390125 
L 78.463125 46.478125 
L 67.303125 39.230125 
L 41.263125 22.318125 
L 35.683125 22.318125 
L 67.303125 42.854125 
L 72.883125 46.478125 
L 104.503125 67.014125 
L 110.083125 70.638125 
L 141.703125 91.174125 
L 147.283125 94.798125 
L 178.903125 115.334125 
L 184.483125 118.958125 
L 216.103125 139.494125 
L 253.303125 139.494125 
L 258.883125 143.118125 
L 290.503125 163.654125 
L 296.083125 167.278125 
L 327.703125 187.814125 
L 333.283125 191.438125 
z
" style="fill:#80a3fa;fill-opacity:0.8;"/>
   </g>
   <g id="PathCollection_3">
    <path clip-path="url(#pdb2115ee85)" d="M 364.903125 208.350125 
L 364.903125 204.726125 
L 344.443125 191.438125 
L 327.703125 180.566125 
L 307.243125 167.278125 
L 290.503125 156.406125 
L 270.043125 143.118125 
L 253.303125 132.246125 
L 216.103125 132.246125 
L 195.643125 118.958125 
L 178.903125 108.086125 
L 158.443125 94.798125 
L 141.703125 83.926125 
L 121.243125 70.638125 
L 104.503125 59.766125 
L 84.043125 46.478125 
L 67.303125 35.606125 
L 46.843125 22.318125 
L 41.263125 22.318125 
L 67.303125 39.230125 
L 78.463125 46.478125 
L 104.503125 63.390125 
L 115.663125 70.638125 
L 141.703125 87.550125 
L 152.863125 94.798125 
L 178.903125 111.710125 
L 190.063125 118.958125 
L 216.103125 135.870125 
L 253.303125 135.870125 
L 264.463125 143.118125 
L 290.503125 160.030125 
L 301.663125 167.278125 
L 327.703125 184.190125 
L 338.863125 191.438125 
z
" style="fill:#b2ccfb;fill-opacity:0.8;"/>
   </g>
   <g id="PathCollection_4">
    <path clip-path="url(#pdb2115ee85)" d="M 364.903125 204.726125 
L 364.903125 201.102125 
L 350.023125 191.438125 
L 327.703125 176.942125 
L 312.823125 167.278125 
L 290.503125 152.782125 
L 275.623125 143.118125 
L 253.303125 128.622125 
L 216.103125 128.622125 
L 201.223125 118.958125 
L 178.903125 104.462125 
L 164.023125 94.798125 
L 141.703125 80.302125 
L 126.823125 70.638125 
L 104.503125 56.142125 
L 89.623125 46.478125 
L 67.303125 31.982125 
L 52.423125 22.318125 
L 46.843125 22.318125 
L 67.303125 35.606125 
L 84.043125 46.478125 
L 104.503125 59.766125 
L 121.243125 70.638125 
L 141.703125 83.926125 
L 158.443125 94.798125 
L 178.903125 108.086125 
L 195.643125 118.958125 
L 216.103125 132.246125 
L 253.303125 132.246125 
L 270.043125 143.118125 
L 290.503125 156.406125 
L 307.243125 167.278125 
L 327.703125 180.566125 
L 344.443125 191.438125 
z
" style="fill:#dddcdc;fill-opacity:0.8;"/>
   </g>
   <g id="PathCollection_5">
    <path clip-path="url(#pdb2115ee85)" d="M 364.903125 201.102125 
L 364.903125 197.478125 
L 355.603125 191.438125 
L 327.703125 173.318125 
L 318.403125 167.278125 
L 290.503125 149.158125 
L 281.203125 143.118125 
L 253.303125 124.998125 
L 216.103125 124.998125 
L 206.803125 118.958125 
L 178.903125 100.838125 
L 169.603125 94.798125 
L 141.703125 76.678125 
L 132.403125 70.638125 
L 104.503125 52.518125 
L 95.203125 46.478125 
L 67.303125 28.358125 
L 58.003125 22.318125 
L 52.423125 22.318125 
L 67.303125 31.982125 
L 89.623125 46.478125 
L 104.503125 56.142125 
L 126.823125 70.638125 
L 141.703125 80.302125 
L 164.023125 94.798125 
L 178.903125 104.462125 
L 201.223125 118.958125 
L 216.103125 128.622125 
L 253.303125 128.622125 
L 275.623125 143.118125 
L 290.503125 152.782125 
L 312.823125 167.278125 
L 327.703125 176.942125 
L 350.023125 191.438125 
z
" style="fill:#f6bfa6;fill-opacity:0.8;"/>
   </g>
   <g id="PathCollection_6">
    <path clip-path="url(#pdb2115ee85)" d="M 364.903125 197.478125 
L 364.903125 193.854125 
L 361.183125 191.438125 
L 327.703125 169.694125 
L 323.983125 167.278125 
L 290.503125 145.534125 
L 286.783125 143.118125 
L 253.303125 121.374125 
L 216.103125 121.374125 
L 212.383125 118.958125 
L 178.903125 97.214125 
L 175.183125 94.798125 
L 141.703125 73.054125 
L 137.983125 70.638125 
L 104.503125 48.894125 
L 100.783125 46.478125 
L 67.303125 24.734125 
L 63.583125 22.318125 
L 58.003125 22.318125 
L 67.303125 28.358125 
L 95.203125 46.478125 
L 104.503125 52.518125 
L 132.403125 70.638125 
L 141.703125 76.678125 
L 169.603125 94.798125 
L 178.903125 100.838125 
L 206.803125 118.958125 
L 216.103125 124.998125 
L 253.303125 124.998125 
L 281.203125 143.118125 
L 290.503125 149.158125 
L 318.403125 167.278125 
L 327.703125 173.318125 
L 355.603125 191.438125 
z
" style="fill:#f08a6c;fill-opacity:0.8;"/>
   </g>
   <g id="PathCollection_7">
    <path clip-path="url(#pdb2115ee85)" d="M 364.903125 193.854125 
L 364.903125 191.438125 
L 364.903125 167.278125 
L 364.903125 143.118125 
L 364.903125 118.958125 
L 364.903125 94.798125 
L 364.903125 70.638125 
L 364.903125 46.478125 
L 364.903125 22.318125 
L 327.703125 22.318125 
L 290.503125 22.318125 
L 253.303125 22.318125 
L 216.103125 22.318125 
L 178.903125 22.318125 
L 141.703125 22.318125 
L 104.503125 22.318125 
L 67.303125 22.318125 
L 63.583125 22.318125 
L 67.303125 24.734125 
L 100.783125 46.478125 
L 104.503125 48.894125 
L 137.983125 70.638125 
L 141.703125 73.054125 
L 175.183125 94.798125 
L 178.903125 97.214125 
L 212.383125 118.958125 
L 216.103125 121.374125 
L 253.303125 121.374125 
L 286.783125 143.118125 
L 290.503125 145.534125 
L 323.983125 167.278125 
L 327.703125 169.694125 
L 361.183125 191.438125 
z
" style="fill:#cd423b;fill-opacity:0.8;"/>
   </g>
   <g id="PathCollection_8">
    <defs>
     <path d="M 0 1.118034 
C 0.296506 1.118034 0.580908 1.000231 0.790569 0.790569 
C 1.000231 0.580908 1.118034 0.296506 1.118034 0 
C 1.118034 -0.296506 1.000231 -0.580908 0.790569 -0.790569 
C 0.580908 -1.000231 0.296506 -1.118034 0 -1.118034 
C -0.296506 -1.118034 -0.580908 -1.000231 -0.790569 -0.790569 
C -1.000231 -0.580908 -1.118034 -0.296506 -1.118034 0 
C -1.118034 0.296506 -1.000231 0.580908 -0.790569 0.790569 
C -0.580908 1.000231 -0.296506 1.118034 0 1.118034 
z
" id="m439d1c806b" style="stroke:#bfbf00;"/>
    </defs>
    <g clip-path="url(#pdb2115ee85)">
     <use style="fill:#bfbf00;stroke:#bfbf00;" x="165.806766" xlink:href="#m439d1c806b" y="117.956922"/>
     <use style="fill:#bfbf00;stroke:#bfbf00;" x="194.758579" xlink:href="#m439d1c806b" y="126.30975"/>
     <use style="fill:#bfbf00;stroke:#bfbf00;" x="190.845804" xlink:href="#m439d1c806b" y="149.127763"/>
     <use style="fill:#bfbf00;stroke:#bfbf00;" x="212.760058" xlink:href="#m439d1c806b" y="153.021399"/>
     <use style="fill:#bfbf00;stroke:#bfbf00;" x="215.11044" xlink:href="#m439d1c806b" y="139.660136"/>
     <use style="fill:#bfbf00;stroke:#bfbf00;" x="250.325409" xlink:href="#m439d1c806b" y="157.469715"/>
     <use style="fill:#bfbf00;stroke:#bfbf00;" x="265.202103" xlink:href="#m439d1c806b" y="175.839411"/>
     <use style="fill:#bfbf00;stroke:#bfbf00;" x="226.848763" xlink:href="#m439d1c806b" y="189.749916"/>
     <use style="fill:#bfbf00;stroke:#bfbf00;" x="228.411155" xlink:href="#m439d1c806b" y="170.825539"/>
     <use style="fill:#bfbf00;stroke:#bfbf00;" x="185.370638" xlink:href="#m439d1c806b" y="188.640556"/>
     <use style="fill:#bfbf00;stroke:#bfbf00;" x="194.758579" xlink:href="#m439d1c806b" y="172.495017"/>
     <use style="fill:#bfbf00;stroke:#bfbf00;" x="141.542131" xlink:href="#m439d1c806b" y="174.164495"/>
     <use style="fill:#bfbf00;stroke:#bfbf00;" x="186.93303" xlink:href="#m439d1c806b" y="141.889732"/>
     <use style="fill:#bfbf00;stroke:#bfbf00;" x="164.23758" xlink:href="#m439d1c806b" y="133.542342"/>
     <use style="fill:#bfbf00;stroke:#bfbf00;" x="163.456384" xlink:href="#m439d1c806b" y="154.130759"/>
     <use style="fill:#bfbf00;stroke:#bfbf00;" x="172.851118" xlink:href="#m439d1c806b" y="169.716179"/>
     <use style="fill:#bfbf00;stroke:#bfbf00;" x="159.54361" xlink:href="#m439d1c806b" y="190.304596"/>
     <use style="fill:#bfbf00;stroke:#bfbf00;" x="123.547445" xlink:href="#m439d1c806b" y="154.690877"/>
     <use style="fill:#bfbf00;stroke:#bfbf00;" x="137.629356" xlink:href="#m439d1c806b" y="141.335052"/>
     <use style="fill:#bfbf00;stroke:#bfbf00;" x="113.371514" xlink:href="#m439d1c806b" y="137.441416"/>
     <use style="fill:#bfbf00;stroke:#bfbf00;" x="124.328641" xlink:href="#m439d1c806b" y="116.292882"/>
     <use style="fill:#bfbf00;stroke:#bfbf00;" x="143.111316" xlink:href="#m439d1c806b" y="126.86443"/>
     <use style="fill:#bfbf00;stroke:#bfbf00;" x="147.805287" xlink:href="#m439d1c806b" y="109.614969"/>
     <use style="fill:#bfbf00;stroke:#bfbf00;" x="209.62848" xlink:href="#m439d1c806b" y="180.847846"/>
     <use style="fill:#bfbf00;stroke:#bfbf00;" x="224.505174" xlink:href="#m439d1c806b" y="156.915035"/>
     <use style="fill:#bfbf00;stroke:#bfbf00;" x="247.98182" xlink:href="#m439d1c806b" y="193.64899"/>
     <use style="fill:#bfbf00;stroke:#bfbf00;" x="200.240539" xlink:href="#m439d1c806b" y="212.567929"/>
     <use style="fill:#bfbf00;stroke:#bfbf00;" x="230.761537" xlink:href="#m439d1c806b" y="143.55921"/>
     <use style="fill:#bfbf00;stroke:#bfbf00;" x="119.63467" xlink:href="#m439d1c806b" y="136.32118"/>
     <use style="fill:#bfbf00;stroke:#bfbf00;" x="110.243333" xlink:href="#m439d1c806b" y="159.699311"/>
    </g>
   </g>
   <g id="PathCollection_9">
    <defs>
     <path d="M 0 1.118034 
C 0.296506 1.118034 0.580908 1.000231 0.790569 0.790569 
C 1.000231 0.580908 1.118034 0.296506 1.118034 0 
C 1.118034 -0.296506 1.000231 -0.580908 0.790569 -0.790569 
C 0.580908 -1.000231 0.296506 -1.118034 0 -1.118034 
C -0.296506 -1.118034 -0.580908 -1.000231 -0.790569 -0.790569 
C -1.000231 -0.580908 -1.118034 -0.296506 -1.118034 0 
C -1.118034 0.296506 -1.000231 0.580908 -0.790569 0.790569 
C -0.580908 1.000231 -0.296506 1.118034 0 1.118034 
z
" id="m0e6ae25c6f" style="stroke:#000000;"/>
    </defs>
    <g clip-path="url(#pdb2115ee85)">
     <use style="stroke:#000000;" x="191.633794" xlink:href="#m0e6ae25c6f" y="50.623119"/>
     <use style="stroke:#000000;" x="212.760058" xlink:href="#m0e6ae25c6f" y="90.690593"/>
     <use style="stroke:#000000;" x="260.501339" xlink:href="#m0e6ae25c6f" y="52.287159"/>
     <use style="stroke:#000000;" x="257.369761" xlink:href="#m0e6ae25c6f" y="107.385373"/>
     <use style="stroke:#000000;" x="301.198268" xlink:href="#m0e6ae25c6f" y="145.228688"/>
     <use style="stroke:#000000;" x="330.93807" xlink:href="#m0e6ae25c6f" y="126.86443"/>
     <use style="stroke:#000000;" x="287.897552" xlink:href="#m0e6ae25c6f" y="114.063285"/>
     <use style="stroke:#000000;" x="323.893718" xlink:href="#m0e6ae25c6f" y="73.441132"/>
     <use style="stroke:#000000;" x="247.193831" xlink:href="#m0e6ae25c6f" y="80.673724"/>
     <use style="stroke:#000000;" x="231.542733" xlink:href="#m0e6ae25c6f" y="49.508321"/>
     <use style="stroke:#000000;" x="287.109563" xlink:href="#m0e6ae25c6f" y="87.906317"/>
     <use style="stroke:#000000;" x="269.108084" xlink:href="#m0e6ae25c6f" y="133.542342"/>
     <use style="stroke:#000000;" x="188.502216" xlink:href="#m0e6ae25c6f" y="80.113606"/>
     <use style="stroke:#000000;" x="211.978862" xlink:href="#m0e6ae25c6f" y="62.864146"/>
     <use style="stroke:#000000;" x="238.587086" xlink:href="#m0e6ae25c6f" y="110.164211"/>
     <use style="stroke:#000000;" x="274.590044" xlink:href="#m0e6ae25c6f" y="67.312462"/>
     <use style="stroke:#000000;" x="306.680228" xlink:href="#m0e6ae25c6f" y="90.130475"/>
     <use style="stroke:#000000;" x="323.893718" xlink:href="#m0e6ae25c6f" y="114.063285"/>
     <use style="stroke:#000000;" x="302.76066" xlink:href="#m0e6ae25c6f" y="130.758066"/>
     <use style="stroke:#000000;" x="264.414113" xlink:href="#m0e6ae25c6f" y="120.186518"/>
     <use style="stroke:#000000;" x="64.06818" xlink:href="#m0e6ae25c6f" y="77.334768"/>
    </g>
   </g>
   <g id="matplotlib.axis_1">
    <g id="xtick_1">
     <g id="line2d_1">
      <defs>
       <path d="M 0 0 
L 0 3.5 
" id="m022cb872c2" style="stroke:#ffffff;stroke-width:0.8;"/>
      </defs>
      <g>
       <use style="fill:#ffffff;stroke:#ffffff;stroke-width:0.8;" x="58.198679" xlink:href="#m022cb872c2" y="239.758125"/>
      </g>
     </g>
     <g id="text_1">
      <!-- 0 -->
      <defs>
       <path d="M 31.78125 66.40625 
Q 24.171875 66.40625 20.328125 58.90625 
Q 16.5 51.421875 16.5 36.375 
Q 16.5 21.390625 20.328125 13.890625 
Q 24.171875 6.390625 31.78125 6.390625 
Q 39.453125 6.390625 43.28125 13.890625 
Q 47.125 21.390625 47.125 36.375 
Q 47.125 51.421875 43.28125 58.90625 
Q 39.453125 66.40625 31.78125 66.40625 
z
M 31.78125 74.21875 
Q 44.046875 74.21875 50.515625 64.515625 
Q 56.984375 54.828125 56.984375 36.375 
Q 56.984375 17.96875 50.515625 8.265625 
Q 44.046875 -1.421875 31.78125 -1.421875 
Q 19.53125 -1.421875 13.0625 8.265625 
Q 6.59375 17.96875 6.59375 36.375 
Q 6.59375 54.828125 13.0625 64.515625 
Q 19.53125 74.21875 31.78125 74.21875 
z
" id="DejaVuSans-48"/>
      </defs>
      <g style="fill:#ffffff;" transform="translate(55.017429 254.356563)scale(0.1 -0.1)">
       <use xlink:href="#DejaVuSans-48"/>
      </g>
     </g>
    </g>
    <g id="xtick_2">
     <g id="line2d_2">
      <g>
       <use style="fill:#ffffff;stroke:#ffffff;stroke-width:0.8;" x="126.128789" xlink:href="#m022cb872c2" y="239.758125"/>
      </g>
     </g>
     <g id="text_2">
      <!-- 1 -->
      <defs>
       <path d="M 12.40625 8.296875 
L 28.515625 8.296875 
L 28.515625 63.921875 
L 10.984375 60.40625 
L 10.984375 69.390625 
L 28.421875 72.90625 
L 38.28125 72.90625 
L 38.28125 8.296875 
L 54.390625 8.296875 
L 54.390625 0 
L 12.40625 0 
z
" id="DejaVuSans-49"/>
      </defs>
      <g style="fill:#ffffff;" transform="translate(122.947539 254.356563)scale(0.1 -0.1)">
       <use xlink:href="#DejaVuSans-49"/>
      </g>
     </g>
    </g>
    <g id="xtick_3">
     <g id="line2d_3">
      <g>
       <use style="fill:#ffffff;stroke:#ffffff;stroke-width:0.8;" x="194.058899" xlink:href="#m022cb872c2" y="239.758125"/>
      </g>
     </g>
     <g id="text_3">
      <!-- 2 -->
      <defs>
       <path d="M 19.1875 8.296875 
L 53.609375 8.296875 
L 53.609375 0 
L 7.328125 0 
L 7.328125 8.296875 
Q 12.9375 14.109375 22.625 23.890625 
Q 32.328125 33.6875 34.8125 36.53125 
Q 39.546875 41.84375 41.421875 45.53125 
Q 43.3125 49.21875 43.3125 52.78125 
Q 43.3125 58.59375 39.234375 62.25 
Q 35.15625 65.921875 28.609375 65.921875 
Q 23.96875 65.921875 18.8125 64.3125 
Q 13.671875 62.703125 7.8125 59.421875 
L 7.8125 69.390625 
Q 13.765625 71.78125 18.9375 73 
Q 24.125 74.21875 28.421875 74.21875 
Q 39.75 74.21875 46.484375 68.546875 
Q 53.21875 62.890625 53.21875 53.421875 
Q 53.21875 48.921875 51.53125 44.890625 
Q 49.859375 40.875 45.40625 35.40625 
Q 44.1875 33.984375 37.640625 27.21875 
Q 31.109375 20.453125 19.1875 8.296875 
z
" id="DejaVuSans-50"/>
      </defs>
      <g style="fill:#ffffff;" transform="translate(190.877649 254.356563)scale(0.1 -0.1)">
       <use xlink:href="#DejaVuSans-50"/>
      </g>
     </g>
    </g>
    <g id="xtick_4">
     <g id="line2d_4">
      <g>
       <use style="fill:#ffffff;stroke:#ffffff;stroke-width:0.8;" x="261.989009" xlink:href="#m022cb872c2" y="239.758125"/>
      </g>
     </g>
     <g id="text_4">
      <!-- 3 -->
      <defs>
       <path d="M 40.578125 39.3125 
Q 47.65625 37.796875 51.625 33 
Q 55.609375 28.21875 55.609375 21.1875 
Q 55.609375 10.40625 48.1875 4.484375 
Q 40.765625 -1.421875 27.09375 -1.421875 
Q 22.515625 -1.421875 17.65625 -0.515625 
Q 12.796875 0.390625 7.625 2.203125 
L 7.625 11.71875 
Q 11.71875 9.328125 16.59375 8.109375 
Q 21.484375 6.890625 26.8125 6.890625 
Q 36.078125 6.890625 40.9375 10.546875 
Q 45.796875 14.203125 45.796875 21.1875 
Q 45.796875 27.640625 41.28125 31.265625 
Q 36.765625 34.90625 28.71875 34.90625 
L 20.21875 34.90625 
L 20.21875 43.015625 
L 29.109375 43.015625 
Q 36.375 43.015625 40.234375 45.921875 
Q 44.09375 48.828125 44.09375 54.296875 
Q 44.09375 59.90625 40.109375 62.90625 
Q 36.140625 65.921875 28.71875 65.921875 
Q 24.65625 65.921875 20.015625 65.03125 
Q 15.375 64.15625 9.8125 62.3125 
L 9.8125 71.09375 
Q 15.4375 72.65625 20.34375 73.4375 
Q 25.25 74.21875 29.59375 74.21875 
Q 40.828125 74.21875 47.359375 69.109375 
Q 53.90625 64.015625 53.90625 55.328125 
Q 53.90625 49.265625 50.4375 45.09375 
Q 46.96875 40.921875 40.578125 39.3125 
z
" id="DejaVuSans-51"/>
      </defs>
      <g style="fill:#ffffff;" transform="translate(258.807759 254.356563)scale(0.1 -0.1)">
       <use xlink:href="#DejaVuSans-51"/>
      </g>
     </g>
    </g>
    <g id="xtick_5">
     <g id="line2d_5">
      <g>
       <use style="fill:#ffffff;stroke:#ffffff;stroke-width:0.8;" x="329.919118" xlink:href="#m022cb872c2" y="239.758125"/>
      </g>
     </g>
     <g id="text_5">
      <!-- 4 -->
      <defs>
       <path d="M 37.796875 64.3125 
L 12.890625 25.390625 
L 37.796875 25.390625 
z
M 35.203125 72.90625 
L 47.609375 72.90625 
L 47.609375 25.390625 
L 58.015625 25.390625 
L 58.015625 17.1875 
L 47.609375 17.1875 
L 47.609375 0 
L 37.796875 0 
L 37.796875 17.1875 
L 4.890625 17.1875 
L 4.890625 26.703125 
z
" id="DejaVuSans-52"/>
      </defs>
      <g style="fill:#ffffff;" transform="translate(326.737868 254.356563)scale(0.1 -0.1)">
       <use xlink:href="#DejaVuSans-52"/>
      </g>
     </g>
    </g>
   </g>
   <g id="matplotlib.axis_2">
    <g id="ytick_1">
     <g id="line2d_6">
      <defs>
       <path d="M 0 0 
L -3.5 0 
" id="m1f840a9ef7" style="stroke:#ffffff;stroke-width:0.8;"/>
      </defs>
      <g>
       <use style="fill:#ffffff;stroke:#ffffff;stroke-width:0.8;" x="30.103125" xlink:href="#m1f840a9ef7" y="218.968501"/>
      </g>
     </g>
     <g id="text_6">
      <!-- 1.5 -->
      <defs>
       <path d="M 10.6875 12.40625 
L 21 12.40625 
L 21 0 
L 10.6875 0 
z
" id="DejaVuSans-46"/>
       <path d="M 10.796875 72.90625 
L 49.515625 72.90625 
L 49.515625 64.59375 
L 19.828125 64.59375 
L 19.828125 46.734375 
Q 21.96875 47.46875 24.109375 47.828125 
Q 26.265625 48.1875 28.421875 48.1875 
Q 40.625 48.1875 47.75 41.5 
Q 54.890625 34.8125 54.890625 23.390625 
Q 54.890625 11.625 47.5625 5.09375 
Q 40.234375 -1.421875 26.90625 -1.421875 
Q 22.3125 -1.421875 17.546875 -0.640625 
Q 12.796875 0.140625 7.71875 1.703125 
L 7.71875 11.625 
Q 12.109375 9.234375 16.796875 8.0625 
Q 21.484375 6.890625 26.703125 6.890625 
Q 35.15625 6.890625 40.078125 11.328125 
Q 45.015625 15.765625 45.015625 23.390625 
Q 45.015625 31 40.078125 35.4375 
Q 35.15625 39.890625 26.703125 39.890625 
Q 22.75 39.890625 18.8125 39.015625 
Q 14.890625 38.140625 10.796875 36.28125 
z
" id="DejaVuSans-53"/>
      </defs>
      <g style="fill:#ffffff;" transform="translate(7.2 222.76772)scale(0.1 -0.1)">
       <use xlink:href="#DejaVuSans-49"/>
       <use x="63.623047" xlink:href="#DejaVuSans-46"/>
       <use x="95.410156" xlink:href="#DejaVuSans-53"/>
      </g>
     </g>
    </g>
    <g id="ytick_2">
     <g id="line2d_7">
      <g>
       <use style="fill:#ffffff;stroke:#ffffff;stroke-width:0.8;" x="30.103125" xlink:href="#m1f840a9ef7" y="191.778305"/>
      </g>
     </g>
     <g id="text_7">
      <!-- 2.0 -->
      <g style="fill:#ffffff;" transform="translate(7.2 195.577523)scale(0.1 -0.1)">
       <use xlink:href="#DejaVuSans-50"/>
       <use x="63.623047" xlink:href="#DejaVuSans-46"/>
       <use x="95.410156" xlink:href="#DejaVuSans-48"/>
      </g>
     </g>
    </g>
    <g id="ytick_3">
     <g id="line2d_8">
      <g>
       <use style="fill:#ffffff;stroke:#ffffff;stroke-width:0.8;" x="30.103125" xlink:href="#m1f840a9ef7" y="164.588108"/>
      </g>
     </g>
     <g id="text_8">
      <!-- 2.5 -->
      <g style="fill:#ffffff;" transform="translate(7.2 168.387327)scale(0.1 -0.1)">
       <use xlink:href="#DejaVuSans-50"/>
       <use x="63.623047" xlink:href="#DejaVuSans-46"/>
       <use x="95.410156" xlink:href="#DejaVuSans-53"/>
      </g>
     </g>
    </g>
    <g id="ytick_4">
     <g id="line2d_9">
      <g>
       <use style="fill:#ffffff;stroke:#ffffff;stroke-width:0.8;" x="30.103125" xlink:href="#m1f840a9ef7" y="137.397912"/>
      </g>
     </g>
     <g id="text_9">
      <!-- 3.0 -->
      <g style="fill:#ffffff;" transform="translate(7.2 141.197131)scale(0.1 -0.1)">
       <use xlink:href="#DejaVuSans-51"/>
       <use x="63.623047" xlink:href="#DejaVuSans-46"/>
       <use x="95.410156" xlink:href="#DejaVuSans-48"/>
      </g>
     </g>
    </g>
    <g id="ytick_5">
     <g id="line2d_10">
      <g>
       <use style="fill:#ffffff;stroke:#ffffff;stroke-width:0.8;" x="30.103125" xlink:href="#m1f840a9ef7" y="110.207716"/>
      </g>
     </g>
     <g id="text_10">
      <!-- 3.5 -->
      <g style="fill:#ffffff;" transform="translate(7.2 114.006934)scale(0.1 -0.1)">
       <use xlink:href="#DejaVuSans-51"/>
       <use x="63.623047" xlink:href="#DejaVuSans-46"/>
       <use x="95.410156" xlink:href="#DejaVuSans-53"/>
      </g>
     </g>
    </g>
    <g id="ytick_6">
     <g id="line2d_11">
      <g>
       <use style="fill:#ffffff;stroke:#ffffff;stroke-width:0.8;" x="30.103125" xlink:href="#m1f840a9ef7" y="83.017519"/>
      </g>
     </g>
     <g id="text_11">
      <!-- 4.0 -->
      <g style="fill:#ffffff;" transform="translate(7.2 86.816738)scale(0.1 -0.1)">
       <use xlink:href="#DejaVuSans-52"/>
       <use x="63.623047" xlink:href="#DejaVuSans-46"/>
       <use x="95.410156" xlink:href="#DejaVuSans-48"/>
      </g>
     </g>
    </g>
    <g id="ytick_7">
     <g id="line2d_12">
      <g>
       <use style="fill:#ffffff;stroke:#ffffff;stroke-width:0.8;" x="30.103125" xlink:href="#m1f840a9ef7" y="55.827323"/>
      </g>
     </g>
     <g id="text_12">
      <!-- 4.5 -->
      <g style="fill:#ffffff;" transform="translate(7.2 59.626542)scale(0.1 -0.1)">
       <use xlink:href="#DejaVuSans-52"/>
       <use x="63.623047" xlink:href="#DejaVuSans-46"/>
       <use x="95.410156" xlink:href="#DejaVuSans-53"/>
      </g>
     </g>
    </g>
    <g id="ytick_8">
     <g id="line2d_13">
      <g>
       <use style="fill:#ffffff;stroke:#ffffff;stroke-width:0.8;" x="30.103125" xlink:href="#m1f840a9ef7" y="28.637127"/>
      </g>
     </g>
     <g id="text_13">
      <!-- 5.0 -->
      <g style="fill:#ffffff;" transform="translate(7.2 32.436345)scale(0.1 -0.1)">
       <use xlink:href="#DejaVuSans-53"/>
       <use x="63.623047" xlink:href="#DejaVuSans-46"/>
       <use x="95.410156" xlink:href="#DejaVuSans-48"/>
      </g>
     </g>
    </g>
   </g>
   <g id="patch_3">
    <path d="M 30.103125 239.758125 
L 30.103125 22.318125 
" style="fill:none;stroke:#ffffff;stroke-linecap:square;stroke-linejoin:miter;stroke-width:0.8;"/>
   </g>
   <g id="patch_4">
    <path d="M 364.903125 239.758125 
L 364.903125 22.318125 
" style="fill:none;stroke:#ffffff;stroke-linecap:square;stroke-linejoin:miter;stroke-width:0.8;"/>
   </g>
   <g id="patch_5">
    <path d="M 30.103125 239.758125 
L 364.903125 239.758125 
" style="fill:none;stroke:#ffffff;stroke-linecap:square;stroke-linejoin:miter;stroke-width:0.8;"/>
   </g>
   <g id="patch_6">
    <path d="M 30.103125 22.318125 
L 364.903125 22.318125 
" style="fill:none;stroke:#ffffff;stroke-linecap:square;stroke-linejoin:miter;stroke-width:0.8;"/>
   </g>
   <g id="text_14">
    <!-- Linear Kernel with C = 1 -->
    <defs>
     <path d="M 9.8125 72.90625 
L 19.671875 72.90625 
L 19.671875 8.296875 
L 55.171875 8.296875 
L 55.171875 0 
L 9.8125 0 
z
" id="DejaVuSans-76"/>
     <path d="M 9.421875 54.6875 
L 18.40625 54.6875 
L 18.40625 0 
L 9.421875 0 
z
M 9.421875 75.984375 
L 18.40625 75.984375 
L 18.40625 64.59375 
L 9.421875 64.59375 
z
" id="DejaVuSans-105"/>
     <path d="M 54.890625 33.015625 
L 54.890625 0 
L 45.90625 0 
L 45.90625 32.71875 
Q 45.90625 40.484375 42.875 44.328125 
Q 39.84375 48.1875 33.796875 48.1875 
Q 26.515625 48.1875 22.3125 43.546875 
Q 18.109375 38.921875 18.109375 30.90625 
L 18.109375 0 
L 9.078125 0 
L 9.078125 54.6875 
L 18.109375 54.6875 
L 18.109375 46.1875 
Q 21.34375 51.125 25.703125 53.5625 
Q 30.078125 56 35.796875 56 
Q 45.21875 56 50.046875 50.171875 
Q 54.890625 44.34375 54.890625 33.015625 
z
" id="DejaVuSans-110"/>
     <path d="M 56.203125 29.59375 
L 56.203125 25.203125 
L 14.890625 25.203125 
Q 15.484375 15.921875 20.484375 11.0625 
Q 25.484375 6.203125 34.421875 6.203125 
Q 39.59375 6.203125 44.453125 7.46875 
Q 49.3125 8.734375 54.109375 11.28125 
L 54.109375 2.78125 
Q 49.265625 0.734375 44.1875 -0.34375 
Q 39.109375 -1.421875 33.890625 -1.421875 
Q 20.796875 -1.421875 13.15625 6.1875 
Q 5.515625 13.8125 5.515625 26.8125 
Q 5.515625 40.234375 12.765625 48.109375 
Q 20.015625 56 32.328125 56 
Q 43.359375 56 49.78125 48.890625 
Q 56.203125 41.796875 56.203125 29.59375 
z
M 47.21875 32.234375 
Q 47.125 39.59375 43.09375 43.984375 
Q 39.0625 48.390625 32.421875 48.390625 
Q 24.90625 48.390625 20.390625 44.140625 
Q 15.875 39.890625 15.1875 32.171875 
z
" id="DejaVuSans-101"/>
     <path d="M 34.28125 27.484375 
Q 23.390625 27.484375 19.1875 25 
Q 14.984375 22.515625 14.984375 16.5 
Q 14.984375 11.71875 18.140625 8.90625 
Q 21.296875 6.109375 26.703125 6.109375 
Q 34.1875 6.109375 38.703125 11.40625 
Q 43.21875 16.703125 43.21875 25.484375 
L 43.21875 27.484375 
z
M 52.203125 31.203125 
L 52.203125 0 
L 43.21875 0 
L 43.21875 8.296875 
Q 40.140625 3.328125 35.546875 0.953125 
Q 30.953125 -1.421875 24.3125 -1.421875 
Q 15.921875 -1.421875 10.953125 3.296875 
Q 6 8.015625 6 15.921875 
Q 6 25.140625 12.171875 29.828125 
Q 18.359375 34.515625 30.609375 34.515625 
L 43.21875 34.515625 
L 43.21875 35.40625 
Q 43.21875 41.609375 39.140625 45 
Q 35.0625 48.390625 27.6875 48.390625 
Q 23 48.390625 18.546875 47.265625 
Q 14.109375 46.140625 10.015625 43.890625 
L 10.015625 52.203125 
Q 14.9375 54.109375 19.578125 55.046875 
Q 24.21875 56 28.609375 56 
Q 40.484375 56 46.34375 49.84375 
Q 52.203125 43.703125 52.203125 31.203125 
z
" id="DejaVuSans-97"/>
     <path d="M 41.109375 46.296875 
Q 39.59375 47.171875 37.8125 47.578125 
Q 36.03125 48 33.890625 48 
Q 26.265625 48 22.1875 43.046875 
Q 18.109375 38.09375 18.109375 28.8125 
L 18.109375 0 
L 9.078125 0 
L 9.078125 54.6875 
L 18.109375 54.6875 
L 18.109375 46.1875 
Q 20.953125 51.171875 25.484375 53.578125 
Q 30.03125 56 36.53125 56 
Q 37.453125 56 38.578125 55.875 
Q 39.703125 55.765625 41.0625 55.515625 
z
" id="DejaVuSans-114"/>
     <path id="DejaVuSans-32"/>
     <path d="M 9.8125 72.90625 
L 19.671875 72.90625 
L 19.671875 42.09375 
L 52.390625 72.90625 
L 65.09375 72.90625 
L 28.90625 38.921875 
L 67.671875 0 
L 54.6875 0 
L 19.671875 35.109375 
L 19.671875 0 
L 9.8125 0 
z
" id="DejaVuSans-75"/>
     <path d="M 9.421875 75.984375 
L 18.40625 75.984375 
L 18.40625 0 
L 9.421875 0 
z
" id="DejaVuSans-108"/>
     <path d="M 4.203125 54.6875 
L 13.1875 54.6875 
L 24.421875 12.015625 
L 35.59375 54.6875 
L 46.1875 54.6875 
L 57.421875 12.015625 
L 68.609375 54.6875 
L 77.59375 54.6875 
L 63.28125 0 
L 52.6875 0 
L 40.921875 44.828125 
L 29.109375 0 
L 18.5 0 
z
" id="DejaVuSans-119"/>
     <path d="M 18.3125 70.21875 
L 18.3125 54.6875 
L 36.8125 54.6875 
L 36.8125 47.703125 
L 18.3125 47.703125 
L 18.3125 18.015625 
Q 18.3125 11.328125 20.140625 9.421875 
Q 21.96875 7.515625 27.59375 7.515625 
L 36.8125 7.515625 
L 36.8125 0 
L 27.59375 0 
Q 17.1875 0 13.234375 3.875 
Q 9.28125 7.765625 9.28125 18.015625 
L 9.28125 47.703125 
L 2.6875 47.703125 
L 2.6875 54.6875 
L 9.28125 54.6875 
L 9.28125 70.21875 
z
" id="DejaVuSans-116"/>
     <path d="M 54.890625 33.015625 
L 54.890625 0 
L 45.90625 0 
L 45.90625 32.71875 
Q 45.90625 40.484375 42.875 44.328125 
Q 39.84375 48.1875 33.796875 48.1875 
Q 26.515625 48.1875 22.3125 43.546875 
Q 18.109375 38.921875 18.109375 30.90625 
L 18.109375 0 
L 9.078125 0 
L 9.078125 75.984375 
L 18.109375 75.984375 
L 18.109375 46.1875 
Q 21.34375 51.125 25.703125 53.5625 
Q 30.078125 56 35.796875 56 
Q 45.21875 56 50.046875 50.171875 
Q 54.890625 44.34375 54.890625 33.015625 
z
" id="DejaVuSans-104"/>
     <path d="M 64.40625 67.28125 
L 64.40625 56.890625 
Q 59.421875 61.53125 53.78125 63.8125 
Q 48.140625 66.109375 41.796875 66.109375 
Q 29.296875 66.109375 22.65625 58.46875 
Q 16.015625 50.828125 16.015625 36.375 
Q 16.015625 21.96875 22.65625 14.328125 
Q 29.296875 6.6875 41.796875 6.6875 
Q 48.140625 6.6875 53.78125 8.984375 
Q 59.421875 11.28125 64.40625 15.921875 
L 64.40625 5.609375 
Q 59.234375 2.09375 53.4375 0.328125 
Q 47.65625 -1.421875 41.21875 -1.421875 
Q 24.65625 -1.421875 15.125 8.703125 
Q 5.609375 18.84375 5.609375 36.375 
Q 5.609375 53.953125 15.125 64.078125 
Q 24.65625 74.21875 41.21875 74.21875 
Q 47.75 74.21875 53.53125 72.484375 
Q 59.328125 70.75 64.40625 67.28125 
z
" id="DejaVuSans-67"/>
     <path d="M 10.59375 45.40625 
L 73.1875 45.40625 
L 73.1875 37.203125 
L 10.59375 37.203125 
z
M 10.59375 25.484375 
L 73.1875 25.484375 
L 73.1875 17.1875 
L 10.59375 17.1875 
z
" id="DejaVuSans-61"/>
    </defs>
    <g style="fill:#ffffff;" transform="translate(124.30875 16.318125)scale(0.12 -0.12)">
     <use xlink:href="#DejaVuSans-76"/>
     <use x="55.712891" xlink:href="#DejaVuSans-105"/>
     <use x="83.496094" xlink:href="#DejaVuSans-110"/>
     <use x="146.875" xlink:href="#DejaVuSans-101"/>
     <use x="208.398438" xlink:href="#DejaVuSans-97"/>
     <use x="269.677734" xlink:href="#DejaVuSans-114"/>
     <use x="310.791016" xlink:href="#DejaVuSans-32"/>
     <use x="342.578125" xlink:href="#DejaVuSans-75"/>
     <use x="408.076172" xlink:href="#DejaVuSans-101"/>
     <use x="469.599609" xlink:href="#DejaVuSans-114"/>
     <use x="510.697266" xlink:href="#DejaVuSans-110"/>
     <use x="574.076172" xlink:href="#DejaVuSans-101"/>
     <use x="635.599609" xlink:href="#DejaVuSans-108"/>
     <use x="663.382812" xlink:href="#DejaVuSans-32"/>
     <use x="695.169922" xlink:href="#DejaVuSans-119"/>
     <use x="776.957031" xlink:href="#DejaVuSans-105"/>
     <use x="804.740234" xlink:href="#DejaVuSans-116"/>
     <use x="843.949219" xlink:href="#DejaVuSans-104"/>
     <use x="907.328125" xlink:href="#DejaVuSans-32"/>
     <use x="939.115234" xlink:href="#DejaVuSans-67"/>
     <use x="1008.939453" xlink:href="#DejaVuSans-32"/>
     <use x="1040.726562" xlink:href="#DejaVuSans-61"/>
     <use x="1124.515625" xlink:href="#DejaVuSans-32"/>
     <use x="1156.302734" xlink:href="#DejaVuSans-49"/>
    </g>
   </g>
   <g id="legend_1">
    <g id="patch_7">
     <path d="M 308.453125 59.674375 
L 357.903125 59.674375 
Q 359.903125 59.674375 359.903125 57.674375 
L 359.903125 29.318125 
Q 359.903125 27.318125 357.903125 27.318125 
L 308.453125 27.318125 
Q 306.453125 27.318125 306.453125 29.318125 
L 306.453125 57.674375 
Q 306.453125 59.674375 308.453125 59.674375 
z
" style="opacity:0.8;stroke:#cccccc;stroke-linejoin:miter;"/>
    </g>
    <g id="PathCollection_10">
     <g>
      <use style="fill:#bfbf00;stroke:#bfbf00;" x="320.453125" xlink:href="#m439d1c806b" y="36.291562"/>
     </g>
    </g>
    <g id="text_15">
     <!-- No -->
     <defs>
      <path d="M 9.8125 72.90625 
L 23.09375 72.90625 
L 55.421875 11.921875 
L 55.421875 72.90625 
L 64.984375 72.90625 
L 64.984375 0 
L 51.703125 0 
L 19.390625 60.984375 
L 19.390625 0 
L 9.8125 0 
z
" id="DejaVuSans-78"/>
      <path d="M 30.609375 48.390625 
Q 23.390625 48.390625 19.1875 42.75 
Q 14.984375 37.109375 14.984375 27.296875 
Q 14.984375 17.484375 19.15625 11.84375 
Q 23.34375 6.203125 30.609375 6.203125 
Q 37.796875 6.203125 41.984375 11.859375 
Q 46.1875 17.53125 46.1875 27.296875 
Q 46.1875 37.015625 41.984375 42.703125 
Q 37.796875 48.390625 30.609375 48.390625 
z
M 30.609375 56 
Q 42.328125 56 49.015625 48.375 
Q 55.71875 40.765625 55.71875 27.296875 
Q 55.71875 13.875 49.015625 6.21875 
Q 42.328125 -1.421875 30.609375 -1.421875 
Q 18.84375 -1.421875 12.171875 6.21875 
Q 5.515625 13.875 5.515625 27.296875 
Q 5.515625 40.765625 12.171875 48.375 
Q 18.84375 56 30.609375 56 
z
" id="DejaVuSans-111"/>
     </defs>
     <g style="fill:#ffffff;" transform="translate(338.453125 38.916562)scale(0.1 -0.1)">
      <use xlink:href="#DejaVuSans-78"/>
      <use x="74.804688" xlink:href="#DejaVuSans-111"/>
     </g>
    </g>
    <g id="PathCollection_11">
     <g>
      <use style="stroke:#000000;" x="320.453125" xlink:href="#m0e6ae25c6f" y="50.969687"/>
     </g>
    </g>
    <g id="text_16">
     <!-- Yes -->
     <defs>
      <path d="M -0.203125 72.90625 
L 10.40625 72.90625 
L 30.609375 42.921875 
L 50.6875 72.90625 
L 61.28125 72.90625 
L 35.5 34.71875 
L 35.5 0 
L 25.59375 0 
L 25.59375 34.71875 
z
" id="DejaVuSans-89"/>
      <path d="M 44.28125 53.078125 
L 44.28125 44.578125 
Q 40.484375 46.53125 36.375 47.5 
Q 32.28125 48.484375 27.875 48.484375 
Q 21.1875 48.484375 17.84375 46.4375 
Q 14.5 44.390625 14.5 40.28125 
Q 14.5 37.15625 16.890625 35.375 
Q 19.28125 33.59375 26.515625 31.984375 
L 29.59375 31.296875 
Q 39.15625 29.25 43.1875 25.515625 
Q 47.21875 21.78125 47.21875 15.09375 
Q 47.21875 7.46875 41.1875 3.015625 
Q 35.15625 -1.421875 24.609375 -1.421875 
Q 20.21875 -1.421875 15.453125 -0.5625 
Q 10.6875 0.296875 5.421875 2 
L 5.421875 11.28125 
Q 10.40625 8.6875 15.234375 7.390625 
Q 20.0625 6.109375 24.8125 6.109375 
Q 31.15625 6.109375 34.5625 8.28125 
Q 37.984375 10.453125 37.984375 14.40625 
Q 37.984375 18.0625 35.515625 20.015625 
Q 33.0625 21.96875 24.703125 23.78125 
L 21.578125 24.515625 
Q 13.234375 26.265625 9.515625 29.90625 
Q 5.8125 33.546875 5.8125 39.890625 
Q 5.8125 47.609375 11.28125 51.796875 
Q 16.75 56 26.8125 56 
Q 31.78125 56 36.171875 55.265625 
Q 40.578125 54.546875 44.28125 53.078125 
z
" id="DejaVuSans-115"/>
     </defs>
     <g style="fill:#ffffff;" transform="translate(338.453125 53.594687)scale(0.1 -0.1)">
      <use xlink:href="#DejaVuSans-89"/>
      <use x="60.880859" xlink:href="#DejaVuSans-101"/>
      <use x="122.404297" xlink:href="#DejaVuSans-115"/>
     </g>
    </g>
   </g>
  </g>
 </g>
 <defs>
  <clipPath id="pdb2115ee85">
   <rect height="217.44" width="334.8" x="30.103125" y="22.318125"/>
  </clipPath>
 </defs>
</svg>
