<?xml version="1.0" encoding="utf-8" standalone="no"?>
<!DOCTYPE svg PUBLIC "-//W3C//DTD SVG 1.1//EN"
  "http://www.w3.org/Graphics/SVG/1.1/DTD/svg11.dtd">
<!-- Created with matplotlib (https://matplotlib.org/) -->
<svg height="263.63625pt" version="1.1" viewBox="0 0 375.603125 263.63625" width="375.603125pt" xmlns="http://www.w3.org/2000/svg" xmlns:xlink="http://www.w3.org/1999/xlink">
 <defs>
  <style type="text/css">
*{stroke-linecap:butt;stroke-linejoin:round;}
  </style>
 </defs>
 <g id="figure_1">
  <g id="patch_1">
   <path d="M 0 263.63625 
L 375.603125 263.63625 
L 375.603125 0 
L 0 0 
z
"/>
  </g>
  <g id="axes_1">
   <g id="patch_2">
    <path d="M 30.103125 239.758125 
L 364.903125 239.758125 
L 364.903125 22.318125 
L 30.103125 22.318125 
z
"/>
   </g>
   <g id="matplotlib.axis_1">
    <g id="xtick_1">
     <g id="line2d_1">
      <defs>
       <path d="M 0 0 
L 0 3.5 
" id="md549aab25e" style="stroke:#ffffff;stroke-width:0.8;"/>
      </defs>
      <g>
       <use style="fill:#ffffff;stroke:#ffffff;stroke-width:0.8;" x="38.627173" xlink:href="#md549aab25e" y="239.758125"/>
      </g>
     </g>
     <g id="text_1">
      <!-- 0.0 -->
      <defs>
       <path d="M 31.78125 66.40625 
Q 24.171875 66.40625 20.328125 58.90625 
Q 16.5 51.421875 16.5 36.375 
Q 16.5 21.390625 20.328125 13.890625 
Q 24.171875 6.390625 31.78125 6.390625 
Q 39.453125 6.390625 43.28125 13.890625 
Q 47.125 21.390625 47.125 36.375 
Q 47.125 51.421875 43.28125 58.90625 
Q 39.453125 66.40625 31.78125 66.40625 
z
M 31.78125 74.21875 
Q 44.046875 74.21875 50.515625 64.515625 
Q 56.984375 54.828125 56.984375 36.375 
Q 56.984375 17.96875 50.515625 8.265625 
Q 44.046875 -1.421875 31.78125 -1.421875 
Q 19.53125 -1.421875 13.0625 8.265625 
Q 6.59375 17.96875 6.59375 36.375 
Q 6.59375 54.828125 13.0625 64.515625 
Q 19.53125 74.21875 31.78125 74.21875 
z
" id="DejaVuSans-48"/>
       <path d="M 10.6875 12.40625 
L 21 12.40625 
L 21 0 
L 10.6875 0 
z
" id="DejaVuSans-46"/>
      </defs>
      <g style="fill:#ffffff;" transform="translate(30.675611 254.356563)scale(0.1 -0.1)">
       <use xlink:href="#DejaVuSans-48"/>
       <use x="63.623047" xlink:href="#DejaVuSans-46"/>
       <use x="95.410156" xlink:href="#DejaVuSans-48"/>
      </g>
     </g>
    </g>
    <g id="xtick_2">
     <g id="line2d_2">
      <g>
       <use style="fill:#ffffff;stroke:#ffffff;stroke-width:0.8;" x="77.364131" xlink:href="#md549aab25e" y="239.758125"/>
      </g>
     </g>
     <g id="text_2">
      <!-- 0.5 -->
      <defs>
       <path d="M 10.796875 72.90625 
L 49.515625 72.90625 
L 49.515625 64.59375 
L 19.828125 64.59375 
L 19.828125 46.734375 
Q 21.96875 47.46875 24.109375 47.828125 
Q 26.265625 48.1875 28.421875 48.1875 
Q 40.625 48.1875 47.75 41.5 
Q 54.890625 34.8125 54.890625 23.390625 
Q 54.890625 11.625 47.5625 5.09375 
Q 40.234375 -1.421875 26.90625 -1.421875 
Q 22.3125 -1.421875 17.546875 -0.640625 
Q 12.796875 0.140625 7.71875 1.703125 
L 7.71875 11.625 
Q 12.109375 9.234375 16.796875 8.0625 
Q 21.484375 6.890625 26.703125 6.890625 
Q 35.15625 6.890625 40.078125 11.328125 
Q 45.015625 15.765625 45.015625 23.390625 
Q 45.015625 31 40.078125 35.4375 
Q 35.15625 39.890625 26.703125 39.890625 
Q 22.75 39.890625 18.8125 39.015625 
Q 14.890625 38.140625 10.796875 36.28125 
z
" id="DejaVuSans-53"/>
      </defs>
      <g style="fill:#ffffff;" transform="translate(69.412568 254.356563)scale(0.1 -0.1)">
       <use xlink:href="#DejaVuSans-48"/>
       <use x="63.623047" xlink:href="#DejaVuSans-46"/>
       <use x="95.410156" xlink:href="#DejaVuSans-53"/>
      </g>
     </g>
    </g>
    <g id="xtick_3">
     <g id="line2d_3">
      <g>
       <use style="fill:#ffffff;stroke:#ffffff;stroke-width:0.8;" x="116.101088" xlink:href="#md549aab25e" y="239.758125"/>
      </g>
     </g>
     <g id="text_3">
      <!-- 1.0 -->
      <defs>
       <path d="M 12.40625 8.296875 
L 28.515625 8.296875 
L 28.515625 63.921875 
L 10.984375 60.40625 
L 10.984375 69.390625 
L 28.421875 72.90625 
L 38.28125 72.90625 
L 38.28125 8.296875 
L 54.390625 8.296875 
L 54.390625 0 
L 12.40625 0 
z
" id="DejaVuSans-49"/>
      </defs>
      <g style="fill:#ffffff;" transform="translate(108.149526 254.356563)scale(0.1 -0.1)">
       <use xlink:href="#DejaVuSans-49"/>
       <use x="63.623047" xlink:href="#DejaVuSans-46"/>
       <use x="95.410156" xlink:href="#DejaVuSans-48"/>
      </g>
     </g>
    </g>
    <g id="xtick_4">
     <g id="line2d_4">
      <g>
       <use style="fill:#ffffff;stroke:#ffffff;stroke-width:0.8;" x="154.838046" xlink:href="#md549aab25e" y="239.758125"/>
      </g>
     </g>
     <g id="text_4">
      <!-- 1.5 -->
      <g style="fill:#ffffff;" transform="translate(146.886484 254.356563)scale(0.1 -0.1)">
       <use xlink:href="#DejaVuSans-49"/>
       <use x="63.623047" xlink:href="#DejaVuSans-46"/>
       <use x="95.410156" xlink:href="#DejaVuSans-53"/>
      </g>
     </g>
    </g>
    <g id="xtick_5">
     <g id="line2d_5">
      <g>
       <use style="fill:#ffffff;stroke:#ffffff;stroke-width:0.8;" x="193.575004" xlink:href="#md549aab25e" y="239.758125"/>
      </g>
     </g>
     <g id="text_5">
      <!-- 2.0 -->
      <defs>
       <path d="M 19.1875 8.296875 
L 53.609375 8.296875 
L 53.609375 0 
L 7.328125 0 
L 7.328125 8.296875 
Q 12.9375 14.109375 22.625 23.890625 
Q 32.328125 33.6875 34.8125 36.53125 
Q 39.546875 41.84375 41.421875 45.53125 
Q 43.3125 49.21875 43.3125 52.78125 
Q 43.3125 58.59375 39.234375 62.25 
Q 35.15625 65.921875 28.609375 65.921875 
Q 23.96875 65.921875 18.8125 64.3125 
Q 13.671875 62.703125 7.8125 59.421875 
L 7.8125 69.390625 
Q 13.765625 71.78125 18.9375 73 
Q 24.125 74.21875 28.421875 74.21875 
Q 39.75 74.21875 46.484375 68.546875 
Q 53.21875 62.890625 53.21875 53.421875 
Q 53.21875 48.921875 51.53125 44.890625 
Q 49.859375 40.875 45.40625 35.40625 
Q 44.1875 33.984375 37.640625 27.21875 
Q 31.109375 20.453125 19.1875 8.296875 
z
" id="DejaVuSans-50"/>
      </defs>
      <g style="fill:#ffffff;" transform="translate(185.623441 254.356563)scale(0.1 -0.1)">
       <use xlink:href="#DejaVuSans-50"/>
       <use x="63.623047" xlink:href="#DejaVuSans-46"/>
       <use x="95.410156" xlink:href="#DejaVuSans-48"/>
      </g>
     </g>
    </g>
    <g id="xtick_6">
     <g id="line2d_6">
      <g>
       <use style="fill:#ffffff;stroke:#ffffff;stroke-width:0.8;" x="232.311961" xlink:href="#md549aab25e" y="239.758125"/>
      </g>
     </g>
     <g id="text_6">
      <!-- 2.5 -->
      <g style="fill:#ffffff;" transform="translate(224.360399 254.356563)scale(0.1 -0.1)">
       <use xlink:href="#DejaVuSans-50"/>
       <use x="63.623047" xlink:href="#DejaVuSans-46"/>
       <use x="95.410156" xlink:href="#DejaVuSans-53"/>
      </g>
     </g>
    </g>
    <g id="xtick_7">
     <g id="line2d_7">
      <g>
       <use style="fill:#ffffff;stroke:#ffffff;stroke-width:0.8;" x="271.048919" xlink:href="#md549aab25e" y="239.758125"/>
      </g>
     </g>
     <g id="text_7">
      <!-- 3.0 -->
      <defs>
       <path d="M 40.578125 39.3125 
Q 47.65625 37.796875 51.625 33 
Q 55.609375 28.21875 55.609375 21.1875 
Q 55.609375 10.40625 48.1875 4.484375 
Q 40.765625 -1.421875 27.09375 -1.421875 
Q 22.515625 -1.421875 17.65625 -0.515625 
Q 12.796875 0.390625 7.625 2.203125 
L 7.625 11.71875 
Q 11.71875 9.328125 16.59375 8.109375 
Q 21.484375 6.890625 26.8125 6.890625 
Q 36.078125 6.890625 40.9375 10.546875 
Q 45.796875 14.203125 45.796875 21.1875 
Q 45.796875 27.640625 41.28125 31.265625 
Q 36.765625 34.90625 28.71875 34.90625 
L 20.21875 34.90625 
L 20.21875 43.015625 
L 29.109375 43.015625 
Q 36.375 43.015625 40.234375 45.921875 
Q 44.09375 48.828125 44.09375 54.296875 
Q 44.09375 59.90625 40.109375 62.90625 
Q 36.140625 65.921875 28.71875 65.921875 
Q 24.65625 65.921875 20.015625 65.03125 
Q 15.375 64.15625 9.8125 62.3125 
L 9.8125 71.09375 
Q 15.4375 72.65625 20.34375 73.4375 
Q 25.25 74.21875 29.59375 74.21875 
Q 40.828125 74.21875 47.359375 69.109375 
Q 53.90625 64.015625 53.90625 55.328125 
Q 53.90625 49.265625 50.4375 45.09375 
Q 46.96875 40.921875 40.578125 39.3125 
z
" id="DejaVuSans-51"/>
      </defs>
      <g style="fill:#ffffff;" transform="translate(263.097357 254.356563)scale(0.1 -0.1)">
       <use xlink:href="#DejaVuSans-51"/>
       <use x="63.623047" xlink:href="#DejaVuSans-46"/>
       <use x="95.410156" xlink:href="#DejaVuSans-48"/>
      </g>
     </g>
    </g>
    <g id="xtick_8">
     <g id="line2d_8">
      <g>
       <use style="fill:#ffffff;stroke:#ffffff;stroke-width:0.8;" x="309.785877" xlink:href="#md549aab25e" y="239.758125"/>
      </g>
     </g>
     <g id="text_8">
      <!-- 3.5 -->
      <g style="fill:#ffffff;" transform="translate(301.834314 254.356563)scale(0.1 -0.1)">
       <use xlink:href="#DejaVuSans-51"/>
       <use x="63.623047" xlink:href="#DejaVuSans-46"/>
       <use x="95.410156" xlink:href="#DejaVuSans-53"/>
      </g>
     </g>
    </g>
    <g id="xtick_9">
     <g id="line2d_9">
      <g>
       <use style="fill:#ffffff;stroke:#ffffff;stroke-width:0.8;" x="348.522834" xlink:href="#md549aab25e" y="239.758125"/>
      </g>
     </g>
     <g id="text_9">
      <!-- 4.0 -->
      <defs>
       <path d="M 37.796875 64.3125 
L 12.890625 25.390625 
L 37.796875 25.390625 
z
M 35.203125 72.90625 
L 47.609375 72.90625 
L 47.609375 25.390625 
L 58.015625 25.390625 
L 58.015625 17.1875 
L 47.609375 17.1875 
L 47.609375 0 
L 37.796875 0 
L 37.796875 17.1875 
L 4.890625 17.1875 
L 4.890625 26.703125 
z
" id="DejaVuSans-52"/>
      </defs>
      <g style="fill:#ffffff;" transform="translate(340.571272 254.356563)scale(0.1 -0.1)">
       <use xlink:href="#DejaVuSans-52"/>
       <use x="63.623047" xlink:href="#DejaVuSans-46"/>
       <use x="95.410156" xlink:href="#DejaVuSans-48"/>
      </g>
     </g>
    </g>
   </g>
   <g id="matplotlib.axis_2">
    <g id="ytick_1">
     <g id="line2d_10">
      <defs>
       <path d="M 0 0 
L -3.5 0 
" id="m9ec2caf0b4" style="stroke:#ffffff;stroke-width:0.8;"/>
      </defs>
      <g>
       <use style="fill:#ffffff;stroke:#ffffff;stroke-width:0.8;" x="30.103125" xlink:href="#m9ec2caf0b4" y="237.202624"/>
      </g>
     </g>
     <g id="text_10">
      <!-- 1.5 -->
      <g style="fill:#ffffff;" transform="translate(7.2 241.001843)scale(0.1 -0.1)">
       <use xlink:href="#DejaVuSans-49"/>
       <use x="63.623047" xlink:href="#DejaVuSans-46"/>
       <use x="95.410156" xlink:href="#DejaVuSans-53"/>
      </g>
     </g>
    </g>
    <g id="ytick_2">
     <g id="line2d_11">
      <g>
       <use style="fill:#ffffff;stroke:#ffffff;stroke-width:0.8;" x="30.103125" xlink:href="#m9ec2caf0b4" y="206.072057"/>
      </g>
     </g>
     <g id="text_11">
      <!-- 2.0 -->
      <g style="fill:#ffffff;" transform="translate(7.2 209.871276)scale(0.1 -0.1)">
       <use xlink:href="#DejaVuSans-50"/>
       <use x="63.623047" xlink:href="#DejaVuSans-46"/>
       <use x="95.410156" xlink:href="#DejaVuSans-48"/>
      </g>
     </g>
    </g>
    <g id="ytick_3">
     <g id="line2d_12">
      <g>
       <use style="fill:#ffffff;stroke:#ffffff;stroke-width:0.8;" x="30.103125" xlink:href="#m9ec2caf0b4" y="174.941489"/>
      </g>
     </g>
     <g id="text_12">
      <!-- 2.5 -->
      <g style="fill:#ffffff;" transform="translate(7.2 178.740708)scale(0.1 -0.1)">
       <use xlink:href="#DejaVuSans-50"/>
       <use x="63.623047" xlink:href="#DejaVuSans-46"/>
       <use x="95.410156" xlink:href="#DejaVuSans-53"/>
      </g>
     </g>
    </g>
    <g id="ytick_4">
     <g id="line2d_13">
      <g>
       <use style="fill:#ffffff;stroke:#ffffff;stroke-width:0.8;" x="30.103125" xlink:href="#m9ec2caf0b4" y="143.810922"/>
      </g>
     </g>
     <g id="text_13">
      <!-- 3.0 -->
      <g style="fill:#ffffff;" transform="translate(7.2 147.610141)scale(0.1 -0.1)">
       <use xlink:href="#DejaVuSans-51"/>
       <use x="63.623047" xlink:href="#DejaVuSans-46"/>
       <use x="95.410156" xlink:href="#DejaVuSans-48"/>
      </g>
     </g>
    </g>
    <g id="ytick_5">
     <g id="line2d_14">
      <g>
       <use style="fill:#ffffff;stroke:#ffffff;stroke-width:0.8;" x="30.103125" xlink:href="#m9ec2caf0b4" y="112.680355"/>
      </g>
     </g>
     <g id="text_14">
      <!-- 3.5 -->
      <g style="fill:#ffffff;" transform="translate(7.2 116.479573)scale(0.1 -0.1)">
       <use xlink:href="#DejaVuSans-51"/>
       <use x="63.623047" xlink:href="#DejaVuSans-46"/>
       <use x="95.410156" xlink:href="#DejaVuSans-53"/>
      </g>
     </g>
    </g>
    <g id="ytick_6">
     <g id="line2d_15">
      <g>
       <use style="fill:#ffffff;stroke:#ffffff;stroke-width:0.8;" x="30.103125" xlink:href="#m9ec2caf0b4" y="81.549787"/>
      </g>
     </g>
     <g id="text_15">
      <!-- 4.0 -->
      <g style="fill:#ffffff;" transform="translate(7.2 85.349006)scale(0.1 -0.1)">
       <use xlink:href="#DejaVuSans-52"/>
       <use x="63.623047" xlink:href="#DejaVuSans-46"/>
       <use x="95.410156" xlink:href="#DejaVuSans-48"/>
      </g>
     </g>
    </g>
    <g id="ytick_7">
     <g id="line2d_16">
      <g>
       <use style="fill:#ffffff;stroke:#ffffff;stroke-width:0.8;" x="30.103125" xlink:href="#m9ec2caf0b4" y="50.41922"/>
      </g>
     </g>
     <g id="text_16">
      <!-- 4.5 -->
      <g style="fill:#ffffff;" transform="translate(7.2 54.218439)scale(0.1 -0.1)">
       <use xlink:href="#DejaVuSans-52"/>
       <use x="63.623047" xlink:href="#DejaVuSans-46"/>
       <use x="95.410156" xlink:href="#DejaVuSans-53"/>
      </g>
     </g>
    </g>
   </g>
   <g id="line2d_17">
    <path clip-path="url(#p25d7997677)" d="M 45.321307 32.201761 
L 48.395687 33.830983 
L 51.470067 35.460204 
L 54.544447 37.089425 
L 57.618827 38.718646 
L 60.693208 40.347867 
L 63.767588 41.977088 
L 66.841968 43.606309 
L 69.916348 45.235531 
L 72.990728 46.864752 
L 76.065108 48.493973 
L 79.139489 50.123194 
L 82.213869 51.752415 
L 85.288249 53.381636 
L 88.362629 55.010857 
L 91.437009 56.640079 
L 94.511389 58.2693 
L 97.58577 59.898521 
L 100.66015 61.527742 
L 103.73453 63.156963 
L 106.80891 64.786184 
L 109.88329 66.415405 
L 112.95767 68.044627 
L 116.032051 69.673848 
L 119.106431 71.303069 
L 122.180811 72.93229 
L 125.255191 74.561511 
L 128.329571 76.190732 
L 131.403951 77.819953 
L 134.478332 79.449174 
L 137.552712 81.078396 
L 140.627092 82.707617 
L 143.701472 84.336838 
L 146.775852 85.966059 
L 149.850232 87.59528 
L 152.924613 89.224501 
L 155.998993 90.853722 
L 159.073373 92.482944 
L 162.147753 94.112165 
L 165.222133 95.741386 
L 168.296513 97.370607 
L 171.370894 98.999828 
L 174.445274 100.629049 
L 177.519654 102.25827 
L 180.594034 103.887492 
L 183.668414 105.516713 
L 186.742794 107.145934 
L 189.817175 108.775155 
L 192.891555 110.404376 
L 195.965935 112.033597 
L 199.040315 113.662818 
L 202.114695 115.29204 
L 205.189075 116.921261 
L 208.263456 118.550482 
L 211.337836 120.179703 
L 214.412216 121.808924 
L 217.486596 123.438145 
L 220.560976 125.067366 
L 223.635356 126.696588 
L 226.709737 128.325809 
L 229.784117 129.95503 
L 232.858497 131.584251 
L 235.932877 133.213472 
L 239.007257 134.842693 
L 242.081637 136.471914 
L 245.156018 138.101136 
L 248.230398 139.730357 
L 251.304778 141.359578 
L 254.379158 142.988799 
L 257.453538 144.61802 
L 260.527918 146.247241 
L 263.602299 147.876462 
L 266.676679 149.505684 
L 269.751059 151.134905 
L 272.825439 152.764126 
L 275.899819 154.393347 
L 278.974199 156.022568 
L 282.04858 157.651789 
L 285.12296 159.28101 
L 288.19734 160.910232 
L 291.27172 162.539453 
L 294.3461 164.168674 
L 297.42048 165.797895 
L 300.494861 167.427116 
L 303.569241 169.056337 
L 306.643621 170.685558 
L 309.718001 172.31478 
L 312.792381 173.944001 
L 315.866761 175.573222 
L 318.941142 177.202443 
L 322.015522 178.831664 
L 325.089902 180.460885 
L 328.164282 182.090106 
L 331.238662 183.719328 
L 334.313042 185.348549 
L 337.387423 186.97777 
L 340.461803 188.606991 
L 343.536183 190.236212 
L 346.610563 191.865433 
L 349.684943 193.494654 
" style="fill:none;stroke:#ffffff;stroke-linecap:square;stroke-width:1.5;"/>
   </g>
   <g id="line2d_18">
    <defs>
     <path d="M 0 1.5 
C 0.397805 1.5 0.77937 1.341951 1.06066 1.06066 
C 1.341951 0.77937 1.5 0.397805 1.5 0 
C 1.5 -0.397805 1.341951 -0.77937 1.06066 -1.06066 
C 0.77937 -1.341951 0.397805 -1.5 0 -1.5 
C -0.397805 -1.5 -0.77937 -1.341951 -1.06066 -1.06066 
C -1.341951 -0.77937 -1.5 -0.397805 -1.5 0 
C -1.5 0.397805 -1.341951 0.77937 -1.06066 1.06066 
C -0.77937 1.341951 -0.397805 1.5 0 1.5 
z
" id="m12aaa6796c" style="stroke:#ff0000;"/>
    </defs>
    <g clip-path="url(#p25d7997677)">
     <use style="fill:#ff0000;stroke:#ff0000;" x="161.353602" xlink:href="#m12aaa6796c" y="121.552566"/>
     <use style="fill:#ff0000;stroke:#ff0000;" x="194.372985" xlink:href="#m12aaa6796c" y="131.115877"/>
     <use style="fill:#ff0000;stroke:#ff0000;" x="189.910488" xlink:href="#m12aaa6796c" y="157.240649"/>
     <use style="fill:#ff0000;stroke:#ff0000;" x="214.903573" xlink:href="#m12aaa6796c" y="161.698546"/>
     <use style="fill:#ff0000;stroke:#ff0000;" x="217.58417" xlink:href="#m12aaa6796c" y="146.400985"/>
     <use style="fill:#ff0000;stroke:#ff0000;" x="257.746648" xlink:href="#m12aaa6796c" y="166.791507"/>
     <use style="fill:#ff0000;stroke:#ff0000;" x="274.713435" xlink:href="#m12aaa6796c" y="187.823318"/>
     <use style="fill:#ff0000;stroke:#ff0000;" x="230.971663" xlink:href="#m12aaa6796c" y="203.749717"/>
     <use style="fill:#ff0000;stroke:#ff0000;" x="232.753563" xlink:href="#m12aaa6796c" y="182.082842"/>
     <use style="fill:#ff0000;stroke:#ff0000;" x="183.66609" xlink:href="#m12aaa6796c" y="202.479589"/>
     <use style="fill:#ff0000;stroke:#ff0000;" x="194.372985" xlink:href="#m12aaa6796c" y="183.994258"/>
     <use style="fill:#ff0000;stroke:#ff0000;" x="133.67992" xlink:href="#m12aaa6796c" y="185.905675"/>
     <use style="fill:#ff0000;stroke:#ff0000;" x="185.44799" xlink:href="#m12aaa6796c" y="148.953692"/>
     <use style="fill:#ff0000;stroke:#ff0000;" x="159.563955" xlink:href="#m12aaa6796c" y="139.396608"/>
     <use style="fill:#ff0000;stroke:#ff0000;" x="158.673005" xlink:href="#m12aaa6796c" y="162.968673"/>
     <use style="fill:#ff0000;stroke:#ff0000;" x="169.387647" xlink:href="#m12aaa6796c" y="180.812714"/>
     <use style="fill:#ff0000;stroke:#ff0000;" x="154.210507" xlink:href="#m12aaa6796c" y="204.38478"/>
     <use style="fill:#ff0000;stroke:#ff0000;" x="113.15708" xlink:href="#m12aaa6796c" y="163.609963"/>
     <use style="fill:#ff0000;stroke:#ff0000;" x="129.217422" xlink:href="#m12aaa6796c" y="148.318628"/>
     <use style="fill:#ff0000;stroke:#ff0000;" x="101.551487" xlink:href="#m12aaa6796c" y="143.860731"/>
     <use style="fill:#ff0000;stroke:#ff0000;" x="114.04803" xlink:href="#m12aaa6796c" y="119.647376"/>
     <use style="fill:#ff0000;stroke:#ff0000;" x="135.469567" xlink:href="#m12aaa6796c" y="131.75094"/>
     <use style="fill:#ff0000;stroke:#ff0000;" x="140.823015" xlink:href="#m12aaa6796c" y="112.001708"/>
     <use style="fill:#ff0000;stroke:#ff0000;" x="211.332025" xlink:href="#m12aaa6796c" y="193.557569"/>
     <use style="fill:#ff0000;stroke:#ff0000;" x="228.298813" xlink:href="#m12aaa6796c" y="166.156443"/>
     <use style="fill:#ff0000;stroke:#ff0000;" x="255.073798" xlink:href="#m12aaa6796c" y="208.21384"/>
     <use style="fill:#ff0000;stroke:#ff0000;" x="200.62513" xlink:href="#m12aaa6796c" y="229.874489"/>
     <use style="fill:#ff0000;stroke:#ff0000;" x="235.43416" xlink:href="#m12aaa6796c" y="150.865109"/>
     <use style="fill:#ff0000;stroke:#ff0000;" x="108.694582" xlink:href="#m12aaa6796c" y="142.578152"/>
     <use style="fill:#ff0000;stroke:#ff0000;" x="97.983813" xlink:href="#m12aaa6796c" y="169.344213"/>
    </g>
   </g>
   <g id="line2d_19">
    <defs>
     <path d="M 0 1.5 
C 0.397805 1.5 0.77937 1.341951 1.06066 1.06066 
C 1.341951 0.77937 1.5 0.397805 1.5 0 
C 1.5 -0.397805 1.341951 -0.77937 1.06066 -1.06066 
C 0.77937 -1.341951 0.397805 -1.5 0 -1.5 
C -0.397805 -1.5 -0.77937 -1.341951 -1.06066 -1.06066 
C -1.341951 -0.77937 -1.5 -0.397805 -1.5 0 
C -1.5 0.397805 -1.341951 0.77937 -1.06066 1.06066 
C -0.77937 1.341951 -0.397805 1.5 0 1.5 
z
" id="mcdc111dc7b" style="stroke:#bfbf00;"/>
    </defs>
    <g clip-path="url(#p25d7997677)">
     <use style="fill:#bfbf00;stroke:#bfbf00;" x="190.809185" xlink:href="#mcdc111dc7b" y="44.460829"/>
     <use style="fill:#bfbf00;stroke:#bfbf00;" x="214.903573" xlink:href="#mcdc111dc7b" y="90.334833"/>
     <use style="fill:#bfbf00;stroke:#bfbf00;" x="269.35224" xlink:href="#mcdc111dc7b" y="46.36602"/>
     <use style="fill:#bfbf00;stroke:#bfbf00;" x="265.780693" xlink:href="#mcdc111dc7b" y="109.449002"/>
     <use style="fill:#bfbf00;stroke:#bfbf00;" x="315.766863" xlink:href="#mcdc111dc7b" y="152.776526"/>
     <use style="fill:#bfbf00;stroke:#bfbf00;" x="349.684943" xlink:href="#mcdc111dc7b" y="131.75094"/>
     <use style="fill:#bfbf00;stroke:#bfbf00;" x="300.59747" xlink:href="#mcdc111dc7b" y="117.094669"/>
     <use style="fill:#bfbf00;stroke:#bfbf00;" x="341.650898" xlink:href="#mcdc111dc7b" y="70.585602"/>
     <use style="fill:#bfbf00;stroke:#bfbf00;" x="254.1751" xlink:href="#mcdc111dc7b" y="78.866332"/>
     <use style="fill:#bfbf00;stroke:#bfbf00;" x="236.32511" xlink:href="#mcdc111dc7b" y="43.184476"/>
     <use style="fill:#bfbf00;stroke:#bfbf00;" x="299.698773" xlink:href="#mcdc111dc7b" y="87.147063"/>
     <use style="fill:#bfbf00;stroke:#bfbf00;" x="279.168185" xlink:href="#mcdc111dc7b" y="139.396608"/>
     <use style="fill:#bfbf00;stroke:#bfbf00;" x="187.237638" xlink:href="#mcdc111dc7b" y="78.225043"/>
     <use style="fill:#bfbf00;stroke:#bfbf00;" x="214.012623" xlink:href="#mcdc111dc7b" y="58.475811"/>
     <use style="fill:#bfbf00;stroke:#bfbf00;" x="244.359155" xlink:href="#mcdc111dc7b" y="112.630546"/>
     <use style="fill:#bfbf00;stroke:#bfbf00;" x="285.42033" xlink:href="#mcdc111dc7b" y="63.568772"/>
     <use style="fill:#bfbf00;stroke:#bfbf00;" x="322.019008" xlink:href="#mcdc111dc7b" y="89.693544"/>
     <use style="fill:#bfbf00;stroke:#bfbf00;" x="341.650898" xlink:href="#mcdc111dc7b" y="117.094669"/>
     <use style="fill:#bfbf00;stroke:#bfbf00;" x="317.548763" xlink:href="#mcdc111dc7b" y="136.208838"/>
     <use style="fill:#bfbf00;stroke:#bfbf00;" x="273.814738" xlink:href="#mcdc111dc7b" y="124.105273"/>
     <use style="fill:#bfbf00;stroke:#bfbf00;" x="45.321307" xlink:href="#mcdc111dc7b" y="75.043499"/>
    </g>
   </g>
   <g id="patch_3">
    <path d="M 30.103125 239.758125 
L 30.103125 22.318125 
" style="fill:none;stroke:#ffffff;stroke-linecap:square;stroke-linejoin:miter;stroke-width:0.8;"/>
   </g>
   <g id="patch_4">
    <path d="M 364.903125 239.758125 
L 364.903125 22.318125 
" style="fill:none;stroke:#ffffff;stroke-linecap:square;stroke-linejoin:miter;stroke-width:0.8;"/>
   </g>
   <g id="patch_5">
    <path d="M 30.103125 239.758125 
L 364.903125 239.758125 
" style="fill:none;stroke:#ffffff;stroke-linecap:square;stroke-linejoin:miter;stroke-width:0.8;"/>
   </g>
   <g id="patch_6">
    <path d="M 30.103125 22.318125 
L 364.903125 22.318125 
" style="fill:none;stroke:#ffffff;stroke-linecap:square;stroke-linejoin:miter;stroke-width:0.8;"/>
   </g>
   <g id="text_17">
    <!-- Linear Kernel with C = 1 -->
    <defs>
     <path d="M 9.8125 72.90625 
L 19.671875 72.90625 
L 19.671875 8.296875 
L 55.171875 8.296875 
L 55.171875 0 
L 9.8125 0 
z
" id="DejaVuSans-76"/>
     <path d="M 9.421875 54.6875 
L 18.40625 54.6875 
L 18.40625 0 
L 9.421875 0 
z
M 9.421875 75.984375 
L 18.40625 75.984375 
L 18.40625 64.59375 
L 9.421875 64.59375 
z
" id="DejaVuSans-105"/>
     <path d="M 54.890625 33.015625 
L 54.890625 0 
L 45.90625 0 
L 45.90625 32.71875 
Q 45.90625 40.484375 42.875 44.328125 
Q 39.84375 48.1875 33.796875 48.1875 
Q 26.515625 48.1875 22.3125 43.546875 
Q 18.109375 38.921875 18.109375 30.90625 
L 18.109375 0 
L 9.078125 0 
L 9.078125 54.6875 
L 18.109375 54.6875 
L 18.109375 46.1875 
Q 21.34375 51.125 25.703125 53.5625 
Q 30.078125 56 35.796875 56 
Q 45.21875 56 50.046875 50.171875 
Q 54.890625 44.34375 54.890625 33.015625 
z
" id="DejaVuSans-110"/>
     <path d="M 56.203125 29.59375 
L 56.203125 25.203125 
L 14.890625 25.203125 
Q 15.484375 15.921875 20.484375 11.0625 
Q 25.484375 6.203125 34.421875 6.203125 
Q 39.59375 6.203125 44.453125 7.46875 
Q 49.3125 8.734375 54.109375 11.28125 
L 54.109375 2.78125 
Q 49.265625 0.734375 44.1875 -0.34375 
Q 39.109375 -1.421875 33.890625 -1.421875 
Q 20.796875 -1.421875 13.15625 6.1875 
Q 5.515625 13.8125 5.515625 26.8125 
Q 5.515625 40.234375 12.765625 48.109375 
Q 20.015625 56 32.328125 56 
Q 43.359375 56 49.78125 48.890625 
Q 56.203125 41.796875 56.203125 29.59375 
z
M 47.21875 32.234375 
Q 47.125 39.59375 43.09375 43.984375 
Q 39.0625 48.390625 32.421875 48.390625 
Q 24.90625 48.390625 20.390625 44.140625 
Q 15.875 39.890625 15.1875 32.171875 
z
" id="DejaVuSans-101"/>
     <path d="M 34.28125 27.484375 
Q 23.390625 27.484375 19.1875 25 
Q 14.984375 22.515625 14.984375 16.5 
Q 14.984375 11.71875 18.140625 8.90625 
Q 21.296875 6.109375 26.703125 6.109375 
Q 34.1875 6.109375 38.703125 11.40625 
Q 43.21875 16.703125 43.21875 25.484375 
L 43.21875 27.484375 
z
M 52.203125 31.203125 
L 52.203125 0 
L 43.21875 0 
L 43.21875 8.296875 
Q 40.140625 3.328125 35.546875 0.953125 
Q 30.953125 -1.421875 24.3125 -1.421875 
Q 15.921875 -1.421875 10.953125 3.296875 
Q 6 8.015625 6 15.921875 
Q 6 25.140625 12.171875 29.828125 
Q 18.359375 34.515625 30.609375 34.515625 
L 43.21875 34.515625 
L 43.21875 35.40625 
Q 43.21875 41.609375 39.140625 45 
Q 35.0625 48.390625 27.6875 48.390625 
Q 23 48.390625 18.546875 47.265625 
Q 14.109375 46.140625 10.015625 43.890625 
L 10.015625 52.203125 
Q 14.9375 54.109375 19.578125 55.046875 
Q 24.21875 56 28.609375 56 
Q 40.484375 56 46.34375 49.84375 
Q 52.203125 43.703125 52.203125 31.203125 
z
" id="DejaVuSans-97"/>
     <path d="M 41.109375 46.296875 
Q 39.59375 47.171875 37.8125 47.578125 
Q 36.03125 48 33.890625 48 
Q 26.265625 48 22.1875 43.046875 
Q 18.109375 38.09375 18.109375 28.8125 
L 18.109375 0 
L 9.078125 0 
L 9.078125 54.6875 
L 18.109375 54.6875 
L 18.109375 46.1875 
Q 20.953125 51.171875 25.484375 53.578125 
Q 30.03125 56 36.53125 56 
Q 37.453125 56 38.578125 55.875 
Q 39.703125 55.765625 41.0625 55.515625 
z
" id="DejaVuSans-114"/>
     <path id="DejaVuSans-32"/>
     <path d="M 9.8125 72.90625 
L 19.671875 72.90625 
L 19.671875 42.09375 
L 52.390625 72.90625 
L 65.09375 72.90625 
L 28.90625 38.921875 
L 67.671875 0 
L 54.6875 0 
L 19.671875 35.109375 
L 19.671875 0 
L 9.8125 0 
z
" id="DejaVuSans-75"/>
     <path d="M 9.421875 75.984375 
L 18.40625 75.984375 
L 18.40625 0 
L 9.421875 0 
z
" id="DejaVuSans-108"/>
     <path d="M 4.203125 54.6875 
L 13.1875 54.6875 
L 24.421875 12.015625 
L 35.59375 54.6875 
L 46.1875 54.6875 
L 57.421875 12.015625 
L 68.609375 54.6875 
L 77.59375 54.6875 
L 63.28125 0 
L 52.6875 0 
L 40.921875 44.828125 
L 29.109375 0 
L 18.5 0 
z
" id="DejaVuSans-119"/>
     <path d="M 18.3125 70.21875 
L 18.3125 54.6875 
L 36.8125 54.6875 
L 36.8125 47.703125 
L 18.3125 47.703125 
L 18.3125 18.015625 
Q 18.3125 11.328125 20.140625 9.421875 
Q 21.96875 7.515625 27.59375 7.515625 
L 36.8125 7.515625 
L 36.8125 0 
L 27.59375 0 
Q 17.1875 0 13.234375 3.875 
Q 9.28125 7.765625 9.28125 18.015625 
L 9.28125 47.703125 
L 2.6875 47.703125 
L 2.6875 54.6875 
L 9.28125 54.6875 
L 9.28125 70.21875 
z
" id="DejaVuSans-116"/>
     <path d="M 54.890625 33.015625 
L 54.890625 0 
L 45.90625 0 
L 45.90625 32.71875 
Q 45.90625 40.484375 42.875 44.328125 
Q 39.84375 48.1875 33.796875 48.1875 
Q 26.515625 48.1875 22.3125 43.546875 
Q 18.109375 38.921875 18.109375 30.90625 
L 18.109375 0 
L 9.078125 0 
L 9.078125 75.984375 
L 18.109375 75.984375 
L 18.109375 46.1875 
Q 21.34375 51.125 25.703125 53.5625 
Q 30.078125 56 35.796875 56 
Q 45.21875 56 50.046875 50.171875 
Q 54.890625 44.34375 54.890625 33.015625 
z
" id="DejaVuSans-104"/>
     <path d="M 64.40625 67.28125 
L 64.40625 56.890625 
Q 59.421875 61.53125 53.78125 63.8125 
Q 48.140625 66.109375 41.796875 66.109375 
Q 29.296875 66.109375 22.65625 58.46875 
Q 16.015625 50.828125 16.015625 36.375 
Q 16.015625 21.96875 22.65625 14.328125 
Q 29.296875 6.6875 41.796875 6.6875 
Q 48.140625 6.6875 53.78125 8.984375 
Q 59.421875 11.28125 64.40625 15.921875 
L 64.40625 5.609375 
Q 59.234375 2.09375 53.4375 0.328125 
Q 47.65625 -1.421875 41.21875 -1.421875 
Q 24.65625 -1.421875 15.125 8.703125 
Q 5.609375 18.84375 5.609375 36.375 
Q 5.609375 53.953125 15.125 64.078125 
Q 24.65625 74.21875 41.21875 74.21875 
Q 47.75 74.21875 53.53125 72.484375 
Q 59.328125 70.75 64.40625 67.28125 
z
" id="DejaVuSans-67"/>
     <path d="M 10.59375 45.40625 
L 73.1875 45.40625 
L 73.1875 37.203125 
L 10.59375 37.203125 
z
M 10.59375 25.484375 
L 73.1875 25.484375 
L 73.1875 17.1875 
L 10.59375 17.1875 
z
" id="DejaVuSans-61"/>
    </defs>
    <g style="fill:#ffffff;" transform="translate(124.30875 16.318125)scale(0.12 -0.12)">
     <use xlink:href="#DejaVuSans-76"/>
     <use x="55.712891" xlink:href="#DejaVuSans-105"/>
     <use x="83.496094" xlink:href="#DejaVuSans-110"/>
     <use x="146.875" xlink:href="#DejaVuSans-101"/>
     <use x="208.398438" xlink:href="#DejaVuSans-97"/>
     <use x="269.677734" xlink:href="#DejaVuSans-114"/>
     <use x="310.791016" xlink:href="#DejaVuSans-32"/>
     <use x="342.578125" xlink:href="#DejaVuSans-75"/>
     <use x="408.076172" xlink:href="#DejaVuSans-101"/>
     <use x="469.599609" xlink:href="#DejaVuSans-114"/>
     <use x="510.697266" xlink:href="#DejaVuSans-110"/>
     <use x="574.076172" xlink:href="#DejaVuSans-101"/>
     <use x="635.599609" xlink:href="#DejaVuSans-108"/>
     <use x="663.382812" xlink:href="#DejaVuSans-32"/>
     <use x="695.169922" xlink:href="#DejaVuSans-119"/>
     <use x="776.957031" xlink:href="#DejaVuSans-105"/>
     <use x="804.740234" xlink:href="#DejaVuSans-116"/>
     <use x="843.949219" xlink:href="#DejaVuSans-104"/>
     <use x="907.328125" xlink:href="#DejaVuSans-32"/>
     <use x="939.115234" xlink:href="#DejaVuSans-67"/>
     <use x="1008.939453" xlink:href="#DejaVuSans-32"/>
     <use x="1040.726562" xlink:href="#DejaVuSans-61"/>
     <use x="1124.515625" xlink:href="#DejaVuSans-32"/>
     <use x="1156.302734" xlink:href="#DejaVuSans-49"/>
    </g>
   </g>
   <g id="legend_1">
    <g id="patch_7">
     <path d="M 308.453125 59.674375 
L 357.903125 59.674375 
Q 359.903125 59.674375 359.903125 57.674375 
L 359.903125 29.318125 
Q 359.903125 27.318125 357.903125 27.318125 
L 308.453125 27.318125 
Q 306.453125 27.318125 306.453125 29.318125 
L 306.453125 57.674375 
Q 306.453125 59.674375 308.453125 59.674375 
z
" style="opacity:0.8;stroke:#cccccc;stroke-linejoin:miter;"/>
    </g>
    <g id="line2d_20"/>
    <g id="line2d_21">
     <g>
      <use style="fill:#ff0000;stroke:#ff0000;" x="320.453125" xlink:href="#m12aaa6796c" y="35.416562"/>
     </g>
    </g>
    <g id="text_18">
     <!-- No -->
     <defs>
      <path d="M 9.8125 72.90625 
L 23.09375 72.90625 
L 55.421875 11.921875 
L 55.421875 72.90625 
L 64.984375 72.90625 
L 64.984375 0 
L 51.703125 0 
L 19.390625 60.984375 
L 19.390625 0 
L 9.8125 0 
z
" id="DejaVuSans-78"/>
      <path d="M 30.609375 48.390625 
Q 23.390625 48.390625 19.1875 42.75 
Q 14.984375 37.109375 14.984375 27.296875 
Q 14.984375 17.484375 19.15625 11.84375 
Q 23.34375 6.203125 30.609375 6.203125 
Q 37.796875 6.203125 41.984375 11.859375 
Q 46.1875 17.53125 46.1875 27.296875 
Q 46.1875 37.015625 41.984375 42.703125 
Q 37.796875 48.390625 30.609375 48.390625 
z
M 30.609375 56 
Q 42.328125 56 49.015625 48.375 
Q 55.71875 40.765625 55.71875 27.296875 
Q 55.71875 13.875 49.015625 6.21875 
Q 42.328125 -1.421875 30.609375 -1.421875 
Q 18.84375 -1.421875 12.171875 6.21875 
Q 5.515625 13.875 5.515625 27.296875 
Q 5.515625 40.765625 12.171875 48.375 
Q 18.84375 56 30.609375 56 
z
" id="DejaVuSans-111"/>
     </defs>
     <g style="fill:#ffffff;" transform="translate(338.453125 38.916562)scale(0.1 -0.1)">
      <use xlink:href="#DejaVuSans-78"/>
      <use x="74.804688" xlink:href="#DejaVuSans-111"/>
     </g>
    </g>
    <g id="line2d_22"/>
    <g id="line2d_23">
     <g>
      <use style="fill:#bfbf00;stroke:#bfbf00;" x="320.453125" xlink:href="#mcdc111dc7b" y="50.094687"/>
     </g>
    </g>
    <g id="text_19">
     <!-- Yes -->
     <defs>
      <path d="M -0.203125 72.90625 
L 10.40625 72.90625 
L 30.609375 42.921875 
L 50.6875 72.90625 
L 61.28125 72.90625 
L 35.5 34.71875 
L 35.5 0 
L 25.59375 0 
L 25.59375 34.71875 
z
" id="DejaVuSans-89"/>
      <path d="M 44.28125 53.078125 
L 44.28125 44.578125 
Q 40.484375 46.53125 36.375 47.5 
Q 32.28125 48.484375 27.875 48.484375 
Q 21.1875 48.484375 17.84375 46.4375 
Q 14.5 44.390625 14.5 40.28125 
Q 14.5 37.15625 16.890625 35.375 
Q 19.28125 33.59375 26.515625 31.984375 
L 29.59375 31.296875 
Q 39.15625 29.25 43.1875 25.515625 
Q 47.21875 21.78125 47.21875 15.09375 
Q 47.21875 7.46875 41.1875 3.015625 
Q 35.15625 -1.421875 24.609375 -1.421875 
Q 20.21875 -1.421875 15.453125 -0.5625 
Q 10.6875 0.296875 5.421875 2 
L 5.421875 11.28125 
Q 10.40625 8.6875 15.234375 7.390625 
Q 20.0625 6.109375 24.8125 6.109375 
Q 31.15625 6.109375 34.5625 8.28125 
Q 37.984375 10.453125 37.984375 14.40625 
Q 37.984375 18.0625 35.515625 20.015625 
Q 33.0625 21.96875 24.703125 23.78125 
L 21.578125 24.515625 
Q 13.234375 26.265625 9.515625 29.90625 
Q 5.8125 33.546875 5.8125 39.890625 
Q 5.8125 47.609375 11.28125 51.796875 
Q 16.75 56 26.8125 56 
Q 31.78125 56 36.171875 55.265625 
Q 40.578125 54.546875 44.28125 53.078125 
z
" id="DejaVuSans-115"/>
     </defs>
     <g style="fill:#ffffff;" transform="translate(338.453125 53.594687)scale(0.1 -0.1)">
      <use xlink:href="#DejaVuSans-89"/>
      <use x="60.880859" xlink:href="#DejaVuSans-101"/>
      <use x="122.404297" xlink:href="#DejaVuSans-115"/>
     </g>
    </g>
   </g>
  </g>
 </g>
 <defs>
  <clipPath id="p25d7997677">
   <rect height="217.44" width="334.8" x="30.103125" y="22.318125"/>
  </clipPath>
 </defs>
</svg>
