<?xml version="1.0" encoding="utf-8" standalone="no"?>
<!DOCTYPE svg PUBLIC "-//W3C//DTD SVG 1.1//EN"
  "http://www.w3.org/Graphics/SVG/1.1/DTD/svg11.dtd">
<!-- Created with matplotlib (https://matplotlib.org/) -->
<svg height="265.69625pt" version="1.1" viewBox="0 0 397.660937 265.69625" width="397.660937pt" xmlns="http://www.w3.org/2000/svg" xmlns:xlink="http://www.w3.org/1999/xlink">
 <defs>
  <style type="text/css">
*{stroke-linecap:butt;stroke-linejoin:round;}
  </style>
 </defs>
 <g id="figure_1">
  <g id="patch_1">
   <path d="M 0 265.69625 
L 397.660937 265.69625 
L 397.660937 0 
L 0 0 
z
"/>
  </g>
  <g id="axes_1">
   <g id="patch_2">
    <path d="M 52.160938 228.14 
L 386.960938 228.14 
L 386.960938 10.7 
L 52.160938 10.7 
z
"/>
   </g>
   <g id="PathCollection_1">
    <path clip-path="url(#pb744f341df)" d="M 55.542756 228.14 
L 58.924574 228.14 
L 62.306392 228.14 
L 65.68821 228.14 
L 69.070028 228.14 
L 72.451847 228.14 
L 75.833665 228.14 
L 79.215483 228.14 
L 82.597301 228.14 
L 85.979119 228.14 
L 89.360938 228.14 
L 92.742756 228.14 
L 96.124574 228.14 
L 99.506392 228.14 
L 102.88821 228.14 
L 106.270028 228.14 
L 107.115483 228.14 
L 107.115483 225.943636 
L 107.115483 223.747273 
L 107.115483 221.550909 
L 109.651847 219.903636 
L 110.497301 219.354545 
L 110.497301 217.158182 
L 110.497301 214.961818 
L 110.497301 212.765455 
L 110.497301 210.569091 
L 113.033665 208.921818 
L 113.879119 208.372727 
L 113.879119 206.176364 
L 113.879119 203.98 
L 113.879119 201.783636 
L 113.879119 199.587273 
L 113.879119 197.390909 
L 116.415483 195.743636 
L 117.260938 195.194545 
L 117.260938 192.998182 
L 117.260938 190.801818 
L 117.260938 188.605455 
L 117.260938 186.409091 
L 119.797301 184.761818 
L 120.642756 184.212727 
L 120.642756 182.016364 
L 120.642756 179.82 
L 120.642756 177.623636 
L 120.642756 175.427273 
L 123.179119 173.78 
L 124.024574 173.230909 
L 124.024574 171.034545 
L 124.024574 168.838182 
L 124.024574 166.641818 
L 124.024574 164.445455 
L 124.024574 162.249091 
L 126.560938 160.601818 
L 127.406392 160.052727 
L 127.406392 157.856364 
L 127.406392 155.66 
L 127.406392 153.463636 
L 127.406392 151.267273 
L 129.942756 149.62 
L 130.78821 149.070909 
L 130.78821 146.874545 
L 130.78821 144.678182 
L 130.78821 142.481818 
L 130.78821 140.285455 
L 133.324574 138.638182 
L 134.170028 138.089091 
L 134.170028 135.892727 
L 134.170028 133.696364 
L 134.170028 131.5 
L 134.170028 129.303636 
L 134.170028 127.107273 
L 136.706392 125.46 
L 137.551847 124.910909 
L 137.551847 122.714545 
L 137.551847 120.518182 
L 137.551847 118.321818 
L 137.551847 116.125455 
L 140.08821 114.478182 
L 140.933665 113.929091 
L 140.933665 111.732727 
L 140.933665 109.536364 
L 140.933665 107.34 
L 140.933665 105.143636 
L 143.470028 103.496364 
L 144.315483 102.947273 
L 144.315483 100.750909 
L 144.315483 98.554545 
L 144.315483 96.358182 
L 144.315483 94.161818 
L 144.315483 91.965455 
L 146.851847 90.318182 
L 147.697301 89.769091 
L 147.697301 87.572727 
L 147.697301 85.376364 
L 147.697301 83.18 
L 147.697301 80.983636 
L 150.233665 79.336364 
L 151.079119 78.787273 
L 151.079119 76.590909 
L 151.079119 74.394545 
L 151.079119 72.198182 
L 151.079119 70.001818 
L 151.079119 67.805455 
L 153.615483 66.158182 
L 154.460938 65.609091 
L 154.460938 63.412727 
L 154.460938 61.216364 
L 154.460938 59.02 
L 154.460938 56.823636 
L 156.997301 55.176364 
L 157.842756 54.627273 
L 157.842756 52.430909 
L 157.842756 50.234545 
L 157.842756 48.038182 
L 157.842756 45.841818 
L 160.379119 44.194545 
L 161.224574 43.645455 
L 161.224574 41.449091 
L 161.224574 39.252727 
L 161.224574 37.056364 
L 161.224574 34.86 
L 161.224574 32.663636 
L 163.760938 31.016364 
L 164.606392 30.467273 
L 164.606392 28.270909 
L 164.606392 26.074545 
L 164.606392 23.878182 
L 164.606392 21.681818 
L 167.142756 20.034545 
L 167.98821 19.485455 
L 167.98821 17.289091 
L 167.98821 15.092727 
L 167.98821 12.896364 
L 167.98821 10.7 
L 167.142756 10.7 
L 163.760938 10.7 
L 160.379119 10.7 
L 156.997301 10.7 
L 153.615483 10.7 
L 150.233665 10.7 
L 146.851847 10.7 
L 143.470028 10.7 
L 140.08821 10.7 
L 136.706392 10.7 
L 133.324574 10.7 
L 129.942756 10.7 
L 126.560938 10.7 
L 123.179119 10.7 
L 119.797301 10.7 
L 116.415483 10.7 
L 113.033665 10.7 
L 109.651847 10.7 
L 106.270028 10.7 
L 102.88821 10.7 
L 99.506392 10.7 
L 96.124574 10.7 
L 92.742756 10.7 
L 89.360938 10.7 
L 85.979119 10.7 
L 82.597301 10.7 
L 79.215483 10.7 
L 75.833665 10.7 
L 72.451847 10.7 
L 69.070028 10.7 
L 65.68821 10.7 
L 62.306392 10.7 
L 58.924574 10.7 
L 55.542756 10.7 
L 52.160938 10.7 
L 52.160938 12.896364 
L 52.160938 15.092727 
L 52.160938 17.289091 
L 52.160938 19.485455 
L 52.160938 21.681818 
L 52.160938 23.878182 
L 52.160938 26.074545 
L 52.160938 28.270909 
L 52.160938 30.467273 
L 52.160938 32.663636 
L 52.160938 34.86 
L 52.160938 37.056364 
L 52.160938 39.252727 
L 52.160938 41.449091 
L 52.160938 43.645455 
L 52.160938 45.841818 
L 52.160938 48.038182 
L 52.160938 50.234545 
L 52.160938 52.430909 
L 52.160938 54.627273 
L 52.160938 56.823636 
L 52.160938 59.02 
L 52.160938 61.216364 
L 52.160938 63.412727 
L 52.160938 65.609091 
L 52.160938 67.805455 
L 52.160938 70.001818 
L 52.160938 72.198182 
L 52.160938 74.394545 
L 52.160938 76.590909 
L 52.160938 78.787273 
L 52.160938 80.983636 
L 52.160938 83.18 
L 52.160938 85.376364 
L 52.160938 87.572727 
L 52.160938 89.769091 
L 52.160938 91.965455 
L 52.160938 94.161818 
L 52.160938 96.358182 
L 52.160938 98.554545 
L 52.160938 100.750909 
L 52.160938 102.947273 
L 52.160938 105.143636 
L 52.160938 107.34 
L 52.160938 109.536364 
L 52.160938 111.732727 
L 52.160938 113.929091 
L 52.160938 116.125455 
L 52.160938 118.321818 
L 52.160938 120.518182 
L 52.160938 122.714545 
L 52.160938 124.910909 
L 52.160938 127.107273 
L 52.160938 129.303636 
L 52.160938 131.5 
L 52.160938 133.696364 
L 52.160938 135.892727 
L 52.160938 138.089091 
L 52.160938 140.285455 
L 52.160938 142.481818 
L 52.160938 144.678182 
L 52.160938 146.874545 
L 52.160938 149.070909 
L 52.160938 151.267273 
L 52.160938 153.463636 
L 52.160938 155.66 
L 52.160938 157.856364 
L 52.160938 160.052727 
L 52.160938 162.249091 
L 52.160938 164.445455 
L 52.160938 166.641818 
L 52.160938 168.838182 
L 52.160938 171.034545 
L 52.160938 173.230909 
L 52.160938 175.427273 
L 52.160938 177.623636 
L 52.160938 179.82 
L 52.160938 182.016364 
L 52.160938 184.212727 
L 52.160938 186.409091 
L 52.160938 188.605455 
L 52.160938 190.801818 
L 52.160938 192.998182 
L 52.160938 195.194545 
L 52.160938 197.390909 
L 52.160938 199.587273 
L 52.160938 201.783636 
L 52.160938 203.98 
L 52.160938 206.176364 
L 52.160938 208.372727 
L 52.160938 210.569091 
L 52.160938 212.765455 
L 52.160938 214.961818 
L 52.160938 217.158182 
L 52.160938 219.354545 
L 52.160938 221.550909 
L 52.160938 223.747273 
L 52.160938 225.943636 
L 52.160938 228.14 
z
" style="fill:#4e68d8;fill-opacity:0.8;"/>
   </g>
   <g id="PathCollection_2">
    <path clip-path="url(#pb744f341df)" d="M 107.960938 225.943636 
L 107.960938 223.747273 
L 107.960938 221.550909 
L 109.651847 220.452727 
L 111.342756 219.354545 
L 111.342756 217.158182 
L 111.342756 214.961818 
L 111.342756 212.765455 
L 111.342756 210.569091 
L 113.033665 209.470909 
L 114.724574 208.372727 
L 114.724574 206.176364 
L 114.724574 203.98 
L 114.724574 201.783636 
L 114.724574 199.587273 
L 114.724574 197.390909 
L 116.415483 196.292727 
L 118.106392 195.194545 
L 118.106392 192.998182 
L 118.106392 190.801818 
L 118.106392 188.605455 
L 118.106392 186.409091 
L 119.797301 185.310909 
L 121.48821 184.212727 
L 121.48821 182.016364 
L 121.48821 179.82 
L 121.48821 177.623636 
L 121.48821 175.427273 
L 123.179119 174.329091 
L 124.870028 173.230909 
L 124.870028 171.034545 
L 124.870028 168.838182 
L 124.870028 166.641818 
L 124.870028 164.445455 
L 124.870028 162.249091 
L 126.560938 161.150909 
L 128.251847 160.052727 
L 128.251847 157.856364 
L 128.251847 155.66 
L 128.251847 153.463636 
L 128.251847 151.267273 
L 129.942756 150.169091 
L 131.633665 149.070909 
L 131.633665 146.874545 
L 131.633665 144.678182 
L 131.633665 142.481818 
L 131.633665 140.285455 
L 133.324574 139.187273 
L 135.015483 138.089091 
L 135.015483 135.892727 
L 135.015483 133.696364 
L 135.015483 131.5 
L 135.015483 129.303636 
L 135.015483 127.107273 
L 136.706392 126.009091 
L 138.397301 124.910909 
L 138.397301 122.714545 
L 138.397301 120.518182 
L 138.397301 118.321818 
L 138.397301 116.125455 
L 140.08821 115.027273 
L 141.779119 113.929091 
L 141.779119 111.732727 
L 141.779119 109.536364 
L 141.779119 107.34 
L 141.779119 105.143636 
L 143.470028 104.045455 
L 145.160938 102.947273 
L 145.160938 100.750909 
L 145.160938 98.554545 
L 145.160938 96.358182 
L 145.160938 94.161818 
L 145.160938 91.965455 
L 146.851847 90.867273 
L 148.542756 89.769091 
L 148.542756 87.572727 
L 148.542756 85.376364 
L 148.542756 83.18 
L 148.542756 80.983636 
L 150.233665 79.885455 
L 151.924574 78.787273 
L 151.924574 76.590909 
L 151.924574 74.394545 
L 151.924574 72.198182 
L 151.924574 70.001818 
L 151.924574 67.805455 
L 153.615483 66.707273 
L 155.306392 65.609091 
L 155.306392 63.412727 
L 155.306392 61.216364 
L 155.306392 59.02 
L 155.306392 56.823636 
L 156.997301 55.725455 
L 158.68821 54.627273 
L 158.68821 52.430909 
L 158.68821 50.234545 
L 158.68821 48.038182 
L 158.68821 45.841818 
L 160.379119 44.743636 
L 162.070028 43.645455 
L 162.070028 41.449091 
L 162.070028 39.252727 
L 162.070028 37.056364 
L 162.070028 34.86 
L 162.070028 32.663636 
L 163.760938 31.565455 
L 165.451847 30.467273 
L 165.451847 28.270909 
L 165.451847 26.074545 
L 165.451847 23.878182 
L 165.451847 21.681818 
L 167.142756 20.583636 
L 168.833665 19.485455 
L 168.833665 17.289091 
L 168.833665 15.092727 
L 168.833665 12.896364 
L 168.833665 10.7 
L 167.98821 10.7 
L 167.98821 12.896364 
L 167.98821 15.092727 
L 167.98821 17.289091 
L 167.98821 19.485455 
L 167.142756 20.034545 
L 164.606392 21.681818 
L 164.606392 23.878182 
L 164.606392 26.074545 
L 164.606392 28.270909 
L 164.606392 30.467273 
L 163.760938 31.016364 
L 161.224574 32.663636 
L 161.224574 34.86 
L 161.224574 37.056364 
L 161.224574 39.252727 
L 161.224574 41.449091 
L 161.224574 43.645455 
L 160.379119 44.194545 
L 157.842756 45.841818 
L 157.842756 48.038182 
L 157.842756 50.234545 
L 157.842756 52.430909 
L 157.842756 54.627273 
L 156.997301 55.176364 
L 154.460938 56.823636 
L 154.460938 59.02 
L 154.460938 61.216364 
L 154.460938 63.412727 
L 154.460938 65.609091 
L 153.615483 66.158182 
L 151.079119 67.805455 
L 151.079119 70.001818 
L 151.079119 72.198182 
L 151.079119 74.394545 
L 151.079119 76.590909 
L 151.079119 78.787273 
L 150.233665 79.336364 
L 147.697301 80.983636 
L 147.697301 83.18 
L 147.697301 85.376364 
L 147.697301 87.572727 
L 147.697301 89.769091 
L 146.851847 90.318182 
L 144.315483 91.965455 
L 144.315483 94.161818 
L 144.315483 96.358182 
L 144.315483 98.554545 
L 144.315483 100.750909 
L 144.315483 102.947273 
L 143.470028 103.496364 
L 140.933665 105.143636 
L 140.933665 107.34 
L 140.933665 109.536364 
L 140.933665 111.732727 
L 140.933665 113.929091 
L 140.08821 114.478182 
L 137.551847 116.125455 
L 137.551847 118.321818 
L 137.551847 120.518182 
L 137.551847 122.714545 
L 137.551847 124.910909 
L 136.706392 125.46 
L 134.170028 127.107273 
L 134.170028 129.303636 
L 134.170028 131.5 
L 134.170028 133.696364 
L 134.170028 135.892727 
L 134.170028 138.089091 
L 133.324574 138.638182 
L 130.78821 140.285455 
L 130.78821 142.481818 
L 130.78821 144.678182 
L 130.78821 146.874545 
L 130.78821 149.070909 
L 129.942756 149.62 
L 127.406392 151.267273 
L 127.406392 153.463636 
L 127.406392 155.66 
L 127.406392 157.856364 
L 127.406392 160.052727 
L 126.560938 160.601818 
L 124.024574 162.249091 
L 124.024574 164.445455 
L 124.024574 166.641818 
L 124.024574 168.838182 
L 124.024574 171.034545 
L 124.024574 173.230909 
L 123.179119 173.78 
L 120.642756 175.427273 
L 120.642756 177.623636 
L 120.642756 179.82 
L 120.642756 182.016364 
L 120.642756 184.212727 
L 119.797301 184.761818 
L 117.260938 186.409091 
L 117.260938 188.605455 
L 117.260938 190.801818 
L 117.260938 192.998182 
L 117.260938 195.194545 
L 116.415483 195.743636 
L 113.879119 197.390909 
L 113.879119 199.587273 
L 113.879119 201.783636 
L 113.879119 203.98 
L 113.879119 206.176364 
L 113.879119 208.372727 
L 113.033665 208.921818 
L 110.497301 210.569091 
L 110.497301 212.765455 
L 110.497301 214.961818 
L 110.497301 217.158182 
L 110.497301 219.354545 
L 109.651847 219.903636 
L 107.115483 221.550909 
L 107.115483 223.747273 
L 107.115483 225.943636 
L 107.115483 228.14 
L 107.960938 228.14 
z
" style="fill:#779af7;fill-opacity:0.8;"/>
   </g>
   <g id="PathCollection_3">
    <path clip-path="url(#pb744f341df)" d="M 108.806392 225.943636 
L 108.806392 223.747273 
L 108.806392 221.550909 
L 109.651847 221.001818 
L 112.18821 219.354545 
L 112.18821 217.158182 
L 112.18821 214.961818 
L 112.18821 212.765455 
L 112.18821 210.569091 
L 113.033665 210.02 
L 115.570028 208.372727 
L 115.570028 206.176364 
L 115.570028 203.98 
L 115.570028 201.783636 
L 115.570028 199.587273 
L 115.570028 197.390909 
L 116.415483 196.841818 
L 118.951847 195.194545 
L 118.951847 192.998182 
L 118.951847 190.801818 
L 118.951847 188.605455 
L 118.951847 186.409091 
L 119.797301 185.86 
L 122.333665 184.212727 
L 122.333665 182.016364 
L 122.333665 179.82 
L 122.333665 177.623636 
L 122.333665 175.427273 
L 123.179119 174.878182 
L 125.715483 173.230909 
L 125.715483 171.034545 
L 125.715483 168.838182 
L 125.715483 166.641818 
L 125.715483 164.445455 
L 125.715483 162.249091 
L 126.560938 161.7 
L 129.097301 160.052727 
L 129.097301 157.856364 
L 129.097301 155.66 
L 129.097301 153.463636 
L 129.097301 151.267273 
L 129.942756 150.718182 
L 132.479119 149.070909 
L 132.479119 146.874545 
L 132.479119 144.678182 
L 132.479119 142.481818 
L 132.479119 140.285455 
L 133.324574 139.736364 
L 135.860938 138.089091 
L 135.860938 135.892727 
L 135.860938 133.696364 
L 135.860938 131.5 
L 135.860938 129.303636 
L 135.860938 127.107273 
L 136.706392 126.558182 
L 139.242756 124.910909 
L 139.242756 122.714545 
L 139.242756 120.518182 
L 139.242756 118.321818 
L 139.242756 116.125455 
L 140.08821 115.576364 
L 142.624574 113.929091 
L 142.624574 111.732727 
L 142.624574 109.536364 
L 142.624574 107.34 
L 142.624574 105.143636 
L 143.470028 104.594545 
L 146.006392 102.947273 
L 146.006392 100.750909 
L 146.006392 98.554545 
L 146.006392 96.358182 
L 146.006392 94.161818 
L 146.006392 91.965455 
L 146.851847 91.416364 
L 149.38821 89.769091 
L 149.38821 87.572727 
L 149.38821 85.376364 
L 149.38821 83.18 
L 149.38821 80.983636 
L 150.233665 80.434545 
L 152.770028 78.787273 
L 152.770028 76.590909 
L 152.770028 74.394545 
L 152.770028 72.198182 
L 152.770028 70.001818 
L 152.770028 67.805455 
L 153.615483 67.256364 
L 156.151847 65.609091 
L 156.151847 63.412727 
L 156.151847 61.216364 
L 156.151847 59.02 
L 156.151847 56.823636 
L 156.997301 56.274545 
L 159.533665 54.627273 
L 159.533665 52.430909 
L 159.533665 50.234545 
L 159.533665 48.038182 
L 159.533665 45.841818 
L 160.379119 45.292727 
L 162.915483 43.645455 
L 162.915483 41.449091 
L 162.915483 39.252727 
L 162.915483 37.056364 
L 162.915483 34.86 
L 162.915483 32.663636 
L 163.760938 32.114545 
L 166.297301 30.467273 
L 166.297301 28.270909 
L 166.297301 26.074545 
L 166.297301 23.878182 
L 166.297301 21.681818 
L 167.142756 21.132727 
L 169.679119 19.485455 
L 169.679119 17.289091 
L 169.679119 15.092727 
L 169.679119 12.896364 
L 169.679119 10.7 
L 168.833665 10.7 
L 168.833665 12.896364 
L 168.833665 15.092727 
L 168.833665 17.289091 
L 168.833665 19.485455 
L 167.142756 20.583636 
L 165.451847 21.681818 
L 165.451847 23.878182 
L 165.451847 26.074545 
L 165.451847 28.270909 
L 165.451847 30.467273 
L 163.760938 31.565455 
L 162.070028 32.663636 
L 162.070028 34.86 
L 162.070028 37.056364 
L 162.070028 39.252727 
L 162.070028 41.449091 
L 162.070028 43.645455 
L 160.379119 44.743636 
L 158.68821 45.841818 
L 158.68821 48.038182 
L 158.68821 50.234545 
L 158.68821 52.430909 
L 158.68821 54.627273 
L 156.997301 55.725455 
L 155.306392 56.823636 
L 155.306392 59.02 
L 155.306392 61.216364 
L 155.306392 63.412727 
L 155.306392 65.609091 
L 153.615483 66.707273 
L 151.924574 67.805455 
L 151.924574 70.001818 
L 151.924574 72.198182 
L 151.924574 74.394545 
L 151.924574 76.590909 
L 151.924574 78.787273 
L 150.233665 79.885455 
L 148.542756 80.983636 
L 148.542756 83.18 
L 148.542756 85.376364 
L 148.542756 87.572727 
L 148.542756 89.769091 
L 146.851847 90.867273 
L 145.160938 91.965455 
L 145.160938 94.161818 
L 145.160938 96.358182 
L 145.160938 98.554545 
L 145.160938 100.750909 
L 145.160938 102.947273 
L 143.470028 104.045455 
L 141.779119 105.143636 
L 141.779119 107.34 
L 141.779119 109.536364 
L 141.779119 111.732727 
L 141.779119 113.929091 
L 140.08821 115.027273 
L 138.397301 116.125455 
L 138.397301 118.321818 
L 138.397301 120.518182 
L 138.397301 122.714545 
L 138.397301 124.910909 
L 136.706392 126.009091 
L 135.015483 127.107273 
L 135.015483 129.303636 
L 135.015483 131.5 
L 135.015483 133.696364 
L 135.015483 135.892727 
L 135.015483 138.089091 
L 133.324574 139.187273 
L 131.633665 140.285455 
L 131.633665 142.481818 
L 131.633665 144.678182 
L 131.633665 146.874545 
L 131.633665 149.070909 
L 129.942756 150.169091 
L 128.251847 151.267273 
L 128.251847 153.463636 
L 128.251847 155.66 
L 128.251847 157.856364 
L 128.251847 160.052727 
L 126.560938 161.150909 
L 124.870028 162.249091 
L 124.870028 164.445455 
L 124.870028 166.641818 
L 124.870028 168.838182 
L 124.870028 171.034545 
L 124.870028 173.230909 
L 123.179119 174.329091 
L 121.48821 175.427273 
L 121.48821 177.623636 
L 121.48821 179.82 
L 121.48821 182.016364 
L 121.48821 184.212727 
L 119.797301 185.310909 
L 118.106392 186.409091 
L 118.106392 188.605455 
L 118.106392 190.801818 
L 118.106392 192.998182 
L 118.106392 195.194545 
L 116.415483 196.292727 
L 114.724574 197.390909 
L 114.724574 199.587273 
L 114.724574 201.783636 
L 114.724574 203.98 
L 114.724574 206.176364 
L 114.724574 208.372727 
L 113.033665 209.470909 
L 111.342756 210.569091 
L 111.342756 212.765455 
L 111.342756 214.961818 
L 111.342756 217.158182 
L 111.342756 219.354545 
L 109.651847 220.452727 
L 107.960938 221.550909 
L 107.960938 223.747273 
L 107.960938 225.943636 
L 107.960938 228.14 
L 108.806392 228.14 
z
" style="fill:#a3c2fe;fill-opacity:0.8;"/>
   </g>
   <g id="PathCollection_4">
    <path clip-path="url(#pb744f341df)" d="M 109.651847 228.14 
L 113.033665 228.14 
L 116.415483 228.14 
L 119.797301 228.14 
L 123.179119 228.14 
L 126.560938 228.14 
L 129.942756 228.14 
L 133.324574 228.14 
L 136.706392 228.14 
L 140.08821 228.14 
L 143.470028 228.14 
L 146.851847 228.14 
L 150.233665 228.14 
L 153.615483 228.14 
L 156.997301 228.14 
L 160.379119 228.14 
L 163.760938 228.14 
L 167.142756 228.14 
L 170.524574 228.14 
L 173.906392 228.14 
L 177.28821 228.14 
L 180.670028 228.14 
L 184.051847 228.14 
L 187.433665 228.14 
L 190.815483 228.14 
L 194.197301 228.14 
L 197.579119 228.14 
L 200.960938 228.14 
L 204.342756 228.14 
L 207.724574 228.14 
L 211.106392 228.14 
L 214.48821 228.14 
L 217.870028 228.14 
L 221.251847 228.14 
L 224.633665 228.14 
L 228.015483 228.14 
L 228.015483 225.943636 
L 228.015483 223.747273 
L 228.015483 221.550909 
L 231.397301 219.354545 
L 231.397301 217.158182 
L 231.397301 214.961818 
L 234.779119 212.765455 
L 234.779119 210.569091 
L 234.779119 208.372727 
L 234.779119 206.176364 
L 238.160938 203.98 
L 238.160938 201.783636 
L 238.160938 199.587273 
L 238.160938 197.390909 
L 241.542756 195.194545 
L 241.542756 192.998182 
L 241.542756 190.801818 
L 241.542756 188.605455 
L 244.924574 186.409091 
L 244.924574 184.212727 
L 244.924574 182.016364 
L 244.924574 179.82 
L 248.306392 177.623636 
L 248.306392 175.427273 
L 248.306392 173.230909 
L 251.68821 171.034545 
L 251.68821 168.838182 
L 251.68821 166.641818 
L 251.68821 164.445455 
L 255.070028 162.249091 
L 255.070028 160.052727 
L 255.070028 157.856364 
L 255.070028 155.66 
L 258.451847 153.463636 
L 258.451847 151.267273 
L 258.451847 149.070909 
L 258.451847 146.874545 
L 261.833665 144.678182 
L 261.833665 142.481818 
L 261.833665 140.285455 
L 261.833665 138.089091 
L 265.215483 135.892727 
L 265.215483 133.696364 
L 265.215483 131.5 
L 268.597301 129.303636 
L 268.597301 127.107273 
L 268.597301 124.910909 
L 268.597301 122.714545 
L 271.979119 120.518182 
L 271.979119 118.321818 
L 271.979119 116.125455 
L 271.979119 113.929091 
L 275.360938 111.732727 
L 275.360938 109.536364 
L 275.360938 107.34 
L 275.360938 105.143636 
L 278.742756 102.947273 
L 278.742756 100.750909 
L 278.742756 98.554545 
L 278.742756 96.358182 
L 282.124574 94.161818 
L 282.124574 91.965455 
L 282.124574 89.769091 
L 285.506392 87.572727 
L 285.506392 85.376364 
L 285.506392 83.18 
L 285.506392 80.983636 
L 288.88821 78.787273 
L 288.88821 76.590909 
L 288.88821 74.394545 
L 288.88821 72.198182 
L 292.270028 70.001818 
L 292.270028 67.805455 
L 292.270028 65.609091 
L 292.270028 63.412727 
L 295.651847 61.216364 
L 295.651847 59.02 
L 295.651847 56.823636 
L 299.033665 54.627273 
L 299.033665 52.430909 
L 299.033665 50.234545 
L 299.033665 48.038182 
L 302.415483 45.841818 
L 302.415483 43.645455 
L 302.415483 41.449091 
L 302.415483 39.252727 
L 305.797301 37.056364 
L 305.797301 34.86 
L 305.797301 32.663636 
L 305.797301 30.467273 
L 309.179119 28.270909 
L 309.179119 26.074545 
L 309.179119 23.878182 
L 309.179119 21.681818 
L 312.560938 19.485455 
L 312.560938 17.289091 
L 312.560938 15.092727 
L 315.942756 12.896364 
L 315.942756 10.7 
L 312.560938 10.7 
L 309.179119 10.7 
L 305.797301 10.7 
L 302.415483 10.7 
L 299.033665 10.7 
L 295.651847 10.7 
L 292.270028 10.7 
L 288.88821 10.7 
L 285.506392 10.7 
L 282.124574 10.7 
L 278.742756 10.7 
L 275.360938 10.7 
L 271.979119 10.7 
L 268.597301 10.7 
L 265.215483 10.7 
L 261.833665 10.7 
L 258.451847 10.7 
L 255.070028 10.7 
L 251.68821 10.7 
L 248.306392 10.7 
L 244.924574 10.7 
L 241.542756 10.7 
L 238.160938 10.7 
L 234.779119 10.7 
L 231.397301 10.7 
L 228.015483 10.7 
L 224.633665 10.7 
L 221.251847 10.7 
L 217.870028 10.7 
L 214.48821 10.7 
L 211.106392 10.7 
L 207.724574 10.7 
L 204.342756 10.7 
L 200.960938 10.7 
L 197.579119 10.7 
L 194.197301 10.7 
L 190.815483 10.7 
L 187.433665 10.7 
L 184.051847 10.7 
L 180.670028 10.7 
L 177.28821 10.7 
L 173.906392 10.7 
L 170.524574 10.7 
L 169.679119 10.7 
L 169.679119 12.896364 
L 169.679119 15.092727 
L 169.679119 17.289091 
L 169.679119 19.485455 
L 167.142756 21.132727 
L 166.297301 21.681818 
L 166.297301 23.878182 
L 166.297301 26.074545 
L 166.297301 28.270909 
L 166.297301 30.467273 
L 163.760938 32.114545 
L 162.915483 32.663636 
L 162.915483 34.86 
L 162.915483 37.056364 
L 162.915483 39.252727 
L 162.915483 41.449091 
L 162.915483 43.645455 
L 160.379119 45.292727 
L 159.533665 45.841818 
L 159.533665 48.038182 
L 159.533665 50.234545 
L 159.533665 52.430909 
L 159.533665 54.627273 
L 156.997301 56.274545 
L 156.151847 56.823636 
L 156.151847 59.02 
L 156.151847 61.216364 
L 156.151847 63.412727 
L 156.151847 65.609091 
L 153.615483 67.256364 
L 152.770028 67.805455 
L 152.770028 70.001818 
L 152.770028 72.198182 
L 152.770028 74.394545 
L 152.770028 76.590909 
L 152.770028 78.787273 
L 150.233665 80.434545 
L 149.38821 80.983636 
L 149.38821 83.18 
L 149.38821 85.376364 
L 149.38821 87.572727 
L 149.38821 89.769091 
L 146.851847 91.416364 
L 146.006392 91.965455 
L 146.006392 94.161818 
L 146.006392 96.358182 
L 146.006392 98.554545 
L 146.006392 100.750909 
L 146.006392 102.947273 
L 143.470028 104.594545 
L 142.624574 105.143636 
L 142.624574 107.34 
L 142.624574 109.536364 
L 142.624574 111.732727 
L 142.624574 113.929091 
L 140.08821 115.576364 
L 139.242756 116.125455 
L 139.242756 118.321818 
L 139.242756 120.518182 
L 139.242756 122.714545 
L 139.242756 124.910909 
L 136.706392 126.558182 
L 135.860938 127.107273 
L 135.860938 129.303636 
L 135.860938 131.5 
L 135.860938 133.696364 
L 135.860938 135.892727 
L 135.860938 138.089091 
L 133.324574 139.736364 
L 132.479119 140.285455 
L 132.479119 142.481818 
L 132.479119 144.678182 
L 132.479119 146.874545 
L 132.479119 149.070909 
L 129.942756 150.718182 
L 129.097301 151.267273 
L 129.097301 153.463636 
L 129.097301 155.66 
L 129.097301 157.856364 
L 129.097301 160.052727 
L 126.560938 161.7 
L 125.715483 162.249091 
L 125.715483 164.445455 
L 125.715483 166.641818 
L 125.715483 168.838182 
L 125.715483 171.034545 
L 125.715483 173.230909 
L 123.179119 174.878182 
L 122.333665 175.427273 
L 122.333665 177.623636 
L 122.333665 179.82 
L 122.333665 182.016364 
L 122.333665 184.212727 
L 119.797301 185.86 
L 118.951847 186.409091 
L 118.951847 188.605455 
L 118.951847 190.801818 
L 118.951847 192.998182 
L 118.951847 195.194545 
L 116.415483 196.841818 
L 115.570028 197.390909 
L 115.570028 199.587273 
L 115.570028 201.783636 
L 115.570028 203.98 
L 115.570028 206.176364 
L 115.570028 208.372727 
L 113.033665 210.02 
L 112.18821 210.569091 
L 112.18821 212.765455 
L 112.18821 214.961818 
L 112.18821 217.158182 
L 112.18821 219.354545 
L 109.651847 221.001818 
L 108.806392 221.550909 
L 108.806392 223.747273 
L 108.806392 225.943636 
L 108.806392 228.14 
z
" style="fill:#ccd9ed;fill-opacity:0.8;"/>
   </g>
   <g id="PathCollection_5">
    <path clip-path="url(#pb744f341df)" d="M 228.860938 225.943636 
L 228.860938 223.747273 
L 228.860938 221.550909 
L 231.397301 219.903636 
L 232.242756 219.354545 
L 232.242756 217.158182 
L 232.242756 214.961818 
L 234.779119 213.314545 
L 235.624574 212.765455 
L 235.624574 210.569091 
L 235.624574 208.372727 
L 235.624574 206.176364 
L 238.160938 204.529091 
L 239.006392 203.98 
L 239.006392 201.783636 
L 239.006392 199.587273 
L 239.006392 197.390909 
L 241.542756 195.743636 
L 242.38821 195.194545 
L 242.38821 192.998182 
L 242.38821 190.801818 
L 242.38821 188.605455 
L 244.924574 186.958182 
L 245.770028 186.409091 
L 245.770028 184.212727 
L 245.770028 182.016364 
L 245.770028 179.82 
L 248.306392 178.172727 
L 249.151847 177.623636 
L 249.151847 175.427273 
L 249.151847 173.230909 
L 251.68821 171.583636 
L 252.533665 171.034545 
L 252.533665 168.838182 
L 252.533665 166.641818 
L 252.533665 164.445455 
L 255.070028 162.798182 
L 255.915483 162.249091 
L 255.915483 160.052727 
L 255.915483 157.856364 
L 255.915483 155.66 
L 258.451847 154.012727 
L 259.297301 153.463636 
L 259.297301 151.267273 
L 259.297301 149.070909 
L 259.297301 146.874545 
L 261.833665 145.227273 
L 262.679119 144.678182 
L 262.679119 142.481818 
L 262.679119 140.285455 
L 262.679119 138.089091 
L 265.215483 136.441818 
L 266.060938 135.892727 
L 266.060938 133.696364 
L 266.060938 131.5 
L 268.597301 129.852727 
L 269.442756 129.303636 
L 269.442756 127.107273 
L 269.442756 124.910909 
L 269.442756 122.714545 
L 271.979119 121.067273 
L 272.824574 120.518182 
L 272.824574 118.321818 
L 272.824574 116.125455 
L 272.824574 113.929091 
L 275.360938 112.281818 
L 276.206392 111.732727 
L 276.206392 109.536364 
L 276.206392 107.34 
L 276.206392 105.143636 
L 278.742756 103.496364 
L 279.58821 102.947273 
L 279.58821 100.750909 
L 279.58821 98.554545 
L 279.58821 96.358182 
L 282.124574 94.710909 
L 282.970028 94.161818 
L 282.970028 91.965455 
L 282.970028 89.769091 
L 285.506392 88.121818 
L 286.351847 87.572727 
L 286.351847 85.376364 
L 286.351847 83.18 
L 286.351847 80.983636 
L 288.88821 79.336364 
L 289.733665 78.787273 
L 289.733665 76.590909 
L 289.733665 74.394545 
L 289.733665 72.198182 
L 292.270028 70.550909 
L 293.115483 70.001818 
L 293.115483 67.805455 
L 293.115483 65.609091 
L 293.115483 63.412727 
L 295.651847 61.765455 
L 296.497301 61.216364 
L 296.497301 59.02 
L 296.497301 56.823636 
L 299.033665 55.176364 
L 299.879119 54.627273 
L 299.879119 52.430909 
L 299.879119 50.234545 
L 299.879119 48.038182 
L 302.415483 46.390909 
L 303.260938 45.841818 
L 303.260938 43.645455 
L 303.260938 41.449091 
L 303.260938 39.252727 
L 305.797301 37.605455 
L 306.642756 37.056364 
L 306.642756 34.86 
L 306.642756 32.663636 
L 306.642756 30.467273 
L 309.179119 28.82 
L 310.024574 28.270909 
L 310.024574 26.074545 
L 310.024574 23.878182 
L 310.024574 21.681818 
L 312.560938 20.034545 
L 313.406392 19.485455 
L 313.406392 17.289091 
L 313.406392 15.092727 
L 315.942756 13.445455 
L 316.78821 12.896364 
L 316.78821 10.7 
L 315.942756 10.7 
L 315.942756 12.896364 
L 312.560938 15.092727 
L 312.560938 17.289091 
L 312.560938 19.485455 
L 309.179119 21.681818 
L 309.179119 23.878182 
L 309.179119 26.074545 
L 309.179119 28.270909 
L 305.797301 30.467273 
L 305.797301 32.663636 
L 305.797301 34.86 
L 305.797301 37.056364 
L 302.415483 39.252727 
L 302.415483 41.449091 
L 302.415483 43.645455 
L 302.415483 45.841818 
L 299.033665 48.038182 
L 299.033665 50.234545 
L 299.033665 52.430909 
L 299.033665 54.627273 
L 295.651847 56.823636 
L 295.651847 59.02 
L 295.651847 61.216364 
L 292.270028 63.412727 
L 292.270028 65.609091 
L 292.270028 67.805455 
L 292.270028 70.001818 
L 288.88821 72.198182 
L 288.88821 74.394545 
L 288.88821 76.590909 
L 288.88821 78.787273 
L 285.506392 80.983636 
L 285.506392 83.18 
L 285.506392 85.376364 
L 285.506392 87.572727 
L 282.124574 89.769091 
L 282.124574 91.965455 
L 282.124574 94.161818 
L 278.742756 96.358182 
L 278.742756 98.554545 
L 278.742756 100.750909 
L 278.742756 102.947273 
L 275.360938 105.143636 
L 275.360938 107.34 
L 275.360938 109.536364 
L 275.360938 111.732727 
L 271.979119 113.929091 
L 271.979119 116.125455 
L 271.979119 118.321818 
L 271.979119 120.518182 
L 268.597301 122.714545 
L 268.597301 124.910909 
L 268.597301 127.107273 
L 268.597301 129.303636 
L 265.215483 131.5 
L 265.215483 133.696364 
L 265.215483 135.892727 
L 261.833665 138.089091 
L 261.833665 140.285455 
L 261.833665 142.481818 
L 261.833665 144.678182 
L 258.451847 146.874545 
L 258.451847 149.070909 
L 258.451847 151.267273 
L 258.451847 153.463636 
L 255.070028 155.66 
L 255.070028 157.856364 
L 255.070028 160.052727 
L 255.070028 162.249091 
L 251.68821 164.445455 
L 251.68821 166.641818 
L 251.68821 168.838182 
L 251.68821 171.034545 
L 248.306392 173.230909 
L 248.306392 175.427273 
L 248.306392 177.623636 
L 244.924574 179.82 
L 244.924574 182.016364 
L 244.924574 184.212727 
L 244.924574 186.409091 
L 241.542756 188.605455 
L 241.542756 190.801818 
L 241.542756 192.998182 
L 241.542756 195.194545 
L 238.160938 197.390909 
L 238.160938 199.587273 
L 238.160938 201.783636 
L 238.160938 203.98 
L 234.779119 206.176364 
L 234.779119 208.372727 
L 234.779119 210.569091 
L 234.779119 212.765455 
L 231.397301 214.961818 
L 231.397301 217.158182 
L 231.397301 219.354545 
L 228.015483 221.550909 
L 228.015483 223.747273 
L 228.015483 225.943636 
L 228.015483 228.14 
L 228.860938 228.14 
z
" style="fill:#ecd3c5;fill-opacity:0.8;"/>
   </g>
   <g id="PathCollection_6">
    <path clip-path="url(#pb744f341df)" d="M 229.706392 225.943636 
L 229.706392 223.747273 
L 229.706392 221.550909 
L 231.397301 220.452727 
L 233.08821 219.354545 
L 233.08821 217.158182 
L 233.08821 214.961818 
L 234.779119 213.863636 
L 236.470028 212.765455 
L 236.470028 210.569091 
L 236.470028 208.372727 
L 236.470028 206.176364 
L 238.160938 205.078182 
L 239.851847 203.98 
L 239.851847 201.783636 
L 239.851847 199.587273 
L 239.851847 197.390909 
L 241.542756 196.292727 
L 243.233665 195.194545 
L 243.233665 192.998182 
L 243.233665 190.801818 
L 243.233665 188.605455 
L 244.924574 187.507273 
L 246.615483 186.409091 
L 246.615483 184.212727 
L 246.615483 182.016364 
L 246.615483 179.82 
L 248.306392 178.721818 
L 249.997301 177.623636 
L 249.997301 175.427273 
L 249.997301 173.230909 
L 251.68821 172.132727 
L 253.379119 171.034545 
L 253.379119 168.838182 
L 253.379119 166.641818 
L 253.379119 164.445455 
L 255.070028 163.347273 
L 256.760938 162.249091 
L 256.760938 160.052727 
L 256.760938 157.856364 
L 256.760938 155.66 
L 258.451847 154.561818 
L 260.142756 153.463636 
L 260.142756 151.267273 
L 260.142756 149.070909 
L 260.142756 146.874545 
L 261.833665 145.776364 
L 263.524574 144.678182 
L 263.524574 142.481818 
L 263.524574 140.285455 
L 263.524574 138.089091 
L 265.215483 136.990909 
L 266.906392 135.892727 
L 266.906392 133.696364 
L 266.906392 131.5 
L 268.597301 130.401818 
L 270.28821 129.303636 
L 270.28821 127.107273 
L 270.28821 124.910909 
L 270.28821 122.714545 
L 271.979119 121.616364 
L 273.670028 120.518182 
L 273.670028 118.321818 
L 273.670028 116.125455 
L 273.670028 113.929091 
L 275.360938 112.830909 
L 277.051847 111.732727 
L 277.051847 109.536364 
L 277.051847 107.34 
L 277.051847 105.143636 
L 278.742756 104.045455 
L 280.433665 102.947273 
L 280.433665 100.750909 
L 280.433665 98.554545 
L 280.433665 96.358182 
L 282.124574 95.26 
L 283.815483 94.161818 
L 283.815483 91.965455 
L 283.815483 89.769091 
L 285.506392 88.670909 
L 287.197301 87.572727 
L 287.197301 85.376364 
L 287.197301 83.18 
L 287.197301 80.983636 
L 288.88821 79.885455 
L 290.579119 78.787273 
L 290.579119 76.590909 
L 290.579119 74.394545 
L 290.579119 72.198182 
L 292.270028 71.1 
L 293.960938 70.001818 
L 293.960938 67.805455 
L 293.960938 65.609091 
L 293.960938 63.412727 
L 295.651847 62.314545 
L 297.342756 61.216364 
L 297.342756 59.02 
L 297.342756 56.823636 
L 299.033665 55.725455 
L 300.724574 54.627273 
L 300.724574 52.430909 
L 300.724574 50.234545 
L 300.724574 48.038182 
L 302.415483 46.94 
L 304.106392 45.841818 
L 304.106392 43.645455 
L 304.106392 41.449091 
L 304.106392 39.252727 
L 305.797301 38.154545 
L 307.48821 37.056364 
L 307.48821 34.86 
L 307.48821 32.663636 
L 307.48821 30.467273 
L 309.179119 29.369091 
L 310.870028 28.270909 
L 310.870028 26.074545 
L 310.870028 23.878182 
L 310.870028 21.681818 
L 312.560938 20.583636 
L 314.251847 19.485455 
L 314.251847 17.289091 
L 314.251847 15.092727 
L 315.942756 13.994545 
L 317.633665 12.896364 
L 317.633665 10.7 
L 316.78821 10.7 
L 316.78821 12.896364 
L 315.942756 13.445455 
L 313.406392 15.092727 
L 313.406392 17.289091 
L 313.406392 19.485455 
L 312.560938 20.034545 
L 310.024574 21.681818 
L 310.024574 23.878182 
L 310.024574 26.074545 
L 310.024574 28.270909 
L 309.179119 28.82 
L 306.642756 30.467273 
L 306.642756 32.663636 
L 306.642756 34.86 
L 306.642756 37.056364 
L 305.797301 37.605455 
L 303.260938 39.252727 
L 303.260938 41.449091 
L 303.260938 43.645455 
L 303.260938 45.841818 
L 302.415483 46.390909 
L 299.879119 48.038182 
L 299.879119 50.234545 
L 299.879119 52.430909 
L 299.879119 54.627273 
L 299.033665 55.176364 
L 296.497301 56.823636 
L 296.497301 59.02 
L 296.497301 61.216364 
L 295.651847 61.765455 
L 293.115483 63.412727 
L 293.115483 65.609091 
L 293.115483 67.805455 
L 293.115483 70.001818 
L 292.270028 70.550909 
L 289.733665 72.198182 
L 289.733665 74.394545 
L 289.733665 76.590909 
L 289.733665 78.787273 
L 288.88821 79.336364 
L 286.351847 80.983636 
L 286.351847 83.18 
L 286.351847 85.376364 
L 286.351847 87.572727 
L 285.506392 88.121818 
L 282.970028 89.769091 
L 282.970028 91.965455 
L 282.970028 94.161818 
L 282.124574 94.710909 
L 279.58821 96.358182 
L 279.58821 98.554545 
L 279.58821 100.750909 
L 279.58821 102.947273 
L 278.742756 103.496364 
L 276.206392 105.143636 
L 276.206392 107.34 
L 276.206392 109.536364 
L 276.206392 111.732727 
L 275.360938 112.281818 
L 272.824574 113.929091 
L 272.824574 116.125455 
L 272.824574 118.321818 
L 272.824574 120.518182 
L 271.979119 121.067273 
L 269.442756 122.714545 
L 269.442756 124.910909 
L 269.442756 127.107273 
L 269.442756 129.303636 
L 268.597301 129.852727 
L 266.060938 131.5 
L 266.060938 133.696364 
L 266.060938 135.892727 
L 265.215483 136.441818 
L 262.679119 138.089091 
L 262.679119 140.285455 
L 262.679119 142.481818 
L 262.679119 144.678182 
L 261.833665 145.227273 
L 259.297301 146.874545 
L 259.297301 149.070909 
L 259.297301 151.267273 
L 259.297301 153.463636 
L 258.451847 154.012727 
L 255.915483 155.66 
L 255.915483 157.856364 
L 255.915483 160.052727 
L 255.915483 162.249091 
L 255.070028 162.798182 
L 252.533665 164.445455 
L 252.533665 166.641818 
L 252.533665 168.838182 
L 252.533665 171.034545 
L 251.68821 171.583636 
L 249.151847 173.230909 
L 249.151847 175.427273 
L 249.151847 177.623636 
L 248.306392 178.172727 
L 245.770028 179.82 
L 245.770028 182.016364 
L 245.770028 184.212727 
L 245.770028 186.409091 
L 244.924574 186.958182 
L 242.38821 188.605455 
L 242.38821 190.801818 
L 242.38821 192.998182 
L 242.38821 195.194545 
L 241.542756 195.743636 
L 239.006392 197.390909 
L 239.006392 199.587273 
L 239.006392 201.783636 
L 239.006392 203.98 
L 238.160938 204.529091 
L 235.624574 206.176364 
L 235.624574 208.372727 
L 235.624574 210.569091 
L 235.624574 212.765455 
L 234.779119 213.314545 
L 232.242756 214.961818 
L 232.242756 217.158182 
L 232.242756 219.354545 
L 231.397301 219.903636 
L 228.860938 221.550909 
L 228.860938 223.747273 
L 228.860938 225.943636 
L 228.860938 228.14 
L 229.706392 228.14 
z
" style="fill:#f7b093;fill-opacity:0.8;"/>
   </g>
   <g id="PathCollection_7">
    <path clip-path="url(#pb744f341df)" d="M 230.551847 225.943636 
L 230.551847 223.747273 
L 230.551847 221.550909 
L 231.397301 221.001818 
L 233.933665 219.354545 
L 233.933665 217.158182 
L 233.933665 214.961818 
L 234.779119 214.412727 
L 237.315483 212.765455 
L 237.315483 210.569091 
L 237.315483 208.372727 
L 237.315483 206.176364 
L 238.160938 205.627273 
L 240.697301 203.98 
L 240.697301 201.783636 
L 240.697301 199.587273 
L 240.697301 197.390909 
L 241.542756 196.841818 
L 244.079119 195.194545 
L 244.079119 192.998182 
L 244.079119 190.801818 
L 244.079119 188.605455 
L 244.924574 188.056364 
L 247.460938 186.409091 
L 247.460938 184.212727 
L 247.460938 182.016364 
L 247.460938 179.82 
L 248.306392 179.270909 
L 250.842756 177.623636 
L 250.842756 175.427273 
L 250.842756 173.230909 
L 251.68821 172.681818 
L 254.224574 171.034545 
L 254.224574 168.838182 
L 254.224574 166.641818 
L 254.224574 164.445455 
L 255.070028 163.896364 
L 257.606392 162.249091 
L 257.606392 160.052727 
L 257.606392 157.856364 
L 257.606392 155.66 
L 258.451847 155.110909 
L 260.98821 153.463636 
L 260.98821 151.267273 
L 260.98821 149.070909 
L 260.98821 146.874545 
L 261.833665 146.325455 
L 264.370028 144.678182 
L 264.370028 142.481818 
L 264.370028 140.285455 
L 264.370028 138.089091 
L 265.215483 137.54 
L 267.751847 135.892727 
L 267.751847 133.696364 
L 267.751847 131.5 
L 268.597301 130.950909 
L 271.133665 129.303636 
L 271.133665 127.107273 
L 271.133665 124.910909 
L 271.133665 122.714545 
L 271.979119 122.165455 
L 274.515483 120.518182 
L 274.515483 118.321818 
L 274.515483 116.125455 
L 274.515483 113.929091 
L 275.360938 113.38 
L 277.897301 111.732727 
L 277.897301 109.536364 
L 277.897301 107.34 
L 277.897301 105.143636 
L 278.742756 104.594545 
L 281.279119 102.947273 
L 281.279119 100.750909 
L 281.279119 98.554545 
L 281.279119 96.358182 
L 282.124574 95.809091 
L 284.660938 94.161818 
L 284.660938 91.965455 
L 284.660938 89.769091 
L 285.506392 89.22 
L 288.042756 87.572727 
L 288.042756 85.376364 
L 288.042756 83.18 
L 288.042756 80.983636 
L 288.88821 80.434545 
L 291.424574 78.787273 
L 291.424574 76.590909 
L 291.424574 74.394545 
L 291.424574 72.198182 
L 292.270028 71.649091 
L 294.806392 70.001818 
L 294.806392 67.805455 
L 294.806392 65.609091 
L 294.806392 63.412727 
L 295.651847 62.863636 
L 298.18821 61.216364 
L 298.18821 59.02 
L 298.18821 56.823636 
L 299.033665 56.274545 
L 301.570028 54.627273 
L 301.570028 52.430909 
L 301.570028 50.234545 
L 301.570028 48.038182 
L 302.415483 47.489091 
L 304.951847 45.841818 
L 304.951847 43.645455 
L 304.951847 41.449091 
L 304.951847 39.252727 
L 305.797301 38.703636 
L 308.333665 37.056364 
L 308.333665 34.86 
L 308.333665 32.663636 
L 308.333665 30.467273 
L 309.179119 29.918182 
L 311.715483 28.270909 
L 311.715483 26.074545 
L 311.715483 23.878182 
L 311.715483 21.681818 
L 312.560938 21.132727 
L 315.097301 19.485455 
L 315.097301 17.289091 
L 315.097301 15.092727 
L 315.942756 14.543636 
L 318.479119 12.896364 
L 318.479119 10.7 
L 317.633665 10.7 
L 317.633665 12.896364 
L 315.942756 13.994545 
L 314.251847 15.092727 
L 314.251847 17.289091 
L 314.251847 19.485455 
L 312.560938 20.583636 
L 310.870028 21.681818 
L 310.870028 23.878182 
L 310.870028 26.074545 
L 310.870028 28.270909 
L 309.179119 29.369091 
L 307.48821 30.467273 
L 307.48821 32.663636 
L 307.48821 34.86 
L 307.48821 37.056364 
L 305.797301 38.154545 
L 304.106392 39.252727 
L 304.106392 41.449091 
L 304.106392 43.645455 
L 304.106392 45.841818 
L 302.415483 46.94 
L 300.724574 48.038182 
L 300.724574 50.234545 
L 300.724574 52.430909 
L 300.724574 54.627273 
L 299.033665 55.725455 
L 297.342756 56.823636 
L 297.342756 59.02 
L 297.342756 61.216364 
L 295.651847 62.314545 
L 293.960938 63.412727 
L 293.960938 65.609091 
L 293.960938 67.805455 
L 293.960938 70.001818 
L 292.270028 71.1 
L 290.579119 72.198182 
L 290.579119 74.394545 
L 290.579119 76.590909 
L 290.579119 78.787273 
L 288.88821 79.885455 
L 287.197301 80.983636 
L 287.197301 83.18 
L 287.197301 85.376364 
L 287.197301 87.572727 
L 285.506392 88.670909 
L 283.815483 89.769091 
L 283.815483 91.965455 
L 283.815483 94.161818 
L 282.124574 95.26 
L 280.433665 96.358182 
L 280.433665 98.554545 
L 280.433665 100.750909 
L 280.433665 102.947273 
L 278.742756 104.045455 
L 277.051847 105.143636 
L 277.051847 107.34 
L 277.051847 109.536364 
L 277.051847 111.732727 
L 275.360938 112.830909 
L 273.670028 113.929091 
L 273.670028 116.125455 
L 273.670028 118.321818 
L 273.670028 120.518182 
L 271.979119 121.616364 
L 270.28821 122.714545 
L 270.28821 124.910909 
L 270.28821 127.107273 
L 270.28821 129.303636 
L 268.597301 130.401818 
L 266.906392 131.5 
L 266.906392 133.696364 
L 266.906392 135.892727 
L 265.215483 136.990909 
L 263.524574 138.089091 
L 263.524574 140.285455 
L 263.524574 142.481818 
L 263.524574 144.678182 
L 261.833665 145.776364 
L 260.142756 146.874545 
L 260.142756 149.070909 
L 260.142756 151.267273 
L 260.142756 153.463636 
L 258.451847 154.561818 
L 256.760938 155.66 
L 256.760938 157.856364 
L 256.760938 160.052727 
L 256.760938 162.249091 
L 255.070028 163.347273 
L 253.379119 164.445455 
L 253.379119 166.641818 
L 253.379119 168.838182 
L 253.379119 171.034545 
L 251.68821 172.132727 
L 249.997301 173.230909 
L 249.997301 175.427273 
L 249.997301 177.623636 
L 248.306392 178.721818 
L 246.615483 179.82 
L 246.615483 182.016364 
L 246.615483 184.212727 
L 246.615483 186.409091 
L 244.924574 187.507273 
L 243.233665 188.605455 
L 243.233665 190.801818 
L 243.233665 192.998182 
L 243.233665 195.194545 
L 241.542756 196.292727 
L 239.851847 197.390909 
L 239.851847 199.587273 
L 239.851847 201.783636 
L 239.851847 203.98 
L 238.160938 205.078182 
L 236.470028 206.176364 
L 236.470028 208.372727 
L 236.470028 210.569091 
L 236.470028 212.765455 
L 234.779119 213.863636 
L 233.08821 214.961818 
L 233.08821 217.158182 
L 233.08821 219.354545 
L 231.397301 220.452727 
L 229.706392 221.550909 
L 229.706392 223.747273 
L 229.706392 225.943636 
L 229.706392 228.14 
L 230.551847 228.14 
z
" style="fill:#eb7d62;fill-opacity:0.8;"/>
   </g>
   <g id="PathCollection_8">
    <path clip-path="url(#pb744f341df)" d="M 231.397301 228.14 
L 234.779119 228.14 
L 238.160938 228.14 
L 241.542756 228.14 
L 244.924574 228.14 
L 248.306392 228.14 
L 251.68821 228.14 
L 255.070028 228.14 
L 258.451847 228.14 
L 261.833665 228.14 
L 265.215483 228.14 
L 268.597301 228.14 
L 271.979119 228.14 
L 275.360938 228.14 
L 278.742756 228.14 
L 282.124574 228.14 
L 285.506392 228.14 
L 288.88821 228.14 
L 292.270028 228.14 
L 295.651847 228.14 
L 299.033665 228.14 
L 302.415483 228.14 
L 305.797301 228.14 
L 309.179119 228.14 
L 312.560938 228.14 
L 315.942756 228.14 
L 319.324574 228.14 
L 322.706392 228.14 
L 326.08821 228.14 
L 329.470028 228.14 
L 332.851847 228.14 
L 336.233665 228.14 
L 339.615483 228.14 
L 342.997301 228.14 
L 346.379119 228.14 
L 349.760938 228.14 
L 353.142756 228.14 
L 356.524574 228.14 
L 359.906392 228.14 
L 363.28821 228.14 
L 366.670028 228.14 
L 370.051847 228.14 
L 373.433665 228.14 
L 376.815483 228.14 
L 380.197301 228.14 
L 383.579119 228.14 
L 386.960938 228.14 
L 386.960938 225.943636 
L 386.960938 223.747273 
L 386.960938 221.550909 
L 386.960938 219.354545 
L 386.960938 217.158182 
L 386.960938 214.961818 
L 386.960938 212.765455 
L 386.960938 210.569091 
L 386.960938 208.372727 
L 386.960938 206.176364 
L 386.960938 203.98 
L 386.960938 201.783636 
L 386.960938 199.587273 
L 386.960938 197.390909 
L 386.960938 195.194545 
L 386.960938 192.998182 
L 386.960938 190.801818 
L 386.960938 188.605455 
L 386.960938 186.409091 
L 386.960938 184.212727 
L 386.960938 182.016364 
L 386.960938 179.82 
L 386.960938 177.623636 
L 386.960938 175.427273 
L 386.960938 173.230909 
L 386.960938 171.034545 
L 386.960938 168.838182 
L 386.960938 166.641818 
L 386.960938 164.445455 
L 386.960938 162.249091 
L 386.960938 160.052727 
L 386.960938 157.856364 
L 386.960938 155.66 
L 386.960938 153.463636 
L 386.960938 151.267273 
L 386.960938 149.070909 
L 386.960938 146.874545 
L 386.960938 144.678182 
L 386.960938 142.481818 
L 386.960938 140.285455 
L 386.960938 138.089091 
L 386.960938 135.892727 
L 386.960938 133.696364 
L 386.960938 131.5 
L 386.960938 129.303636 
L 386.960938 127.107273 
L 386.960938 124.910909 
L 386.960938 122.714545 
L 386.960938 120.518182 
L 386.960938 118.321818 
L 386.960938 116.125455 
L 386.960938 113.929091 
L 386.960938 111.732727 
L 386.960938 109.536364 
L 386.960938 107.34 
L 386.960938 105.143636 
L 386.960938 102.947273 
L 386.960938 100.750909 
L 386.960938 98.554545 
L 386.960938 96.358182 
L 386.960938 94.161818 
L 386.960938 91.965455 
L 386.960938 89.769091 
L 386.960938 87.572727 
L 386.960938 85.376364 
L 386.960938 83.18 
L 386.960938 80.983636 
L 386.960938 78.787273 
L 386.960938 76.590909 
L 386.960938 74.394545 
L 386.960938 72.198182 
L 386.960938 70.001818 
L 386.960938 67.805455 
L 386.960938 65.609091 
L 386.960938 63.412727 
L 386.960938 61.216364 
L 386.960938 59.02 
L 386.960938 56.823636 
L 386.960938 54.627273 
L 386.960938 52.430909 
L 386.960938 50.234545 
L 386.960938 48.038182 
L 386.960938 45.841818 
L 386.960938 43.645455 
L 386.960938 41.449091 
L 386.960938 39.252727 
L 386.960938 37.056364 
L 386.960938 34.86 
L 386.960938 32.663636 
L 386.960938 30.467273 
L 386.960938 28.270909 
L 386.960938 26.074545 
L 386.960938 23.878182 
L 386.960938 21.681818 
L 386.960938 19.485455 
L 386.960938 17.289091 
L 386.960938 15.092727 
L 386.960938 12.896364 
L 386.960938 10.7 
L 383.579119 10.7 
L 380.197301 10.7 
L 376.815483 10.7 
L 373.433665 10.7 
L 370.051847 10.7 
L 366.670028 10.7 
L 363.28821 10.7 
L 359.906392 10.7 
L 356.524574 10.7 
L 353.142756 10.7 
L 349.760938 10.7 
L 346.379119 10.7 
L 342.997301 10.7 
L 339.615483 10.7 
L 336.233665 10.7 
L 332.851847 10.7 
L 329.470028 10.7 
L 326.08821 10.7 
L 322.706392 10.7 
L 319.324574 10.7 
L 318.479119 10.7 
L 318.479119 12.896364 
L 315.942756 14.543636 
L 315.097301 15.092727 
L 315.097301 17.289091 
L 315.097301 19.485455 
L 312.560938 21.132727 
L 311.715483 21.681818 
L 311.715483 23.878182 
L 311.715483 26.074545 
L 311.715483 28.270909 
L 309.179119 29.918182 
L 308.333665 30.467273 
L 308.333665 32.663636 
L 308.333665 34.86 
L 308.333665 37.056364 
L 305.797301 38.703636 
L 304.951847 39.252727 
L 304.951847 41.449091 
L 304.951847 43.645455 
L 304.951847 45.841818 
L 302.415483 47.489091 
L 301.570028 48.038182 
L 301.570028 50.234545 
L 301.570028 52.430909 
L 301.570028 54.627273 
L 299.033665 56.274545 
L 298.18821 56.823636 
L 298.18821 59.02 
L 298.18821 61.216364 
L 295.651847 62.863636 
L 294.806392 63.412727 
L 294.806392 65.609091 
L 294.806392 67.805455 
L 294.806392 70.001818 
L 292.270028 71.649091 
L 291.424574 72.198182 
L 291.424574 74.394545 
L 291.424574 76.590909 
L 291.424574 78.787273 
L 288.88821 80.434545 
L 288.042756 80.983636 
L 288.042756 83.18 
L 288.042756 85.376364 
L 288.042756 87.572727 
L 285.506392 89.22 
L 284.660938 89.769091 
L 284.660938 91.965455 
L 284.660938 94.161818 
L 282.124574 95.809091 
L 281.279119 96.358182 
L 281.279119 98.554545 
L 281.279119 100.750909 
L 281.279119 102.947273 
L 278.742756 104.594545 
L 277.897301 105.143636 
L 277.897301 107.34 
L 277.897301 109.536364 
L 277.897301 111.732727 
L 275.360938 113.38 
L 274.515483 113.929091 
L 274.515483 116.125455 
L 274.515483 118.321818 
L 274.515483 120.518182 
L 271.979119 122.165455 
L 271.133665 122.714545 
L 271.133665 124.910909 
L 271.133665 127.107273 
L 271.133665 129.303636 
L 268.597301 130.950909 
L 267.751847 131.5 
L 267.751847 133.696364 
L 267.751847 135.892727 
L 265.215483 137.54 
L 264.370028 138.089091 
L 264.370028 140.285455 
L 264.370028 142.481818 
L 264.370028 144.678182 
L 261.833665 146.325455 
L 260.98821 146.874545 
L 260.98821 149.070909 
L 260.98821 151.267273 
L 260.98821 153.463636 
L 258.451847 155.110909 
L 257.606392 155.66 
L 257.606392 157.856364 
L 257.606392 160.052727 
L 257.606392 162.249091 
L 255.070028 163.896364 
L 254.224574 164.445455 
L 254.224574 166.641818 
L 254.224574 168.838182 
L 254.224574 171.034545 
L 251.68821 172.681818 
L 250.842756 173.230909 
L 250.842756 175.427273 
L 250.842756 177.623636 
L 248.306392 179.270909 
L 247.460938 179.82 
L 247.460938 182.016364 
L 247.460938 184.212727 
L 247.460938 186.409091 
L 244.924574 188.056364 
L 244.079119 188.605455 
L 244.079119 190.801818 
L 244.079119 192.998182 
L 244.079119 195.194545 
L 241.542756 196.841818 
L 240.697301 197.390909 
L 240.697301 199.587273 
L 240.697301 201.783636 
L 240.697301 203.98 
L 238.160938 205.627273 
L 237.315483 206.176364 
L 237.315483 208.372727 
L 237.315483 210.569091 
L 237.315483 212.765455 
L 234.779119 214.412727 
L 233.933665 214.961818 
L 233.933665 217.158182 
L 233.933665 219.354545 
L 231.397301 221.001818 
L 230.551847 221.550909 
L 230.551847 223.747273 
L 230.551847 225.943636 
L 230.551847 228.14 
z
" style="fill:#ca3b37;fill-opacity:0.8;"/>
   </g>
   <g id="matplotlib.axis_1">
    <g id="xtick_1">
     <g id="line2d_1">
      <defs>
       <path d="M 0 0 
L 0 3.5 
" id="m5a1a39183d" style="stroke:#ffffff;stroke-width:0.8;"/>
      </defs>
      <g>
       <use style="fill:#ffffff;stroke:#ffffff;stroke-width:0.8;" x="62.835492" xlink:href="#m5a1a39183d" y="228.14"/>
      </g>
     </g>
     <g id="text_1">
      <!-- 3 -->
      <defs>
       <path d="M 10.59375 35.5 
L 73.1875 35.5 
L 73.1875 27.203125 
L 10.59375 27.203125 
z
" id="DejaVuSans-8722"/>
       <path d="M 40.578125 39.3125 
Q 47.65625 37.796875 51.625 33 
Q 55.609375 28.21875 55.609375 21.1875 
Q 55.609375 10.40625 48.1875 4.484375 
Q 40.765625 -1.421875 27.09375 -1.421875 
Q 22.515625 -1.421875 17.65625 -0.515625 
Q 12.796875 0.390625 7.625 2.203125 
L 7.625 11.71875 
Q 11.71875 9.328125 16.59375 8.109375 
Q 21.484375 6.890625 26.8125 6.890625 
Q 36.078125 6.890625 40.9375 10.546875 
Q 45.796875 14.203125 45.796875 21.1875 
Q 45.796875 27.640625 41.28125 31.265625 
Q 36.765625 34.90625 28.71875 34.90625 
L 20.21875 34.90625 
L 20.21875 43.015625 
L 29.109375 43.015625 
Q 36.375 43.015625 40.234375 45.921875 
Q 44.09375 48.828125 44.09375 54.296875 
Q 44.09375 59.90625 40.109375 62.90625 
Q 36.140625 65.921875 28.71875 65.921875 
Q 24.65625 65.921875 20.015625 65.03125 
Q 15.375 64.15625 9.8125 62.3125 
L 9.8125 71.09375 
Q 15.4375 72.65625 20.34375 73.4375 
Q 25.25 74.21875 29.59375 74.21875 
Q 40.828125 74.21875 47.359375 69.109375 
Q 53.90625 64.015625 53.90625 55.328125 
Q 53.90625 49.265625 50.4375 45.09375 
Q 46.96875 40.921875 40.578125 39.3125 
z
" id="DejaVuSans-51"/>
      </defs>
      <g style="fill:#ffffff;" transform="translate(55.464398 242.738437)scale(0.1 -0.1)">
       <use xlink:href="#DejaVuSans-8722"/>
       <use x="83.789062" xlink:href="#DejaVuSans-51"/>
      </g>
     </g>
    </g>
    <g id="xtick_2">
     <g id="line2d_2">
      <g>
       <use style="fill:#ffffff;stroke:#ffffff;stroke-width:0.8;" x="110.531542" xlink:href="#m5a1a39183d" y="228.14"/>
      </g>
     </g>
     <g id="text_2">
      <!-- 2 -->
      <defs>
       <path d="M 19.1875 8.296875 
L 53.609375 8.296875 
L 53.609375 0 
L 7.328125 0 
L 7.328125 8.296875 
Q 12.9375 14.109375 22.625 23.890625 
Q 32.328125 33.6875 34.8125 36.53125 
Q 39.546875 41.84375 41.421875 45.53125 
Q 43.3125 49.21875 43.3125 52.78125 
Q 43.3125 58.59375 39.234375 62.25 
Q 35.15625 65.921875 28.609375 65.921875 
Q 23.96875 65.921875 18.8125 64.3125 
Q 13.671875 62.703125 7.8125 59.421875 
L 7.8125 69.390625 
Q 13.765625 71.78125 18.9375 73 
Q 24.125 74.21875 28.421875 74.21875 
Q 39.75 74.21875 46.484375 68.546875 
Q 53.21875 62.890625 53.21875 53.421875 
Q 53.21875 48.921875 51.53125 44.890625 
Q 49.859375 40.875 45.40625 35.40625 
Q 44.1875 33.984375 37.640625 27.21875 
Q 31.109375 20.453125 19.1875 8.296875 
z
" id="DejaVuSans-50"/>
      </defs>
      <g style="fill:#ffffff;" transform="translate(103.160449 242.738437)scale(0.1 -0.1)">
       <use xlink:href="#DejaVuSans-8722"/>
       <use x="83.789062" xlink:href="#DejaVuSans-50"/>
      </g>
     </g>
    </g>
    <g id="xtick_3">
     <g id="line2d_3">
      <g>
       <use style="fill:#ffffff;stroke:#ffffff;stroke-width:0.8;" x="158.227593" xlink:href="#m5a1a39183d" y="228.14"/>
      </g>
     </g>
     <g id="text_3">
      <!-- 1 -->
      <defs>
       <path d="M 12.40625 8.296875 
L 28.515625 8.296875 
L 28.515625 63.921875 
L 10.984375 60.40625 
L 10.984375 69.390625 
L 28.421875 72.90625 
L 38.28125 72.90625 
L 38.28125 8.296875 
L 54.390625 8.296875 
L 54.390625 0 
L 12.40625 0 
z
" id="DejaVuSans-49"/>
      </defs>
      <g style="fill:#ffffff;" transform="translate(150.856499 242.738437)scale(0.1 -0.1)">
       <use xlink:href="#DejaVuSans-8722"/>
       <use x="83.789062" xlink:href="#DejaVuSans-49"/>
      </g>
     </g>
    </g>
    <g id="xtick_4">
     <g id="line2d_4">
      <g>
       <use style="fill:#ffffff;stroke:#ffffff;stroke-width:0.8;" x="205.923643" xlink:href="#m5a1a39183d" y="228.14"/>
      </g>
     </g>
     <g id="text_4">
      <!-- 0 -->
      <defs>
       <path d="M 31.78125 66.40625 
Q 24.171875 66.40625 20.328125 58.90625 
Q 16.5 51.421875 16.5 36.375 
Q 16.5 21.390625 20.328125 13.890625 
Q 24.171875 6.390625 31.78125 6.390625 
Q 39.453125 6.390625 43.28125 13.890625 
Q 47.125 21.390625 47.125 36.375 
Q 47.125 51.421875 43.28125 58.90625 
Q 39.453125 66.40625 31.78125 66.40625 
z
M 31.78125 74.21875 
Q 44.046875 74.21875 50.515625 64.515625 
Q 56.984375 54.828125 56.984375 36.375 
Q 56.984375 17.96875 50.515625 8.265625 
Q 44.046875 -1.421875 31.78125 -1.421875 
Q 19.53125 -1.421875 13.0625 8.265625 
Q 6.59375 17.96875 6.59375 36.375 
Q 6.59375 54.828125 13.0625 64.515625 
Q 19.53125 74.21875 31.78125 74.21875 
z
" id="DejaVuSans-48"/>
      </defs>
      <g style="fill:#ffffff;" transform="translate(202.742393 242.738437)scale(0.1 -0.1)">
       <use xlink:href="#DejaVuSans-48"/>
      </g>
     </g>
    </g>
    <g id="xtick_5">
     <g id="line2d_5">
      <g>
       <use style="fill:#ffffff;stroke:#ffffff;stroke-width:0.8;" x="253.619693" xlink:href="#m5a1a39183d" y="228.14"/>
      </g>
     </g>
     <g id="text_5">
      <!-- 1 -->
      <g style="fill:#ffffff;" transform="translate(250.438443 242.738437)scale(0.1 -0.1)">
       <use xlink:href="#DejaVuSans-49"/>
      </g>
     </g>
    </g>
    <g id="xtick_6">
     <g id="line2d_6">
      <g>
       <use style="fill:#ffffff;stroke:#ffffff;stroke-width:0.8;" x="301.315743" xlink:href="#m5a1a39183d" y="228.14"/>
      </g>
     </g>
     <g id="text_6">
      <!-- 2 -->
      <g style="fill:#ffffff;" transform="translate(298.134493 242.738437)scale(0.1 -0.1)">
       <use xlink:href="#DejaVuSans-50"/>
      </g>
     </g>
    </g>
    <g id="xtick_7">
     <g id="line2d_7">
      <g>
       <use style="fill:#ffffff;stroke:#ffffff;stroke-width:0.8;" x="349.011793" xlink:href="#m5a1a39183d" y="228.14"/>
      </g>
     </g>
     <g id="text_7">
      <!-- 3 -->
      <g style="fill:#ffffff;" transform="translate(345.830543 242.738437)scale(0.1 -0.1)">
       <use xlink:href="#DejaVuSans-51"/>
      </g>
     </g>
    </g>
    <g id="text_8">
     <!-- X0 -->
     <defs>
      <path d="M 6.296875 72.90625 
L 16.890625 72.90625 
L 35.015625 45.796875 
L 53.21875 72.90625 
L 63.8125 72.90625 
L 40.375 37.890625 
L 65.375 0 
L 54.78125 0 
L 34.28125 31 
L 13.625 0 
L 2.984375 0 
L 29 38.921875 
z
" id="DejaVuSans-88"/>
     </defs>
     <g style="fill:#ffffff;" transform="translate(212.954688 256.416562)scale(0.1 -0.1)">
      <use xlink:href="#DejaVuSans-88"/>
      <use x="68.505859" xlink:href="#DejaVuSans-48"/>
     </g>
    </g>
   </g>
   <g id="matplotlib.axis_2">
    <g id="ytick_1">
     <g id="line2d_8">
      <defs>
       <path d="M 0 0 
L -3.5 0 
" id="m5066c29588" style="stroke:#ffffff;stroke-width:0.8;"/>
      </defs>
      <g>
       <use style="fill:#ffffff;stroke:#ffffff;stroke-width:0.8;" x="52.160938" xlink:href="#m5066c29588" y="206.234776"/>
      </g>
     </g>
     <g id="text_9">
      <!-- 1.0 -->
      <defs>
       <path d="M 10.6875 12.40625 
L 21 12.40625 
L 21 0 
L 10.6875 0 
z
" id="DejaVuSans-46"/>
      </defs>
      <g style="fill:#ffffff;" transform="translate(20.878125 210.033995)scale(0.1 -0.1)">
       <use xlink:href="#DejaVuSans-8722"/>
       <use x="83.789062" xlink:href="#DejaVuSans-49"/>
       <use x="147.412109" xlink:href="#DejaVuSans-46"/>
       <use x="179.199219" xlink:href="#DejaVuSans-48"/>
      </g>
     </g>
    </g>
    <g id="ytick_2">
     <g id="line2d_9">
      <g>
       <use style="fill:#ffffff;stroke:#ffffff;stroke-width:0.8;" x="52.160938" xlink:href="#m5066c29588" y="165.055084"/>
      </g>
     </g>
     <g id="text_10">
      <!-- 0.5 -->
      <defs>
       <path d="M 10.796875 72.90625 
L 49.515625 72.90625 
L 49.515625 64.59375 
L 19.828125 64.59375 
L 19.828125 46.734375 
Q 21.96875 47.46875 24.109375 47.828125 
Q 26.265625 48.1875 28.421875 48.1875 
Q 40.625 48.1875 47.75 41.5 
Q 54.890625 34.8125 54.890625 23.390625 
Q 54.890625 11.625 47.5625 5.09375 
Q 40.234375 -1.421875 26.90625 -1.421875 
Q 22.3125 -1.421875 17.546875 -0.640625 
Q 12.796875 0.140625 7.71875 1.703125 
L 7.71875 11.625 
Q 12.109375 9.234375 16.796875 8.0625 
Q 21.484375 6.890625 26.703125 6.890625 
Q 35.15625 6.890625 40.078125 11.328125 
Q 45.015625 15.765625 45.015625 23.390625 
Q 45.015625 31 40.078125 35.4375 
Q 35.15625 39.890625 26.703125 39.890625 
Q 22.75 39.890625 18.8125 39.015625 
Q 14.890625 38.140625 10.796875 36.28125 
z
" id="DejaVuSans-53"/>
      </defs>
      <g style="fill:#ffffff;" transform="translate(20.878125 168.854303)scale(0.1 -0.1)">
       <use xlink:href="#DejaVuSans-8722"/>
       <use x="83.789062" xlink:href="#DejaVuSans-48"/>
       <use x="147.412109" xlink:href="#DejaVuSans-46"/>
       <use x="179.199219" xlink:href="#DejaVuSans-53"/>
      </g>
     </g>
    </g>
    <g id="ytick_3">
     <g id="line2d_10">
      <g>
       <use style="fill:#ffffff;stroke:#ffffff;stroke-width:0.8;" x="52.160938" xlink:href="#m5066c29588" y="123.875391"/>
      </g>
     </g>
     <g id="text_11">
      <!-- 0.0 -->
      <g style="fill:#ffffff;" transform="translate(29.257812 127.67461)scale(0.1 -0.1)">
       <use xlink:href="#DejaVuSans-48"/>
       <use x="63.623047" xlink:href="#DejaVuSans-46"/>
       <use x="95.410156" xlink:href="#DejaVuSans-48"/>
      </g>
     </g>
    </g>
    <g id="ytick_4">
     <g id="line2d_11">
      <g>
       <use style="fill:#ffffff;stroke:#ffffff;stroke-width:0.8;" x="52.160938" xlink:href="#m5066c29588" y="82.695699"/>
      </g>
     </g>
     <g id="text_12">
      <!-- 0.5 -->
      <g style="fill:#ffffff;" transform="translate(29.257812 86.494918)scale(0.1 -0.1)">
       <use xlink:href="#DejaVuSans-48"/>
       <use x="63.623047" xlink:href="#DejaVuSans-46"/>
       <use x="95.410156" xlink:href="#DejaVuSans-53"/>
      </g>
     </g>
    </g>
    <g id="ytick_5">
     <g id="line2d_12">
      <g>
       <use style="fill:#ffffff;stroke:#ffffff;stroke-width:0.8;" x="52.160938" xlink:href="#m5066c29588" y="41.516006"/>
      </g>
     </g>
     <g id="text_13">
      <!-- 1.0 -->
      <g style="fill:#ffffff;" transform="translate(29.257812 45.315225)scale(0.1 -0.1)">
       <use xlink:href="#DejaVuSans-49"/>
       <use x="63.623047" xlink:href="#DejaVuSans-46"/>
       <use x="95.410156" xlink:href="#DejaVuSans-48"/>
      </g>
     </g>
    </g>
    <g id="text_14">
     <!-- X1 -->
     <g style="fill:#ffffff;" transform="translate(14.798438 126.02625)rotate(-90)scale(0.1 -0.1)">
      <use xlink:href="#DejaVuSans-88"/>
      <use x="68.505859" xlink:href="#DejaVuSans-49"/>
     </g>
    </g>
   </g>
   <g id="line2d_13">
    <defs>
     <path d="M 0 1.5 
C 0.397805 1.5 0.77937 1.341951 1.06066 1.06066 
C 1.341951 0.77937 1.5 0.397805 1.5 0 
C 1.5 -0.397805 1.341951 -0.77937 1.06066 -1.06066 
C 0.77937 -1.341951 0.397805 -1.5 0 -1.5 
C -0.397805 -1.5 -0.77937 -1.341951 -1.06066 -1.06066 
C -1.341951 -0.77937 -1.5 -0.397805 -1.5 0 
C -1.5 0.397805 -1.341951 0.77937 -1.06066 1.06066 
C -0.77937 1.341951 -0.397805 1.5 0 1.5 
z
" id="m7b7e6a3a39" style="stroke:#ffffff;"/>
    </defs>
    <g clip-path="url(#pb744f341df)">
     <use style="fill:#ffffff;stroke:#ffffff;" x="77.901452" xlink:href="#m7b7e6a3a39" y="97.570031"/>
     <use style="fill:#ffffff;stroke:#ffffff;" x="76.469805" xlink:href="#m7b7e6a3a39" y="138.453103"/>
     <use style="fill:#ffffff;stroke:#ffffff;" x="68.130204" xlink:href="#m7b7e6a3a39" y="135.813337"/>
     <use style="fill:#ffffff;stroke:#ffffff;" x="74.981632" xlink:href="#m7b7e6a3a39" y="150.0903"/>
     <use style="fill:#ffffff;stroke:#ffffff;" x="75.774642" xlink:href="#m7b7e6a3a39" y="96.964091"/>
     <use style="fill:#ffffff;stroke:#ffffff;" x="97.135647" xlink:href="#m7b7e6a3a39" y="62.819872"/>
     <use style="fill:#ffffff;stroke:#ffffff;" x="71.395133" xlink:href="#m7b7e6a3a39" y="131.243376"/>
     <use style="fill:#ffffff;stroke:#ffffff;" x="80.6669" xlink:href="#m7b7e6a3a39" y="110.419107"/>
     <use style="fill:#ffffff;stroke:#ffffff;" x="68.254587" xlink:href="#m7b7e6a3a39" y="171.504792"/>
     <use style="fill:#ffffff;stroke:#ffffff;" x="78.443748" xlink:href="#m7b7e6a3a39" y="133.245768"/>
     <use style="fill:#ffffff;stroke:#ffffff;" x="86.352168" xlink:href="#m7b7e6a3a39" y="70.747914"/>
     <use style="fill:#ffffff;stroke:#ffffff;" x="81.305538" xlink:href="#m7b7e6a3a39" y="122.662243"/>
     <use style="fill:#ffffff;stroke:#ffffff;" x="73.037235" xlink:href="#m7b7e6a3a39" y="143.239071"/>
     <use style="fill:#ffffff;stroke:#ffffff;" x="52.160938" xlink:href="#m7b7e6a3a39" y="165.993535"/>
     <use style="fill:#ffffff;stroke:#ffffff;" x="79.779495" xlink:href="#m7b7e6a3a39" y="26.793061"/>
     <use style="fill:#ffffff;stroke:#ffffff;" x="92.119005" xlink:href="#m7b7e6a3a39" y="13.673401"/>
     <use style="fill:#ffffff;stroke:#ffffff;" x="80.791725" xlink:href="#m7b7e6a3a39" y="57.108325"/>
     <use style="fill:#ffffff;stroke:#ffffff;" x="79.61035" xlink:href="#m7b7e6a3a39" y="98.191688"/>
     <use style="fill:#ffffff;stroke:#ffffff;" x="101.000902" xlink:href="#m7b7e6a3a39" y="51.988905"/>
     <use style="fill:#ffffff;stroke:#ffffff;" x="82.486913" xlink:href="#m7b7e6a3a39" y="81.57888"/>
     <use style="fill:#ffffff;stroke:#ffffff;" x="95.733546" xlink:href="#m7b7e6a3a39" y="91.644381"/>
     <use style="fill:#ffffff;stroke:#ffffff;" x="84.59895" xlink:href="#m7b7e6a3a39" y="88.214102"/>
     <use style="fill:#ffffff;stroke:#ffffff;" x="52.536035" xlink:href="#m7b7e6a3a39" y="112.883043"/>
     <use style="fill:#ffffff;stroke:#ffffff;" x="96.092365" xlink:href="#m7b7e6a3a39" y="115.745791"/>
     <use style="fill:#ffffff;stroke:#ffffff;" x="93.563479" xlink:href="#m7b7e6a3a39" y="126.945902"/>
     <use style="fill:#ffffff;stroke:#ffffff;" x="86.365437" xlink:href="#m7b7e6a3a39" y="135.901252"/>
     <use style="fill:#ffffff;stroke:#ffffff;" x="88.170677" xlink:href="#m7b7e6a3a39" y="113.090307"/>
     <use style="fill:#ffffff;stroke:#ffffff;" x="83.711104" xlink:href="#m7b7e6a3a39" y="93.590292"/>
     <use style="fill:#ffffff;stroke:#ffffff;" x="80.028262" xlink:href="#m7b7e6a3a39" y="98.175971"/>
     <use style="fill:#ffffff;stroke:#ffffff;" x="80.388145" xlink:href="#m7b7e6a3a39" y="140.096997"/>
     <use style="fill:#ffffff;stroke:#ffffff;" x="82.514955" xlink:href="#m7b7e6a3a39" y="140.702937"/>
     <use style="fill:#ffffff;stroke:#ffffff;" x="90.979381" xlink:href="#m7b7e6a3a39" y="90.031922"/>
     <use style="fill:#ffffff;stroke:#ffffff;" x="79.583372" xlink:href="#m7b7e6a3a39" y="56.887247"/>
     <use style="fill:#ffffff;stroke:#ffffff;" x="81.974164" xlink:href="#m7b7e6a3a39" y="33.844579"/>
     <use style="fill:#ffffff;stroke:#ffffff;" x="80.152646" xlink:href="#m7b7e6a3a39" y="133.867425"/>
     <use style="fill:#ffffff;stroke:#ffffff;" x="69.215237" xlink:href="#m7b7e6a3a39" y="118.162576"/>
     <use style="fill:#ffffff;stroke:#ffffff;" x="80.710157" xlink:href="#m7b7e6a3a39" y="74.511645"/>
     <use style="fill:#ffffff;stroke:#ffffff;" x="72.342073" xlink:href="#m7b7e6a3a39" y="101.750058"/>
     <use style="fill:#ffffff;stroke:#ffffff;" x="63.765468" xlink:href="#m7b7e6a3a39" y="164.063341"/>
     <use style="fill:#ffffff;stroke:#ffffff;" x="82.390572" xlink:href="#m7b7e6a3a39" y="105.011482"/>
     <use style="fill:#ffffff;stroke:#ffffff;" x="73.800698" xlink:href="#m7b7e6a3a39" y="102.171426"/>
     <use style="fill:#ffffff;stroke:#ffffff;" x="70.02001" xlink:href="#m7b7e6a3a39" y="201.372325"/>
     <use style="fill:#ffffff;stroke:#ffffff;" x="62.95919" xlink:href="#m7b7e6a3a39" y="152.036211"/>
     <use style="fill:#ffffff;stroke:#ffffff;" x="91.185333" xlink:href="#m7b7e6a3a39" y="108.320057"/>
     <use style="fill:#ffffff;stroke:#ffffff;" x="100.539733" xlink:href="#m7b7e6a3a39" y="87.912084"/>
     <use style="fill:#ffffff;stroke:#ffffff;" x="76.455031" xlink:href="#m7b7e6a3a39" y="144.482385"/>
     <use style="fill:#ffffff;stroke:#ffffff;" x="84.863996" xlink:href="#m7b7e6a3a39" y="82.38511"/>
     <use style="fill:#ffffff;stroke:#ffffff;" x="70.492513" xlink:href="#m7b7e6a3a39" y="142.648848"/>
     <use style="fill:#ffffff;stroke:#ffffff;" x="84.628497" xlink:href="#m7b7e6a3a39" y="76.155538"/>
     <use style="fill:#ffffff;stroke:#ffffff;" x="76.984059" xlink:href="#m7b7e6a3a39" y="115.004785"/>
    </g>
   </g>
   <g id="line2d_14">
    <defs>
     <path d="M 0 1.5 
C 0.397805 1.5 0.77937 1.341951 1.06066 1.06066 
C 1.341951 0.77937 1.5 0.397805 1.5 0 
C 1.5 -0.397805 1.341951 -0.77937 1.06066 -1.06066 
C 0.77937 -1.341951 0.397805 -1.5 0 -1.5 
C -0.397805 -1.5 -0.77937 -1.341951 -1.06066 -1.06066 
C -1.341951 -0.77937 -1.5 -0.397805 -1.5 0 
C -1.5 0.397805 -1.341951 0.77937 -1.06066 1.06066 
C -0.77937 1.341951 -0.397805 1.5 0 1.5 
z
" id="m21037b5255" style="stroke:#0000ff;"/>
    </defs>
    <g clip-path="url(#pb744f341df)">
     <use style="fill:#0000ff;stroke:#0000ff;" x="267.204753" xlink:href="#m21037b5255" y="67.445996"/>
     <use style="fill:#0000ff;stroke:#0000ff;" x="250.399663" xlink:href="#m21037b5255" y="97.657629"/>
     <use style="fill:#0000ff;stroke:#0000ff;" x="275.76508" xlink:href="#m21037b5255" y="82.344616"/>
     <use style="fill:#0000ff;stroke:#0000ff;" x="214.667174" xlink:href="#m21037b5255" y="192.065586"/>
     <use style="fill:#0000ff;stroke:#0000ff;" x="257.82187" xlink:href="#m21037b5255" y="117.732149"/>
     <use style="fill:#0000ff;stroke:#0000ff;" x="236.528724" xlink:href="#m21037b5255" y="158.321946"/>
     <use style="fill:#0000ff;stroke:#0000ff;" x="258.153711" xlink:href="#m21037b5255" y="100.529119"/>
     <use style="fill:#0000ff;stroke:#0000ff;" x="170.19345" xlink:href="#m21037b5255" y="206.637593"/>
     <use style="fill:#0000ff;stroke:#0000ff;" x="255.724607" xlink:href="#m21037b5255" y="105.067646"/>
     <use style="fill:#0000ff;stroke:#0000ff;" x="205.506522" xlink:href="#m21037b5255" y="183.427972"/>
     <use style="fill:#0000ff;stroke:#0000ff;" x="181.701638" xlink:href="#m21037b5255" y="228.14"/>
     <use style="fill:#0000ff;stroke:#0000ff;" x="230.329643" xlink:href="#m21037b5255" y="132.439222"/>
     <use style="fill:#0000ff;stroke:#0000ff;" x="218.561976" xlink:href="#m21037b5255" y="169.176056"/>
     <use style="fill:#0000ff;stroke:#0000ff;" x="252.901129" xlink:href="#m21037b5255" y="134.155313"/>
     <use style="fill:#0000ff;stroke:#0000ff;" x="197.62809" xlink:href="#m21037b5255" y="144.865027"/>
     <use style="fill:#0000ff;stroke:#0000ff;" x="250.178937" xlink:href="#m21037b5255" y="85.398776"/>
     <use style="fill:#0000ff;stroke:#0000ff;" x="237.41657" xlink:href="#m21037b5255" y="152.945756"/>
     <use style="fill:#0000ff;stroke:#0000ff;" x="217.184918" xlink:href="#m21037b5255" y="151.351369"/>
     <use style="fill:#0000ff;stroke:#0000ff;" x="250.98371" xlink:href="#m21037b5255" y="168.608525"/>
     <use style="fill:#0000ff;stroke:#0000ff;" x="208.080791" xlink:href="#m21037b5255" y="171.959632"/>
     <use style="fill:#0000ff;stroke:#0000ff;" x="259.165941" xlink:href="#m21037b5255" y="130.844383"/>
     <use style="fill:#0000ff;stroke:#0000ff;" x="222.993507" xlink:href="#m21037b5255" y="129.552015"/>
     <use style="fill:#0000ff;stroke:#0000ff;" x="267.841886" xlink:href="#m21037b5255" y="150.871752"/>
     <use style="fill:#0000ff;stroke:#0000ff;" x="249.886472" xlink:href="#m21037b5255" y="138.925564"/>
     <use style="fill:#0000ff;stroke:#0000ff;" x="240.019323" xlink:href="#m21037b5255" y="111.599235"/>
     <use style="fill:#0000ff;stroke:#0000ff;" x="248.858405" xlink:href="#m21037b5255" y="96.819965"/>
     <use style="fill:#0000ff;stroke:#0000ff;" x="269.455947" xlink:href="#m21037b5255" y="103.743391"/>
     <use style="fill:#0000ff;stroke:#0000ff;" x="280.224653" xlink:href="#m21037b5255" y="101.844631"/>
     <use style="fill:#0000ff;stroke:#0000ff;" x="244.714394" xlink:href="#m21037b5255" y="137.328822"/>
     <use style="fill:#0000ff;stroke:#0000ff;" x="191.348504" xlink:href="#m21037b5255" y="154.205239"/>
     <use style="fill:#0000ff;stroke:#0000ff;" x="202.674278" xlink:href="#m21037b5255" y="181.952934"/>
     <use style="fill:#0000ff;stroke:#0000ff;" x="196.8794" xlink:href="#m21037b5255" y="179.903391"/>
     <use style="fill:#0000ff;stroke:#0000ff;" x="212.430753" xlink:href="#m21037b5255" y="149.73891"/>
     <use style="fill:#0000ff;stroke:#0000ff;" x="271.745453" xlink:href="#m21037b5255" y="158.544928"/>
     <use style="fill:#0000ff;stroke:#0000ff;" x="233.969228" xlink:href="#m21037b5255" y="163.761005"/>
     <use style="fill:#0000ff;stroke:#0000ff;" x="244.407597" xlink:href="#m21037b5255" y="107.882655"/>
     <use style="fill:#0000ff;stroke:#0000ff;" x="264.145776" xlink:href="#m21037b5255" y="90.304092"/>
     <use style="fill:#0000ff;stroke:#0000ff;" x="244.800466" xlink:href="#m21037b5255" y="154.516135"/>
     <use style="fill:#0000ff;stroke:#0000ff;" x="217.654853" xlink:href="#m21037b5255" y="145.990896"/>
     <use style="fill:#0000ff;stroke:#0000ff;" x="213.860896" xlink:href="#m21037b5255" y="180.038457"/>
     <use style="fill:#0000ff;stroke:#0000ff;" x="228.092781" xlink:href="#m21037b5255" y="179.114782"/>
     <use style="fill:#0000ff;stroke:#0000ff;" x="248.412009" xlink:href="#m21037b5255" y="126.713862"/>
     <use style="fill:#0000ff;stroke:#0000ff;" x="216.919873" xlink:href="#m21037b5255" y="157.180361"/>
     <use style="fill:#0000ff;stroke:#0000ff;" x="172.320261" xlink:href="#m21037b5255" y="207.243533"/>
     <use style="fill:#0000ff;stroke:#0000ff;" x="222.95025" xlink:href="#m21037b5255" y="165.459476"/>
     <use style="fill:#0000ff;stroke:#0000ff;" x="221.755606" xlink:href="#m21037b5255" y="141.3895"/>
     <use style="fill:#0000ff;stroke:#0000ff;" x="223.867643" xlink:href="#m21037b5255" y="148.024722"/>
     <use style="fill:#0000ff;stroke:#0000ff;" x="236.57198" xlink:href="#m21037b5255" y="122.414485"/>
     <use style="fill:#0000ff;stroke:#0000ff;" x="162.688611" xlink:href="#m21037b5255" y="186.146776"/>
     <use style="fill:#0000ff;stroke:#0000ff;" x="220.184802" xlink:href="#m21037b5255" y="152.6104"/>
    </g>
   </g>
   <g id="line2d_15">
    <defs>
     <path d="M 0 1.5 
C 0.397805 1.5 0.77937 1.341951 1.06066 1.06066 
C 1.341951 0.77937 1.5 0.397805 1.5 0 
C 1.5 -0.397805 1.341951 -0.77937 1.06066 -1.06066 
C 0.77937 -1.341951 0.397805 -1.5 0 -1.5 
C -0.397805 -1.5 -0.77937 -1.341951 -1.06066 -1.06066 
C -1.341951 -0.77937 -1.5 -0.397805 -1.5 0 
C -1.5 0.397805 -1.341951 0.77937 -1.06066 1.06066 
C -0.77937 1.341951 -0.397805 1.5 0 1.5 
z
" id="mc69049d44e" style="stroke:#000000;"/>
    </defs>
    <g clip-path="url(#pb744f341df)">
     <use style="stroke:#000000;" x="326.651538" xlink:href="#mc69049d44e" y="124.686558"/>
     <use style="stroke:#000000;" x="273.424804" xlink:href="#mc69049d44e" y="171.225148"/>
     <use style="stroke:#000000;" x="330.728753" xlink:href="#mc69049d44e" y="95.551739"/>
     <use style="stroke:#000000;" x="299.957887" xlink:href="#mc69049d44e" y="138.677671"/>
     <use style="stroke:#000000;" x="318.009643" xlink:href="#mc69049d44e" y="127.191258"/>
     <use style="stroke:#000000;" x="367.948973" xlink:href="#mc69049d44e" y="78.508822"/>
     <use style="stroke:#000000;" x="230.784362" xlink:href="#mc69049d44e" y="222.110267"/>
     <use style="stroke:#000000;" x="345.796463" xlink:href="#mc69049d44e" y="94.59663"/>
     <use style="stroke:#000000;" x="316.637089" xlink:href="#mc69049d44e" y="143.957204"/>
     <use style="stroke:#000000;" x="345.041143" xlink:href="#mc69049d44e" y="59.405128"/>
     <use style="stroke:#000000;" x="285.183706" xlink:href="#mc69049d44e" y="103.925609"/>
     <use style="stroke:#000000;" x="291.938793" xlink:href="#mc69049d44e" y="141.635173"/>
     <use style="stroke:#000000;" x="309.213818" xlink:href="#mc69049d44e" y="106.063067"/>
     <use style="stroke:#000000;" x="270.130328" xlink:href="#mc69049d44e" y="187.853673"/>
     <use style="stroke:#000000;" x="281.566155" xlink:href="#mc69049d44e" y="168.319869"/>
     <use style="stroke:#000000;" x="296.75869" xlink:href="#mc69049d44e" y="114.053978"/>
     <use style="stroke:#000000;" x="298.91611" xlink:href="#mc69049d44e" y="120.42097"/>
     <use style="stroke:#000000;" x="372.242411" xlink:href="#mc69049d44e" y="27.042223"/>
     <use style="stroke:#000000;" x="386.960938" xlink:href="#mc69049d44e" y="102.68243"/>
     <use style="stroke:#000000;" x="267.96627" xlink:href="#mc69049d44e" y="186.563207"/>
     <use style="stroke:#000000;" x="321.720968" xlink:href="#mc69049d44e" y="92.7274"/>
     <use style="stroke:#000000;" x="263.11126" xlink:href="#mc69049d44e" y="173.792717"/>
     <use style="stroke:#000000;" x="372.856005" xlink:href="#mc69049d44e" y="85.934556"/>
     <use style="stroke:#000000;" x="272.162302" xlink:href="#mc69049d44e" y="140.709594"/>
     <use style="stroke:#000000;" x="314.45269" xlink:href="#mc69049d44e" y="96.285771"/>
     <use style="stroke:#000000;" x="330.605433" xlink:href="#mc69049d44e" y="77.679901"/>
     <use style="stroke:#000000;" x="265.949511" xlink:href="#mc69049d44e" y="138.675768"/>
     <use style="stroke:#000000;" x="267.505542" xlink:href="#mc69049d44e" y="133.48415"/>
     <use style="stroke:#000000;" x="307.211391" xlink:href="#mc69049d44e" y="141.148582"/>
     <use style="stroke:#000000;" x="319.821955" xlink:href="#mc69049d44e" y="85.607943"/>
     <use style="stroke:#000000;" x="341.46021" xlink:href="#mc69049d44e" y="92.968454"/>
     <use style="stroke:#000000;" x="360.014016" xlink:href="#mc69049d44e" y="10.7"/>
     <use style="stroke:#000000;" x="308.920289" xlink:href="#mc69049d44e" y="141.770239"/>
     <use style="stroke:#000000;" x="274.80443" xlink:href="#mc69049d44e" y="135.686832"/>
     <use style="stroke:#000000;" x="290.88437" xlink:href="#mc69049d44e" y="165.046986"/>
     <use style="stroke:#000000;" x="352.660538" xlink:href="#mc69049d44e" y="67.205078"/>
     <use style="stroke:#000000;" x="308.19558" xlink:href="#mc69049d44e" y="112.33979"/>
     <use style="stroke:#000000;" x="296.7893" xlink:href="#mc69049d44e" y="119.81503"/>
     <use style="stroke:#000000;" x="261.695891" xlink:href="#mc69049d44e" y="137.463888"/>
     <use style="stroke:#000000;" x="306.44837" xlink:href="#mc69049d44e" y="93.213991"/>
     <use style="stroke:#000000;" x="316.299682" xlink:href="#mc69049d44e" y="108.749985"/>
     <use style="stroke:#000000;" x="297.608224" xlink:href="#mc69049d44e" y="90.173646"/>
     <use style="stroke:#000000;" x="273.424804" xlink:href="#mc69049d44e" y="171.225148"/>
     <use style="stroke:#000000;" x="328.169257" xlink:href="#mc69049d44e" y="100.990798"/>
     <use style="stroke:#000000;" x="321.288282" xlink:href="#mc69049d44e" y="98.772399"/>
     <use style="stroke:#000000;" x="298.650001" xlink:href="#mc69049d44e" y="108.430346"/>
     <use style="stroke:#000000;" x="278.763458" xlink:href="#mc69049d44e" y="154.786267"/>
     <use style="stroke:#000000;" x="290.075965" xlink:href="#mc69049d44e" y="117.380625"/>
     <use style="stroke:#000000;" x="296.59105" xlink:href="#mc69049d44e" y="114.269984"/>
     <use style="stroke:#000000;" x="272.230161" xlink:href="#mc69049d44e" y="147.155172"/>
    </g>
   </g>
   <g id="patch_3">
    <path d="M 52.160938 228.14 
L 52.160938 10.7 
" style="fill:none;stroke:#ffffff;stroke-linecap:square;stroke-linejoin:miter;stroke-width:0.8;"/>
   </g>
   <g id="patch_4">
    <path d="M 386.960938 228.14 
L 386.960938 10.7 
" style="fill:none;stroke:#ffffff;stroke-linecap:square;stroke-linejoin:miter;stroke-width:0.8;"/>
   </g>
   <g id="patch_5">
    <path d="M 52.160938 228.14 
L 386.960938 228.14 
" style="fill:none;stroke:#ffffff;stroke-linecap:square;stroke-linejoin:miter;stroke-width:0.8;"/>
   </g>
   <g id="patch_6">
    <path d="M 52.160938 10.7 
L 386.960938 10.7 
" style="fill:none;stroke:#ffffff;stroke-linecap:square;stroke-linejoin:miter;stroke-width:0.8;"/>
   </g>
   <g id="legend_1">
    <g id="patch_7">
     <path d="M 299.165625 223.14 
L 379.960938 223.14 
Q 381.960938 223.14 381.960938 221.14 
L 381.960938 178.105625 
Q 381.960938 176.105625 379.960938 176.105625 
L 299.165625 176.105625 
Q 297.165625 176.105625 297.165625 178.105625 
L 297.165625 221.14 
Q 297.165625 223.14 299.165625 223.14 
z
" style="opacity:0.8;stroke:#cccccc;stroke-linejoin:miter;"/>
    </g>
    <g id="line2d_16"/>
    <g id="line2d_17">
     <g>
      <use style="fill:#ffffff;stroke:#ffffff;" x="311.165625" xlink:href="#m7b7e6a3a39" y="184.204062"/>
     </g>
    </g>
    <g id="text_15">
     <!-- setosa -->
     <defs>
      <path d="M 44.28125 53.078125 
L 44.28125 44.578125 
Q 40.484375 46.53125 36.375 47.5 
Q 32.28125 48.484375 27.875 48.484375 
Q 21.1875 48.484375 17.84375 46.4375 
Q 14.5 44.390625 14.5 40.28125 
Q 14.5 37.15625 16.890625 35.375 
Q 19.28125 33.59375 26.515625 31.984375 
L 29.59375 31.296875 
Q 39.15625 29.25 43.1875 25.515625 
Q 47.21875 21.78125 47.21875 15.09375 
Q 47.21875 7.46875 41.1875 3.015625 
Q 35.15625 -1.421875 24.609375 -1.421875 
Q 20.21875 -1.421875 15.453125 -0.5625 
Q 10.6875 0.296875 5.421875 2 
L 5.421875 11.28125 
Q 10.40625 8.6875 15.234375 7.390625 
Q 20.0625 6.109375 24.8125 6.109375 
Q 31.15625 6.109375 34.5625 8.28125 
Q 37.984375 10.453125 37.984375 14.40625 
Q 37.984375 18.0625 35.515625 20.015625 
Q 33.0625 21.96875 24.703125 23.78125 
L 21.578125 24.515625 
Q 13.234375 26.265625 9.515625 29.90625 
Q 5.8125 33.546875 5.8125 39.890625 
Q 5.8125 47.609375 11.28125 51.796875 
Q 16.75 56 26.8125 56 
Q 31.78125 56 36.171875 55.265625 
Q 40.578125 54.546875 44.28125 53.078125 
z
" id="DejaVuSans-115"/>
      <path d="M 56.203125 29.59375 
L 56.203125 25.203125 
L 14.890625 25.203125 
Q 15.484375 15.921875 20.484375 11.0625 
Q 25.484375 6.203125 34.421875 6.203125 
Q 39.59375 6.203125 44.453125 7.46875 
Q 49.3125 8.734375 54.109375 11.28125 
L 54.109375 2.78125 
Q 49.265625 0.734375 44.1875 -0.34375 
Q 39.109375 -1.421875 33.890625 -1.421875 
Q 20.796875 -1.421875 13.15625 6.1875 
Q 5.515625 13.8125 5.515625 26.8125 
Q 5.515625 40.234375 12.765625 48.109375 
Q 20.015625 56 32.328125 56 
Q 43.359375 56 49.78125 48.890625 
Q 56.203125 41.796875 56.203125 29.59375 
z
M 47.21875 32.234375 
Q 47.125 39.59375 43.09375 43.984375 
Q 39.0625 48.390625 32.421875 48.390625 
Q 24.90625 48.390625 20.390625 44.140625 
Q 15.875 39.890625 15.1875 32.171875 
z
" id="DejaVuSans-101"/>
      <path d="M 18.3125 70.21875 
L 18.3125 54.6875 
L 36.8125 54.6875 
L 36.8125 47.703125 
L 18.3125 47.703125 
L 18.3125 18.015625 
Q 18.3125 11.328125 20.140625 9.421875 
Q 21.96875 7.515625 27.59375 7.515625 
L 36.8125 7.515625 
L 36.8125 0 
L 27.59375 0 
Q 17.1875 0 13.234375 3.875 
Q 9.28125 7.765625 9.28125 18.015625 
L 9.28125 47.703125 
L 2.6875 47.703125 
L 2.6875 54.6875 
L 9.28125 54.6875 
L 9.28125 70.21875 
z
" id="DejaVuSans-116"/>
      <path d="M 30.609375 48.390625 
Q 23.390625 48.390625 19.1875 42.75 
Q 14.984375 37.109375 14.984375 27.296875 
Q 14.984375 17.484375 19.15625 11.84375 
Q 23.34375 6.203125 30.609375 6.203125 
Q 37.796875 6.203125 41.984375 11.859375 
Q 46.1875 17.53125 46.1875 27.296875 
Q 46.1875 37.015625 41.984375 42.703125 
Q 37.796875 48.390625 30.609375 48.390625 
z
M 30.609375 56 
Q 42.328125 56 49.015625 48.375 
Q 55.71875 40.765625 55.71875 27.296875 
Q 55.71875 13.875 49.015625 6.21875 
Q 42.328125 -1.421875 30.609375 -1.421875 
Q 18.84375 -1.421875 12.171875 6.21875 
Q 5.515625 13.875 5.515625 27.296875 
Q 5.515625 40.765625 12.171875 48.375 
Q 18.84375 56 30.609375 56 
z
" id="DejaVuSans-111"/>
      <path d="M 34.28125 27.484375 
Q 23.390625 27.484375 19.1875 25 
Q 14.984375 22.515625 14.984375 16.5 
Q 14.984375 11.71875 18.140625 8.90625 
Q 21.296875 6.109375 26.703125 6.109375 
Q 34.1875 6.109375 38.703125 11.40625 
Q 43.21875 16.703125 43.21875 25.484375 
L 43.21875 27.484375 
z
M 52.203125 31.203125 
L 52.203125 0 
L 43.21875 0 
L 43.21875 8.296875 
Q 40.140625 3.328125 35.546875 0.953125 
Q 30.953125 -1.421875 24.3125 -1.421875 
Q 15.921875 -1.421875 10.953125 3.296875 
Q 6 8.015625 6 15.921875 
Q 6 25.140625 12.171875 29.828125 
Q 18.359375 34.515625 30.609375 34.515625 
L 43.21875 34.515625 
L 43.21875 35.40625 
Q 43.21875 41.609375 39.140625 45 
Q 35.0625 48.390625 27.6875 48.390625 
Q 23 48.390625 18.546875 47.265625 
Q 14.109375 46.140625 10.015625 43.890625 
L 10.015625 52.203125 
Q 14.9375 54.109375 19.578125 55.046875 
Q 24.21875 56 28.609375 56 
Q 40.484375 56 46.34375 49.84375 
Q 52.203125 43.703125 52.203125 31.203125 
z
" id="DejaVuSans-97"/>
     </defs>
     <g style="fill:#ffffff;" transform="translate(329.165625 187.704062)scale(0.1 -0.1)">
      <use xlink:href="#DejaVuSans-115"/>
      <use x="52.099609" xlink:href="#DejaVuSans-101"/>
      <use x="113.623047" xlink:href="#DejaVuSans-116"/>
      <use x="152.832031" xlink:href="#DejaVuSans-111"/>
      <use x="214.013672" xlink:href="#DejaVuSans-115"/>
      <use x="266.113281" xlink:href="#DejaVuSans-97"/>
     </g>
    </g>
    <g id="line2d_18"/>
    <g id="line2d_19">
     <g>
      <use style="fill:#0000ff;stroke:#0000ff;" x="311.165625" xlink:href="#m21037b5255" y="198.882187"/>
     </g>
    </g>
    <g id="text_16">
     <!-- versicolor -->
     <defs>
      <path d="M 2.984375 54.6875 
L 12.5 54.6875 
L 29.59375 8.796875 
L 46.6875 54.6875 
L 56.203125 54.6875 
L 35.6875 0 
L 23.484375 0 
z
" id="DejaVuSans-118"/>
      <path d="M 41.109375 46.296875 
Q 39.59375 47.171875 37.8125 47.578125 
Q 36.03125 48 33.890625 48 
Q 26.265625 48 22.1875 43.046875 
Q 18.109375 38.09375 18.109375 28.8125 
L 18.109375 0 
L 9.078125 0 
L 9.078125 54.6875 
L 18.109375 54.6875 
L 18.109375 46.1875 
Q 20.953125 51.171875 25.484375 53.578125 
Q 30.03125 56 36.53125 56 
Q 37.453125 56 38.578125 55.875 
Q 39.703125 55.765625 41.0625 55.515625 
z
" id="DejaVuSans-114"/>
      <path d="M 9.421875 54.6875 
L 18.40625 54.6875 
L 18.40625 0 
L 9.421875 0 
z
M 9.421875 75.984375 
L 18.40625 75.984375 
L 18.40625 64.59375 
L 9.421875 64.59375 
z
" id="DejaVuSans-105"/>
      <path d="M 48.78125 52.59375 
L 48.78125 44.1875 
Q 44.96875 46.296875 41.140625 47.34375 
Q 37.3125 48.390625 33.40625 48.390625 
Q 24.65625 48.390625 19.8125 42.84375 
Q 14.984375 37.3125 14.984375 27.296875 
Q 14.984375 17.28125 19.8125 11.734375 
Q 24.65625 6.203125 33.40625 6.203125 
Q 37.3125 6.203125 41.140625 7.25 
Q 44.96875 8.296875 48.78125 10.40625 
L 48.78125 2.09375 
Q 45.015625 0.34375 40.984375 -0.53125 
Q 36.96875 -1.421875 32.421875 -1.421875 
Q 20.0625 -1.421875 12.78125 6.34375 
Q 5.515625 14.109375 5.515625 27.296875 
Q 5.515625 40.671875 12.859375 48.328125 
Q 20.21875 56 33.015625 56 
Q 37.15625 56 41.109375 55.140625 
Q 45.0625 54.296875 48.78125 52.59375 
z
" id="DejaVuSans-99"/>
      <path d="M 9.421875 75.984375 
L 18.40625 75.984375 
L 18.40625 0 
L 9.421875 0 
z
" id="DejaVuSans-108"/>
     </defs>
     <g style="fill:#ffffff;" transform="translate(329.165625 202.382187)scale(0.1 -0.1)">
      <use xlink:href="#DejaVuSans-118"/>
      <use x="59.179688" xlink:href="#DejaVuSans-101"/>
      <use x="120.703125" xlink:href="#DejaVuSans-114"/>
      <use x="161.816406" xlink:href="#DejaVuSans-115"/>
      <use x="213.916016" xlink:href="#DejaVuSans-105"/>
      <use x="241.699219" xlink:href="#DejaVuSans-99"/>
      <use x="296.679688" xlink:href="#DejaVuSans-111"/>
      <use x="357.861328" xlink:href="#DejaVuSans-108"/>
      <use x="385.644531" xlink:href="#DejaVuSans-111"/>
      <use x="446.826172" xlink:href="#DejaVuSans-114"/>
     </g>
    </g>
    <g id="line2d_20"/>
    <g id="line2d_21">
     <g>
      <use style="stroke:#000000;" x="311.165625" xlink:href="#mc69049d44e" y="213.560312"/>
     </g>
    </g>
    <g id="text_17">
     <!-- virginica -->
     <defs>
      <path d="M 45.40625 27.984375 
Q 45.40625 37.75 41.375 43.109375 
Q 37.359375 48.484375 30.078125 48.484375 
Q 22.859375 48.484375 18.828125 43.109375 
Q 14.796875 37.75 14.796875 27.984375 
Q 14.796875 18.265625 18.828125 12.890625 
Q 22.859375 7.515625 30.078125 7.515625 
Q 37.359375 7.515625 41.375 12.890625 
Q 45.40625 18.265625 45.40625 27.984375 
z
M 54.390625 6.78125 
Q 54.390625 -7.171875 48.1875 -13.984375 
Q 42 -20.796875 29.203125 -20.796875 
Q 24.46875 -20.796875 20.265625 -20.09375 
Q 16.0625 -19.390625 12.109375 -17.921875 
L 12.109375 -9.1875 
Q 16.0625 -11.328125 19.921875 -12.34375 
Q 23.78125 -13.375 27.78125 -13.375 
Q 36.625 -13.375 41.015625 -8.765625 
Q 45.40625 -4.15625 45.40625 5.171875 
L 45.40625 9.625 
Q 42.625 4.78125 38.28125 2.390625 
Q 33.9375 0 27.875 0 
Q 17.828125 0 11.671875 7.65625 
Q 5.515625 15.328125 5.515625 27.984375 
Q 5.515625 40.671875 11.671875 48.328125 
Q 17.828125 56 27.875 56 
Q 33.9375 56 38.28125 53.609375 
Q 42.625 51.21875 45.40625 46.390625 
L 45.40625 54.6875 
L 54.390625 54.6875 
z
" id="DejaVuSans-103"/>
      <path d="M 54.890625 33.015625 
L 54.890625 0 
L 45.90625 0 
L 45.90625 32.71875 
Q 45.90625 40.484375 42.875 44.328125 
Q 39.84375 48.1875 33.796875 48.1875 
Q 26.515625 48.1875 22.3125 43.546875 
Q 18.109375 38.921875 18.109375 30.90625 
L 18.109375 0 
L 9.078125 0 
L 9.078125 54.6875 
L 18.109375 54.6875 
L 18.109375 46.1875 
Q 21.34375 51.125 25.703125 53.5625 
Q 30.078125 56 35.796875 56 
Q 45.21875 56 50.046875 50.171875 
Q 54.890625 44.34375 54.890625 33.015625 
z
" id="DejaVuSans-110"/>
     </defs>
     <g style="fill:#ffffff;" transform="translate(329.165625 217.060312)scale(0.1 -0.1)">
      <use xlink:href="#DejaVuSans-118"/>
      <use x="59.179688" xlink:href="#DejaVuSans-105"/>
      <use x="86.962891" xlink:href="#DejaVuSans-114"/>
      <use x="128.060547" xlink:href="#DejaVuSans-103"/>
      <use x="191.537109" xlink:href="#DejaVuSans-105"/>
      <use x="219.320312" xlink:href="#DejaVuSans-110"/>
      <use x="282.699219" xlink:href="#DejaVuSans-105"/>
      <use x="310.482422" xlink:href="#DejaVuSans-99"/>
      <use x="365.462891" xlink:href="#DejaVuSans-97"/>
     </g>
    </g>
   </g>
  </g>
 </g>
 <defs>
  <clipPath id="pb744f341df">
   <rect height="217.44" width="334.8" x="52.160938" y="10.7"/>
  </clipPath>
 </defs>
</svg>
